<?xml version="1.0" encoding="utf-8"?>
<svg xmlns="http://www.w3.org/2000/svg" xmlns:xlink="http://www.w3.org/1999/xlink" width="600" height="400" viewBox="0 0 2400 1600">
<defs>
  <clipPath id="clip260">
    <rect x="0" y="0" width="2400" height="1600"/>
  </clipPath>
</defs>
<path clip-path="url(#clip260)" d="
M0 1600 L2400 1600 L2400 0 L0 0  Z
  " fill="#ffffff" fill-rule="evenodd" fill-opacity="1"/>
<defs>
  <clipPath id="clip261">
    <rect x="480" y="0" width="1681" height="1600"/>
  </clipPath>
</defs>
<path clip-path="url(#clip260)" d="
M140.696 1423.18 L1152.76 1423.18 L1152.76 47.2441 L140.696 47.2441  Z
  " fill="#ffffff" fill-rule="evenodd" fill-opacity="1"/>
<defs>
  <clipPath id="clip262">
    <rect x="140" y="47" width="1013" height="1377"/>
  </clipPath>
</defs>
<polyline clip-path="url(#clip262)" style="stroke:#000000; stroke-linecap:butt; stroke-linejoin:round; stroke-width:2; stroke-opacity:0.1; fill:none" points="
  159.344,1423.18 159.344,47.2441 
  "/>
<polyline clip-path="url(#clip262)" style="stroke:#000000; stroke-linecap:butt; stroke-linejoin:round; stroke-width:2; stroke-opacity:0.1; fill:none" points="
  467.814,1423.18 467.814,47.2441 
  "/>
<polyline clip-path="url(#clip262)" style="stroke:#000000; stroke-linecap:butt; stroke-linejoin:round; stroke-width:2; stroke-opacity:0.1; fill:none" points="
  776.283,1423.18 776.283,47.2441 
  "/>
<polyline clip-path="url(#clip262)" style="stroke:#000000; stroke-linecap:butt; stroke-linejoin:round; stroke-width:2; stroke-opacity:0.1; fill:none" points="
  1084.75,1423.18 1084.75,47.2441 
  "/>
<polyline clip-path="url(#clip260)" style="stroke:#000000; stroke-linecap:butt; stroke-linejoin:round; stroke-width:4; stroke-opacity:1; fill:none" points="
  140.696,1423.18 1152.76,1423.18 
  "/>
<polyline clip-path="url(#clip260)" style="stroke:#000000; stroke-linecap:butt; stroke-linejoin:round; stroke-width:4; stroke-opacity:1; fill:none" points="
  159.344,1423.18 159.344,1404.28 
  "/>
<polyline clip-path="url(#clip260)" style="stroke:#000000; stroke-linecap:butt; stroke-linejoin:round; stroke-width:4; stroke-opacity:1; fill:none" points="
  467.814,1423.18 467.814,1404.28 
  "/>
<polyline clip-path="url(#clip260)" style="stroke:#000000; stroke-linecap:butt; stroke-linejoin:round; stroke-width:4; stroke-opacity:1; fill:none" points="
  776.283,1423.18 776.283,1404.28 
  "/>
<polyline clip-path="url(#clip260)" style="stroke:#000000; stroke-linecap:butt; stroke-linejoin:round; stroke-width:4; stroke-opacity:1; fill:none" points="
  1084.75,1423.18 1084.75,1404.28 
  "/>
<path clip-path="url(#clip260)" d="M136.729 1452.37 Q133.118 1452.37 131.289 1455.94 Q129.483 1459.48 129.483 1466.61 Q129.483 1473.71 131.289 1477.28 Q133.118 1480.82 136.729 1480.82 Q140.363 1480.82 142.169 1477.28 Q143.997 1473.71 143.997 1466.61 Q143.997 1459.48 142.169 1455.94 Q140.363 1452.37 136.729 1452.37 M136.729 1448.67 Q142.539 1448.67 145.594 1453.27 Q148.673 1457.86 148.673 1466.61 Q148.673 1475.33 145.594 1479.94 Q142.539 1484.52 136.729 1484.52 Q130.919 1484.52 127.84 1479.94 Q124.784 1475.33 124.784 1466.61 Q124.784 1457.86 127.84 1453.27 Q130.919 1448.67 136.729 1448.67 Z" fill="#000000" fill-rule="evenodd" fill-opacity="1" /><path clip-path="url(#clip260)" d="M156.891 1477.97 L161.775 1477.97 L161.775 1483.85 L156.891 1483.85 L156.891 1477.97 Z" fill="#000000" fill-rule="evenodd" fill-opacity="1" /><path clip-path="url(#clip260)" d="M181.96 1452.37 Q178.349 1452.37 176.52 1455.94 Q174.715 1459.48 174.715 1466.61 Q174.715 1473.71 176.52 1477.28 Q178.349 1480.82 181.96 1480.82 Q185.594 1480.82 187.4 1477.28 Q189.228 1473.71 189.228 1466.61 Q189.228 1459.48 187.4 1455.94 Q185.594 1452.37 181.96 1452.37 M181.96 1448.67 Q187.77 1448.67 190.826 1453.27 Q193.904 1457.86 193.904 1466.61 Q193.904 1475.33 190.826 1479.94 Q187.77 1484.52 181.96 1484.52 Q176.15 1484.52 173.071 1479.94 Q170.016 1475.33 170.016 1466.61 Q170.016 1457.86 173.071 1453.27 Q176.15 1448.67 181.96 1448.67 Z" fill="#000000" fill-rule="evenodd" fill-opacity="1" /><path clip-path="url(#clip260)" d="M445.696 1452.37 Q442.085 1452.37 440.256 1455.94 Q438.45 1459.48 438.45 1466.61 Q438.45 1473.71 440.256 1477.28 Q442.085 1480.82 445.696 1480.82 Q449.33 1480.82 451.135 1477.28 Q452.964 1473.71 452.964 1466.61 Q452.964 1459.48 451.135 1455.94 Q449.33 1452.37 445.696 1452.37 M445.696 1448.67 Q451.506 1448.67 454.561 1453.27 Q457.64 1457.86 457.64 1466.61 Q457.64 1475.33 454.561 1479.94 Q451.506 1484.52 445.696 1484.52 Q439.885 1484.52 436.807 1479.94 Q433.751 1475.33 433.751 1466.61 Q433.751 1457.86 436.807 1453.27 Q439.885 1448.67 445.696 1448.67 Z" fill="#000000" fill-rule="evenodd" fill-opacity="1" /><path clip-path="url(#clip260)" d="M465.858 1477.97 L470.742 1477.97 L470.742 1483.85 L465.858 1483.85 L465.858 1477.97 Z" fill="#000000" fill-rule="evenodd" fill-opacity="1" /><path clip-path="url(#clip260)" d="M480.973 1449.29 L499.33 1449.29 L499.33 1453.23 L485.256 1453.23 L485.256 1461.7 Q486.274 1461.35 487.293 1461.19 Q488.311 1461 489.33 1461 Q495.117 1461 498.496 1464.18 Q501.876 1467.35 501.876 1472.76 Q501.876 1478.34 498.404 1481.44 Q494.931 1484.52 488.612 1484.52 Q486.436 1484.52 484.168 1484.15 Q481.922 1483.78 479.515 1483.04 L479.515 1478.34 Q481.598 1479.48 483.82 1480.03 Q486.043 1480.59 488.519 1480.59 Q492.524 1480.59 494.862 1478.48 Q497.2 1476.38 497.2 1472.76 Q497.2 1469.15 494.862 1467.05 Q492.524 1464.94 488.519 1464.94 Q486.644 1464.94 484.77 1465.36 Q482.918 1465.77 480.973 1466.65 L480.973 1449.29 Z" fill="#000000" fill-rule="evenodd" fill-opacity="1" /><path clip-path="url(#clip260)" d="M743.436 1479.92 L751.075 1479.92 L751.075 1453.55 L742.764 1455.22 L742.764 1450.96 L751.028 1449.29 L755.704 1449.29 L755.704 1479.92 L763.343 1479.92 L763.343 1483.85 L743.436 1483.85 L743.436 1479.92 Z" fill="#000000" fill-rule="evenodd" fill-opacity="1" /><path clip-path="url(#clip260)" d="M772.787 1477.97 L777.672 1477.97 L777.672 1483.85 L772.787 1483.85 L772.787 1477.97 Z" fill="#000000" fill-rule="evenodd" fill-opacity="1" /><path clip-path="url(#clip260)" d="M797.857 1452.37 Q794.246 1452.37 792.417 1455.94 Q790.611 1459.48 790.611 1466.61 Q790.611 1473.71 792.417 1477.28 Q794.246 1480.82 797.857 1480.82 Q801.491 1480.82 803.297 1477.28 Q805.125 1473.71 805.125 1466.61 Q805.125 1459.48 803.297 1455.94 Q801.491 1452.37 797.857 1452.37 M797.857 1448.67 Q803.667 1448.67 806.722 1453.27 Q809.801 1457.86 809.801 1466.61 Q809.801 1475.33 806.722 1479.94 Q803.667 1484.52 797.857 1484.52 Q792.047 1484.52 788.968 1479.94 Q785.912 1475.33 785.912 1466.61 Q785.912 1457.86 788.968 1453.27 Q792.047 1448.67 797.857 1448.67 Z" fill="#000000" fill-rule="evenodd" fill-opacity="1" /><path clip-path="url(#clip260)" d="M1052.4 1479.92 L1060.04 1479.92 L1060.04 1453.55 L1051.73 1455.22 L1051.73 1450.96 L1060 1449.29 L1064.67 1449.29 L1064.67 1479.92 L1072.31 1479.92 L1072.31 1483.85 L1052.4 1483.85 L1052.4 1479.92 Z" fill="#000000" fill-rule="evenodd" fill-opacity="1" /><path clip-path="url(#clip260)" d="M1081.75 1477.97 L1086.64 1477.97 L1086.64 1483.85 L1081.75 1483.85 L1081.75 1477.97 Z" fill="#000000" fill-rule="evenodd" fill-opacity="1" /><path clip-path="url(#clip260)" d="M1096.87 1449.29 L1115.23 1449.29 L1115.23 1453.23 L1101.15 1453.23 L1101.15 1461.7 Q1102.17 1461.35 1103.19 1461.19 Q1104.21 1461 1105.23 1461 Q1111.01 1461 1114.39 1464.18 Q1117.77 1467.35 1117.77 1472.76 Q1117.77 1478.34 1114.3 1481.44 Q1110.83 1484.52 1104.51 1484.52 Q1102.33 1484.52 1100.06 1484.15 Q1097.82 1483.78 1095.41 1483.04 L1095.41 1478.34 Q1097.5 1479.48 1099.72 1480.03 Q1101.94 1480.59 1104.42 1480.59 Q1108.42 1480.59 1110.76 1478.48 Q1113.1 1476.38 1113.1 1472.76 Q1113.1 1469.15 1110.76 1467.05 Q1108.42 1464.94 1104.42 1464.94 Q1102.54 1464.94 1100.67 1465.36 Q1098.81 1465.77 1096.87 1466.65 L1096.87 1449.29 Z" fill="#000000" fill-rule="evenodd" fill-opacity="1" /><path clip-path="url(#clip260)" d="M580.045 1520.52 L586.474 1520.52 L586.474 1564.73 Q586.474 1573.33 583.196 1577.21 Q579.949 1581.09 572.724 1581.09 L570.274 1581.09 L570.274 1575.68 L572.279 1575.68 Q576.544 1575.68 578.294 1573.3 Q580.045 1570.91 580.045 1564.73 L580.045 1520.52 Z" fill="#000000" fill-rule="evenodd" fill-opacity="1" /><path clip-path="url(#clip260)" d="M599.269 1520.52 L605.699 1520.52 L605.699 1562.63 L628.838 1562.63 L628.838 1568.04 L599.269 1568.04 L599.269 1520.52 Z" fill="#000000" fill-rule="evenodd" fill-opacity="1" /><path clip-path="url(#clip260)" d="M635.586 1520.52 L645.166 1520.52 L657.293 1552.86 L669.483 1520.52 L679.064 1520.52 L679.064 1568.04 L672.793 1568.04 L672.793 1526.32 L660.539 1558.91 L654.078 1558.91 L641.824 1526.32 L641.824 1568.04 L635.586 1568.04 L635.586 1520.52 Z" fill="#000000" fill-rule="evenodd" fill-opacity="1" /><path clip-path="url(#clip260)" d="M720.313 1522.08 L720.313 1528.35 Q716.653 1526.6 713.407 1525.74 Q710.16 1524.88 707.136 1524.88 Q701.885 1524.88 699.02 1526.92 Q696.187 1528.96 696.187 1532.71 Q696.187 1535.87 698.065 1537.49 Q699.975 1539.08 705.258 1540.07 L709.141 1540.86 Q716.335 1542.23 719.74 1545.7 Q723.178 1549.14 723.178 1554.93 Q723.178 1561.84 718.531 1565.4 Q713.916 1568.97 704.972 1568.97 Q701.598 1568.97 697.779 1568.2 Q693.991 1567.44 689.917 1565.94 L689.917 1559.32 Q693.832 1561.52 697.588 1562.63 Q701.343 1563.75 704.972 1563.75 Q710.478 1563.75 713.47 1561.58 Q716.462 1559.42 716.462 1555.41 Q716.462 1551.91 714.298 1549.93 Q712.165 1547.96 707.264 1546.97 L703.349 1546.21 Q696.155 1544.78 692.941 1541.72 Q689.726 1538.67 689.726 1533.22 Q689.726 1526.92 694.15 1523.29 Q698.606 1519.66 706.404 1519.66 Q709.746 1519.66 713.216 1520.27 Q716.685 1520.87 720.313 1522.08 Z" fill="#000000" fill-rule="evenodd" fill-opacity="1" /><polyline clip-path="url(#clip262)" style="stroke:#000000; stroke-linecap:butt; stroke-linejoin:round; stroke-width:2; stroke-opacity:0.1; fill:none" points="
  140.696,1384.24 1152.76,1384.24 
  "/>
<polyline clip-path="url(#clip262)" style="stroke:#000000; stroke-linecap:butt; stroke-linejoin:round; stroke-width:2; stroke-opacity:0.1; fill:none" points="
  140.696,1143.86 1152.76,1143.86 
  "/>
<polyline clip-path="url(#clip262)" style="stroke:#000000; stroke-linecap:butt; stroke-linejoin:round; stroke-width:2; stroke-opacity:0.1; fill:none" points="
  140.696,903.478 1152.76,903.478 
  "/>
<polyline clip-path="url(#clip262)" style="stroke:#000000; stroke-linecap:butt; stroke-linejoin:round; stroke-width:2; stroke-opacity:0.1; fill:none" points="
  140.696,663.098 1152.76,663.098 
  "/>
<polyline clip-path="url(#clip262)" style="stroke:#000000; stroke-linecap:butt; stroke-linejoin:round; stroke-width:2; stroke-opacity:0.1; fill:none" points="
  140.696,422.718 1152.76,422.718 
  "/>
<polyline clip-path="url(#clip262)" style="stroke:#000000; stroke-linecap:butt; stroke-linejoin:round; stroke-width:2; stroke-opacity:0.1; fill:none" points="
  140.696,182.338 1152.76,182.338 
  "/>
<polyline clip-path="url(#clip260)" style="stroke:#000000; stroke-linecap:butt; stroke-linejoin:round; stroke-width:4; stroke-opacity:1; fill:none" points="
  140.696,1423.18 140.696,47.2441 
  "/>
<polyline clip-path="url(#clip260)" style="stroke:#000000; stroke-linecap:butt; stroke-linejoin:round; stroke-width:4; stroke-opacity:1; fill:none" points="
  140.696,1384.24 159.593,1384.24 
  "/>
<polyline clip-path="url(#clip260)" style="stroke:#000000; stroke-linecap:butt; stroke-linejoin:round; stroke-width:4; stroke-opacity:1; fill:none" points="
  140.696,1143.86 159.593,1143.86 
  "/>
<polyline clip-path="url(#clip260)" style="stroke:#000000; stroke-linecap:butt; stroke-linejoin:round; stroke-width:4; stroke-opacity:1; fill:none" points="
  140.696,903.478 159.593,903.478 
  "/>
<polyline clip-path="url(#clip260)" style="stroke:#000000; stroke-linecap:butt; stroke-linejoin:round; stroke-width:4; stroke-opacity:1; fill:none" points="
  140.696,663.098 159.593,663.098 
  "/>
<polyline clip-path="url(#clip260)" style="stroke:#000000; stroke-linecap:butt; stroke-linejoin:round; stroke-width:4; stroke-opacity:1; fill:none" points="
  140.696,422.718 159.593,422.718 
  "/>
<polyline clip-path="url(#clip260)" style="stroke:#000000; stroke-linecap:butt; stroke-linejoin:round; stroke-width:4; stroke-opacity:1; fill:none" points="
  140.696,182.338 159.593,182.338 
  "/>
<path clip-path="url(#clip260)" d="M92.7512 1370.04 Q89.1401 1370.04 87.3114 1373.6 Q85.5058 1377.14 85.5058 1384.27 Q85.5058 1391.38 87.3114 1394.94 Q89.1401 1398.49 92.7512 1398.49 Q96.3854 1398.49 98.1909 1394.94 Q100.02 1391.38 100.02 1384.27 Q100.02 1377.14 98.1909 1373.6 Q96.3854 1370.04 92.7512 1370.04 M92.7512 1366.33 Q98.5613 1366.33 101.617 1370.94 Q104.696 1375.52 104.696 1384.27 Q104.696 1393 101.617 1397.61 Q98.5613 1402.19 92.7512 1402.19 Q86.941 1402.19 83.8623 1397.61 Q80.8068 1393 80.8068 1384.27 Q80.8068 1375.52 83.8623 1370.94 Q86.941 1366.33 92.7512 1366.33 Z" fill="#000000" fill-rule="evenodd" fill-opacity="1" /><path clip-path="url(#clip260)" d="M83.7929 1126.58 L102.149 1126.58 L102.149 1130.51 L88.0753 1130.51 L88.0753 1138.99 Q89.0938 1138.64 90.1123 1138.48 Q91.1308 1138.29 92.1493 1138.29 Q97.9363 1138.29 101.316 1141.46 Q104.696 1144.63 104.696 1150.05 Q104.696 1155.63 101.223 1158.73 Q97.7511 1161.81 91.4317 1161.81 Q89.2558 1161.81 86.9873 1161.44 Q84.7419 1161.07 82.3346 1160.33 L82.3346 1155.63 Q84.4179 1156.76 86.6401 1157.32 Q88.8623 1157.87 91.3391 1157.87 Q95.3437 1157.87 97.6817 1155.77 Q100.02 1153.66 100.02 1150.05 Q100.02 1146.44 97.6817 1144.33 Q95.3437 1142.23 91.3391 1142.23 Q89.4641 1142.23 87.5892 1142.64 Q85.7373 1143.06 83.7929 1143.94 L83.7929 1126.58 Z" fill="#000000" fill-rule="evenodd" fill-opacity="1" /><path clip-path="url(#clip260)" d="M53.3995 916.823 L61.0384 916.823 L61.0384 890.457 L52.7282 892.124 L52.7282 887.865 L60.9921 886.198 L65.668 886.198 L65.668 916.823 L73.3068 916.823 L73.3068 920.758 L53.3995 920.758 L53.3995 916.823 Z" fill="#000000" fill-rule="evenodd" fill-opacity="1" /><path clip-path="url(#clip260)" d="M92.7512 889.277 Q89.1401 889.277 87.3114 892.842 Q85.5058 896.383 85.5058 903.513 Q85.5058 910.619 87.3114 914.184 Q89.1401 917.726 92.7512 917.726 Q96.3854 917.726 98.1909 914.184 Q100.02 910.619 100.02 903.513 Q100.02 896.383 98.1909 892.842 Q96.3854 889.277 92.7512 889.277 M92.7512 885.573 Q98.5613 885.573 101.617 890.18 Q104.696 894.763 104.696 903.513 Q104.696 912.24 101.617 916.846 Q98.5613 921.429 92.7512 921.429 Q86.941 921.429 83.8623 916.846 Q80.8068 912.24 80.8068 903.513 Q80.8068 894.763 83.8623 890.18 Q86.941 885.573 92.7512 885.573 Z" fill="#000000" fill-rule="evenodd" fill-opacity="1" /><path clip-path="url(#clip260)" d="M54.3949 676.443 L62.0337 676.443 L62.0337 650.077 L53.7236 651.744 L53.7236 647.485 L61.9874 645.818 L66.6633 645.818 L66.6633 676.443 L74.3022 676.443 L74.3022 680.378 L54.3949 680.378 L54.3949 676.443 Z" fill="#000000" fill-rule="evenodd" fill-opacity="1" /><path clip-path="url(#clip260)" d="M83.7929 645.818 L102.149 645.818 L102.149 649.753 L88.0753 649.753 L88.0753 658.225 Q89.0938 657.878 90.1123 657.716 Q91.1308 657.531 92.1493 657.531 Q97.9363 657.531 101.316 660.702 Q104.696 663.873 104.696 669.29 Q104.696 674.869 101.223 677.971 Q97.7511 681.049 91.4317 681.049 Q89.2558 681.049 86.9873 680.679 Q84.7419 680.308 82.3346 679.568 L82.3346 674.869 Q84.4179 676.003 86.6401 676.559 Q88.8623 677.114 91.3391 677.114 Q95.3437 677.114 97.6817 675.008 Q100.02 672.901 100.02 669.29 Q100.02 665.679 97.6817 663.572 Q95.3437 661.466 91.3391 661.466 Q89.4641 661.466 87.5892 661.883 Q85.7373 662.299 83.7929 663.179 L83.7929 645.818 Z" fill="#000000" fill-rule="evenodd" fill-opacity="1" /><path clip-path="url(#clip260)" d="M56.6171 436.063 L72.9365 436.063 L72.9365 439.998 L50.9921 439.998 L50.9921 436.063 Q53.6541 433.308 58.2375 428.678 Q62.8439 424.026 64.0245 422.683 Q66.2698 420.16 67.1494 418.424 Q68.0522 416.665 68.0522 414.975 Q68.0522 412.22 66.1078 410.484 Q64.1865 408.748 61.0847 408.748 Q58.8856 408.748 56.4319 409.512 Q54.0014 410.276 51.2236 411.827 L51.2236 407.104 Q54.0477 405.97 56.5014 405.392 Q58.955 404.813 60.9921 404.813 Q66.3624 404.813 69.5568 407.498 Q72.7513 410.183 72.7513 414.674 Q72.7513 416.804 71.9411 418.725 Q71.1541 420.623 69.0476 423.216 Q68.4689 423.887 65.367 427.104 Q62.2652 430.299 56.6171 436.063 Z" fill="#000000" fill-rule="evenodd" fill-opacity="1" /><path clip-path="url(#clip260)" d="M92.7512 408.517 Q89.1401 408.517 87.3114 412.081 Q85.5058 415.623 85.5058 422.753 Q85.5058 429.859 87.3114 433.424 Q89.1401 436.965 92.7512 436.965 Q96.3854 436.965 98.1909 433.424 Q100.02 429.859 100.02 422.753 Q100.02 415.623 98.1909 412.081 Q96.3854 408.517 92.7512 408.517 M92.7512 404.813 Q98.5613 404.813 101.617 409.419 Q104.696 414.003 104.696 422.753 Q104.696 431.479 101.617 436.086 Q98.5613 440.669 92.7512 440.669 Q86.941 440.669 83.8623 436.086 Q80.8068 431.479 80.8068 422.753 Q80.8068 414.003 83.8623 409.419 Q86.941 404.813 92.7512 404.813 Z" fill="#000000" fill-rule="evenodd" fill-opacity="1" /><path clip-path="url(#clip260)" d="M57.6125 195.683 L73.9318 195.683 L73.9318 199.618 L51.9875 199.618 L51.9875 195.683 Q54.6495 192.928 59.2328 188.298 Q63.8393 183.646 65.0198 182.303 Q67.2652 179.78 68.1448 178.044 Q69.0476 176.285 69.0476 174.595 Q69.0476 171.84 67.1032 170.104 Q65.1819 168.368 62.08 168.368 Q59.881 168.368 57.4273 169.132 Q54.9967 169.896 52.219 171.447 L52.219 166.724 Q55.043 165.59 57.4967 165.011 Q59.9504 164.433 61.9874 164.433 Q67.3578 164.433 70.5522 167.118 Q73.7466 169.803 73.7466 174.294 Q73.7466 176.423 72.9365 178.345 Q72.1494 180.243 70.0429 182.835 Q69.4642 183.507 66.3624 186.724 Q63.2606 189.919 57.6125 195.683 Z" fill="#000000" fill-rule="evenodd" fill-opacity="1" /><path clip-path="url(#clip260)" d="M83.7929 165.058 L102.149 165.058 L102.149 168.993 L88.0753 168.993 L88.0753 177.465 Q89.0938 177.118 90.1123 176.956 Q91.1308 176.771 92.1493 176.771 Q97.9363 176.771 101.316 179.942 Q104.696 183.113 104.696 188.53 Q104.696 194.108 101.223 197.21 Q97.7511 200.289 91.4317 200.289 Q89.2558 200.289 86.9873 199.919 Q84.7419 199.548 82.3346 198.808 L82.3346 194.108 Q84.4179 195.243 86.6401 195.798 Q88.8623 196.354 91.3391 196.354 Q95.3437 196.354 97.6817 194.247 Q100.02 192.141 100.02 188.53 Q100.02 184.919 97.6817 182.812 Q95.3437 180.706 91.3391 180.706 Q89.4641 180.706 87.5892 181.122 Q85.7373 181.539 83.7929 182.419 L83.7929 165.058 Z" fill="#000000" fill-rule="evenodd" fill-opacity="1" /><path clip-path="url(#clip262)" d="
M196.361 951.554 L196.361 1384.24 L208.699 1384.24 L208.699 951.554 L196.361 951.554 L196.361 951.554  Z
  " fill="#009af9" fill-rule="evenodd" fill-opacity="1"/>
<polyline clip-path="url(#clip262)" style="stroke:#000000; stroke-linecap:butt; stroke-linejoin:round; stroke-width:4; stroke-opacity:1; fill:none" points="
  196.361,951.554 196.361,1384.24 208.699,1384.24 208.699,951.554 196.361,951.554 
  "/>
<path clip-path="url(#clip262)" d="
M208.699 807.326 L208.699 1384.24 L221.038 1384.24 L221.038 807.326 L208.699 807.326 L208.699 807.326  Z
  " fill="#009af9" fill-rule="evenodd" fill-opacity="1"/>
<polyline clip-path="url(#clip262)" style="stroke:#000000; stroke-linecap:butt; stroke-linejoin:round; stroke-width:4; stroke-opacity:1; fill:none" points="
  208.699,807.326 208.699,1384.24 221.038,1384.24 221.038,807.326 208.699,807.326 
  "/>
<path clip-path="url(#clip262)" d="
M221.038 326.566 L221.038 1384.24 L233.377 1384.24 L233.377 326.566 L221.038 326.566 L221.038 326.566  Z
  " fill="#009af9" fill-rule="evenodd" fill-opacity="1"/>
<polyline clip-path="url(#clip262)" style="stroke:#000000; stroke-linecap:butt; stroke-linejoin:round; stroke-width:4; stroke-opacity:1; fill:none" points="
  221.038,326.566 221.038,1384.24 233.377,1384.24 233.377,326.566 221.038,326.566 
  "/>
<path clip-path="url(#clip262)" d="
M233.377 86.1857 L233.377 1384.24 L245.716 1384.24 L245.716 86.1857 L233.377 86.1857 L233.377 86.1857  Z
  " fill="#009af9" fill-rule="evenodd" fill-opacity="1"/>
<polyline clip-path="url(#clip262)" style="stroke:#000000; stroke-linecap:butt; stroke-linejoin:round; stroke-width:4; stroke-opacity:1; fill:none" points="
  233.377,86.1857 233.377,1384.24 245.716,1384.24 245.716,86.1857 233.377,86.1857 
  "/>
<path clip-path="url(#clip262)" d="
M245.716 1047.71 L245.716 1384.24 L258.055 1384.24 L258.055 1047.71 L245.716 1047.71 L245.716 1047.71  Z
  " fill="#009af9" fill-rule="evenodd" fill-opacity="1"/>
<polyline clip-path="url(#clip262)" style="stroke:#000000; stroke-linecap:butt; stroke-linejoin:round; stroke-width:4; stroke-opacity:1; fill:none" points="
  245.716,1047.71 245.716,1384.24 258.055,1384.24 258.055,1047.71 245.716,1047.71 
  "/>
<path clip-path="url(#clip262)" d="
M258.055 470.794 L258.055 1384.24 L270.393 1384.24 L270.393 470.794 L258.055 470.794 L258.055 470.794  Z
  " fill="#009af9" fill-rule="evenodd" fill-opacity="1"/>
<polyline clip-path="url(#clip262)" style="stroke:#000000; stroke-linecap:butt; stroke-linejoin:round; stroke-width:4; stroke-opacity:1; fill:none" points="
  258.055,470.794 258.055,1384.24 270.393,1384.24 270.393,470.794 258.055,470.794 
  "/>
<path clip-path="url(#clip262)" d="
M270.393 711.174 L270.393 1384.24 L282.732 1384.24 L282.732 711.174 L270.393 711.174 L270.393 711.174  Z
  " fill="#009af9" fill-rule="evenodd" fill-opacity="1"/>
<polyline clip-path="url(#clip262)" style="stroke:#000000; stroke-linecap:butt; stroke-linejoin:round; stroke-width:4; stroke-opacity:1; fill:none" points="
  270.393,711.174 270.393,1384.24 282.732,1384.24 282.732,711.174 270.393,711.174 
  "/>
<path clip-path="url(#clip262)" d="
M282.732 951.554 L282.732 1384.24 L295.071 1384.24 L295.071 951.554 L282.732 951.554 L282.732 951.554  Z
  " fill="#009af9" fill-rule="evenodd" fill-opacity="1"/>
<polyline clip-path="url(#clip262)" style="stroke:#000000; stroke-linecap:butt; stroke-linejoin:round; stroke-width:4; stroke-opacity:1; fill:none" points="
  282.732,951.554 282.732,1384.24 295.071,1384.24 295.071,951.554 282.732,951.554 
  "/>
<path clip-path="url(#clip262)" d="
M295.071 566.946 L295.071 1384.24 L307.41 1384.24 L307.41 566.946 L295.071 566.946 L295.071 566.946  Z
  " fill="#009af9" fill-rule="evenodd" fill-opacity="1"/>
<polyline clip-path="url(#clip262)" style="stroke:#000000; stroke-linecap:butt; stroke-linejoin:round; stroke-width:4; stroke-opacity:1; fill:none" points="
  295.071,566.946 295.071,1384.24 307.41,1384.24 307.41,566.946 295.071,566.946 
  "/>
<path clip-path="url(#clip262)" d="
M307.41 951.554 L307.41 1384.24 L319.748 1384.24 L319.748 951.554 L307.41 951.554 L307.41 951.554  Z
  " fill="#009af9" fill-rule="evenodd" fill-opacity="1"/>
<polyline clip-path="url(#clip262)" style="stroke:#000000; stroke-linecap:butt; stroke-linejoin:round; stroke-width:4; stroke-opacity:1; fill:none" points="
  307.41,951.554 307.41,1384.24 319.748,1384.24 319.748,951.554 307.41,951.554 
  "/>
<path clip-path="url(#clip262)" d="
M319.748 1143.86 L319.748 1384.24 L332.087 1384.24 L332.087 1143.86 L319.748 1143.86 L319.748 1143.86  Z
  " fill="#009af9" fill-rule="evenodd" fill-opacity="1"/>
<polyline clip-path="url(#clip262)" style="stroke:#000000; stroke-linecap:butt; stroke-linejoin:round; stroke-width:4; stroke-opacity:1; fill:none" points="
  319.748,1143.86 319.748,1384.24 332.087,1384.24 332.087,1143.86 319.748,1143.86 
  "/>
<path clip-path="url(#clip262)" d="
M332.087 807.326 L332.087 1384.24 L344.426 1384.24 L344.426 807.326 L332.087 807.326 L332.087 807.326  Z
  " fill="#009af9" fill-rule="evenodd" fill-opacity="1"/>
<polyline clip-path="url(#clip262)" style="stroke:#000000; stroke-linecap:butt; stroke-linejoin:round; stroke-width:4; stroke-opacity:1; fill:none" points="
  332.087,807.326 332.087,1384.24 344.426,1384.24 344.426,807.326 332.087,807.326 
  "/>
<path clip-path="url(#clip262)" d="
M344.426 951.554 L344.426 1384.24 L356.765 1384.24 L356.765 951.554 L344.426 951.554 L344.426 951.554  Z
  " fill="#009af9" fill-rule="evenodd" fill-opacity="1"/>
<polyline clip-path="url(#clip262)" style="stroke:#000000; stroke-linecap:butt; stroke-linejoin:round; stroke-width:4; stroke-opacity:1; fill:none" points="
  344.426,951.554 344.426,1384.24 356.765,1384.24 356.765,951.554 344.426,951.554 
  "/>
<path clip-path="url(#clip262)" d="
M356.765 951.554 L356.765 1384.24 L369.103 1384.24 L369.103 951.554 L356.765 951.554 L356.765 951.554  Z
  " fill="#009af9" fill-rule="evenodd" fill-opacity="1"/>
<polyline clip-path="url(#clip262)" style="stroke:#000000; stroke-linecap:butt; stroke-linejoin:round; stroke-width:4; stroke-opacity:1; fill:none" points="
  356.765,951.554 356.765,1384.24 369.103,1384.24 369.103,951.554 356.765,951.554 
  "/>
<path clip-path="url(#clip262)" d="
M369.103 1047.71 L369.103 1384.24 L381.442 1384.24 L381.442 1047.71 L369.103 1047.71 L369.103 1047.71  Z
  " fill="#009af9" fill-rule="evenodd" fill-opacity="1"/>
<polyline clip-path="url(#clip262)" style="stroke:#000000; stroke-linecap:butt; stroke-linejoin:round; stroke-width:4; stroke-opacity:1; fill:none" points="
  369.103,1047.71 369.103,1384.24 381.442,1384.24 381.442,1047.71 369.103,1047.71 
  "/>
<path clip-path="url(#clip262)" d="
M381.442 1047.71 L381.442 1384.24 L393.781 1384.24 L393.781 1047.71 L381.442 1047.71 L381.442 1047.71  Z
  " fill="#009af9" fill-rule="evenodd" fill-opacity="1"/>
<polyline clip-path="url(#clip262)" style="stroke:#000000; stroke-linecap:butt; stroke-linejoin:round; stroke-width:4; stroke-opacity:1; fill:none" points="
  381.442,1047.71 381.442,1384.24 393.781,1384.24 393.781,1047.71 381.442,1047.71 
  "/>
<path clip-path="url(#clip262)" d="
M393.781 1095.78 L393.781 1384.24 L406.12 1384.24 L406.12 1095.78 L393.781 1095.78 L393.781 1095.78  Z
  " fill="#009af9" fill-rule="evenodd" fill-opacity="1"/>
<polyline clip-path="url(#clip262)" style="stroke:#000000; stroke-linecap:butt; stroke-linejoin:round; stroke-width:4; stroke-opacity:1; fill:none" points="
  393.781,1095.78 393.781,1384.24 406.12,1384.24 406.12,1095.78 393.781,1095.78 
  "/>
<path clip-path="url(#clip262)" d="
M406.12 1191.93 L406.12 1384.24 L418.459 1384.24 L418.459 1191.93 L406.12 1191.93 L406.12 1191.93  Z
  " fill="#009af9" fill-rule="evenodd" fill-opacity="1"/>
<polyline clip-path="url(#clip262)" style="stroke:#000000; stroke-linecap:butt; stroke-linejoin:round; stroke-width:4; stroke-opacity:1; fill:none" points="
  406.12,1191.93 406.12,1384.24 418.459,1384.24 418.459,1191.93 406.12,1191.93 
  "/>
<path clip-path="url(#clip262)" d="
M418.459 1191.93 L418.459 1384.24 L430.797 1384.24 L430.797 1191.93 L418.459 1191.93 L418.459 1191.93  Z
  " fill="#009af9" fill-rule="evenodd" fill-opacity="1"/>
<polyline clip-path="url(#clip262)" style="stroke:#000000; stroke-linecap:butt; stroke-linejoin:round; stroke-width:4; stroke-opacity:1; fill:none" points="
  418.459,1191.93 418.459,1384.24 430.797,1384.24 430.797,1191.93 418.459,1191.93 
  "/>
<path clip-path="url(#clip262)" d="
M430.797 1191.93 L430.797 1384.24 L443.136 1384.24 L443.136 1191.93 L430.797 1191.93 L430.797 1191.93  Z
  " fill="#009af9" fill-rule="evenodd" fill-opacity="1"/>
<polyline clip-path="url(#clip262)" style="stroke:#000000; stroke-linecap:butt; stroke-linejoin:round; stroke-width:4; stroke-opacity:1; fill:none" points="
  430.797,1191.93 430.797,1384.24 443.136,1384.24 443.136,1191.93 430.797,1191.93 
  "/>
<path clip-path="url(#clip262)" d="
M443.136 1191.93 L443.136 1384.24 L455.475 1384.24 L455.475 1191.93 L443.136 1191.93 L443.136 1191.93  Z
  " fill="#009af9" fill-rule="evenodd" fill-opacity="1"/>
<polyline clip-path="url(#clip262)" style="stroke:#000000; stroke-linecap:butt; stroke-linejoin:round; stroke-width:4; stroke-opacity:1; fill:none" points="
  443.136,1191.93 443.136,1384.24 455.475,1384.24 455.475,1191.93 443.136,1191.93 
  "/>
<path clip-path="url(#clip262)" d="
M455.475 1095.78 L455.475 1384.24 L467.814 1384.24 L467.814 1095.78 L455.475 1095.78 L455.475 1095.78  Z
  " fill="#009af9" fill-rule="evenodd" fill-opacity="1"/>
<polyline clip-path="url(#clip262)" style="stroke:#000000; stroke-linecap:butt; stroke-linejoin:round; stroke-width:4; stroke-opacity:1; fill:none" points="
  455.475,1095.78 455.475,1384.24 467.814,1384.24 467.814,1095.78 455.475,1095.78 
  "/>
<path clip-path="url(#clip262)" d="
M467.814 1143.86 L467.814 1384.24 L480.152 1384.24 L480.152 1143.86 L467.814 1143.86 L467.814 1143.86  Z
  " fill="#009af9" fill-rule="evenodd" fill-opacity="1"/>
<polyline clip-path="url(#clip262)" style="stroke:#000000; stroke-linecap:butt; stroke-linejoin:round; stroke-width:4; stroke-opacity:1; fill:none" points="
  467.814,1143.86 467.814,1384.24 480.152,1384.24 480.152,1143.86 467.814,1143.86 
  "/>
<path clip-path="url(#clip262)" d="
M480.152 1288.09 L480.152 1384.24 L492.491 1384.24 L492.491 1288.09 L480.152 1288.09 L480.152 1288.09  Z
  " fill="#009af9" fill-rule="evenodd" fill-opacity="1"/>
<polyline clip-path="url(#clip262)" style="stroke:#000000; stroke-linecap:butt; stroke-linejoin:round; stroke-width:4; stroke-opacity:1; fill:none" points="
  480.152,1288.09 480.152,1384.24 492.491,1384.24 492.491,1288.09 480.152,1288.09 
  "/>
<path clip-path="url(#clip262)" d="
M492.491 1336.16 L492.491 1384.24 L504.83 1384.24 L504.83 1336.16 L492.491 1336.16 L492.491 1336.16  Z
  " fill="#009af9" fill-rule="evenodd" fill-opacity="1"/>
<polyline clip-path="url(#clip262)" style="stroke:#000000; stroke-linecap:butt; stroke-linejoin:round; stroke-width:4; stroke-opacity:1; fill:none" points="
  492.491,1336.16 492.491,1384.24 504.83,1384.24 504.83,1336.16 492.491,1336.16 
  "/>
<path clip-path="url(#clip262)" d="
M504.83 1288.09 L504.83 1384.24 L517.169 1384.24 L517.169 1288.09 L504.83 1288.09 L504.83 1288.09  Z
  " fill="#009af9" fill-rule="evenodd" fill-opacity="1"/>
<polyline clip-path="url(#clip262)" style="stroke:#000000; stroke-linecap:butt; stroke-linejoin:round; stroke-width:4; stroke-opacity:1; fill:none" points="
  504.83,1288.09 504.83,1384.24 517.169,1384.24 517.169,1288.09 504.83,1288.09 
  "/>
<path clip-path="url(#clip262)" d="
M517.169 1288.09 L517.169 1384.24 L529.507 1384.24 L529.507 1288.09 L517.169 1288.09 L517.169 1288.09  Z
  " fill="#009af9" fill-rule="evenodd" fill-opacity="1"/>
<polyline clip-path="url(#clip262)" style="stroke:#000000; stroke-linecap:butt; stroke-linejoin:round; stroke-width:4; stroke-opacity:1; fill:none" points="
  517.169,1288.09 517.169,1384.24 529.507,1384.24 529.507,1288.09 517.169,1288.09 
  "/>
<path clip-path="url(#clip262)" d="
M529.507 1288.09 L529.507 1384.24 L541.846 1384.24 L541.846 1288.09 L529.507 1288.09 L529.507 1288.09  Z
  " fill="#009af9" fill-rule="evenodd" fill-opacity="1"/>
<polyline clip-path="url(#clip262)" style="stroke:#000000; stroke-linecap:butt; stroke-linejoin:round; stroke-width:4; stroke-opacity:1; fill:none" points="
  529.507,1288.09 529.507,1384.24 541.846,1384.24 541.846,1288.09 529.507,1288.09 
  "/>
<path clip-path="url(#clip262)" d="
M541.846 1336.16 L541.846 1384.24 L554.185 1384.24 L554.185 1336.16 L541.846 1336.16 L541.846 1336.16  Z
  " fill="#009af9" fill-rule="evenodd" fill-opacity="1"/>
<polyline clip-path="url(#clip262)" style="stroke:#000000; stroke-linecap:butt; stroke-linejoin:round; stroke-width:4; stroke-opacity:1; fill:none" points="
  541.846,1336.16 541.846,1384.24 554.185,1384.24 554.185,1336.16 541.846,1336.16 
  "/>
<path clip-path="url(#clip262)" d="
M554.185 1336.16 L554.185 1384.24 L566.524 1384.24 L566.524 1336.16 L554.185 1336.16 L554.185 1336.16  Z
  " fill="#009af9" fill-rule="evenodd" fill-opacity="1"/>
<polyline clip-path="url(#clip262)" style="stroke:#000000; stroke-linecap:butt; stroke-linejoin:round; stroke-width:4; stroke-opacity:1; fill:none" points="
  554.185,1336.16 554.185,1384.24 566.524,1384.24 566.524,1336.16 554.185,1336.16 
  "/>
<path clip-path="url(#clip262)" d="
M566.524 1240.01 L566.524 1384.24 L578.862 1384.24 L578.862 1240.01 L566.524 1240.01 L566.524 1240.01  Z
  " fill="#009af9" fill-rule="evenodd" fill-opacity="1"/>
<polyline clip-path="url(#clip262)" style="stroke:#000000; stroke-linecap:butt; stroke-linejoin:round; stroke-width:4; stroke-opacity:1; fill:none" points="
  566.524,1240.01 566.524,1384.24 578.862,1384.24 578.862,1240.01 566.524,1240.01 
  "/>
<path clip-path="url(#clip262)" d="
M578.862 1288.09 L578.862 1384.24 L591.201 1384.24 L591.201 1288.09 L578.862 1288.09 L578.862 1288.09  Z
  " fill="#009af9" fill-rule="evenodd" fill-opacity="1"/>
<polyline clip-path="url(#clip262)" style="stroke:#000000; stroke-linecap:butt; stroke-linejoin:round; stroke-width:4; stroke-opacity:1; fill:none" points="
  578.862,1288.09 578.862,1384.24 591.201,1384.24 591.201,1288.09 578.862,1288.09 
  "/>
<path clip-path="url(#clip262)" d="
M591.201 1384.24 L591.201 1384.24 L603.54 1384.24 L603.54 1384.24 L591.201 1384.24 L591.201 1384.24  Z
  " fill="#009af9" fill-rule="evenodd" fill-opacity="1"/>
<polyline clip-path="url(#clip262)" style="stroke:#000000; stroke-linecap:butt; stroke-linejoin:round; stroke-width:4; stroke-opacity:1; fill:none" points="
  591.201,1384.24 591.201,1384.24 603.54,1384.24 591.201,1384.24 
  "/>
<path clip-path="url(#clip262)" d="
M603.54 1240.01 L603.54 1384.24 L615.879 1384.24 L615.879 1240.01 L603.54 1240.01 L603.54 1240.01  Z
  " fill="#009af9" fill-rule="evenodd" fill-opacity="1"/>
<polyline clip-path="url(#clip262)" style="stroke:#000000; stroke-linecap:butt; stroke-linejoin:round; stroke-width:4; stroke-opacity:1; fill:none" points="
  603.54,1240.01 603.54,1384.24 615.879,1384.24 615.879,1240.01 603.54,1240.01 
  "/>
<path clip-path="url(#clip262)" d="
M615.879 1336.16 L615.879 1384.24 L628.218 1384.24 L628.218 1336.16 L615.879 1336.16 L615.879 1336.16  Z
  " fill="#009af9" fill-rule="evenodd" fill-opacity="1"/>
<polyline clip-path="url(#clip262)" style="stroke:#000000; stroke-linecap:butt; stroke-linejoin:round; stroke-width:4; stroke-opacity:1; fill:none" points="
  615.879,1336.16 615.879,1384.24 628.218,1384.24 628.218,1336.16 615.879,1336.16 
  "/>
<path clip-path="url(#clip262)" d="
M628.218 1336.16 L628.218 1384.24 L640.556 1384.24 L640.556 1336.16 L628.218 1336.16 L628.218 1336.16  Z
  " fill="#009af9" fill-rule="evenodd" fill-opacity="1"/>
<polyline clip-path="url(#clip262)" style="stroke:#000000; stroke-linecap:butt; stroke-linejoin:round; stroke-width:4; stroke-opacity:1; fill:none" points="
  628.218,1336.16 628.218,1384.24 640.556,1384.24 640.556,1336.16 628.218,1336.16 
  "/>
<path clip-path="url(#clip262)" d="
M640.556 1288.09 L640.556 1384.24 L652.895 1384.24 L652.895 1288.09 L640.556 1288.09 L640.556 1288.09  Z
  " fill="#009af9" fill-rule="evenodd" fill-opacity="1"/>
<polyline clip-path="url(#clip262)" style="stroke:#000000; stroke-linecap:butt; stroke-linejoin:round; stroke-width:4; stroke-opacity:1; fill:none" points="
  640.556,1288.09 640.556,1384.24 652.895,1384.24 652.895,1288.09 640.556,1288.09 
  "/>
<path clip-path="url(#clip262)" d="
M652.895 1384.24 L652.895 1384.24 L665.234 1384.24 L665.234 1384.24 L652.895 1384.24 L652.895 1384.24  Z
  " fill="#009af9" fill-rule="evenodd" fill-opacity="1"/>
<polyline clip-path="url(#clip262)" style="stroke:#000000; stroke-linecap:butt; stroke-linejoin:round; stroke-width:4; stroke-opacity:1; fill:none" points="
  652.895,1384.24 652.895,1384.24 665.234,1384.24 652.895,1384.24 
  "/>
<path clip-path="url(#clip262)" d="
M665.234 1240.01 L665.234 1384.24 L677.573 1384.24 L677.573 1240.01 L665.234 1240.01 L665.234 1240.01  Z
  " fill="#009af9" fill-rule="evenodd" fill-opacity="1"/>
<polyline clip-path="url(#clip262)" style="stroke:#000000; stroke-linecap:butt; stroke-linejoin:round; stroke-width:4; stroke-opacity:1; fill:none" points="
  665.234,1240.01 665.234,1384.24 677.573,1384.24 677.573,1240.01 665.234,1240.01 
  "/>
<path clip-path="url(#clip262)" d="
M677.573 1240.01 L677.573 1384.24 L689.911 1384.24 L689.911 1240.01 L677.573 1240.01 L677.573 1240.01  Z
  " fill="#009af9" fill-rule="evenodd" fill-opacity="1"/>
<polyline clip-path="url(#clip262)" style="stroke:#000000; stroke-linecap:butt; stroke-linejoin:round; stroke-width:4; stroke-opacity:1; fill:none" points="
  677.573,1240.01 677.573,1384.24 689.911,1384.24 689.911,1240.01 677.573,1240.01 
  "/>
<path clip-path="url(#clip262)" d="
M689.911 1384.24 L689.911 1384.24 L702.25 1384.24 L702.25 1384.24 L689.911 1384.24 L689.911 1384.24  Z
  " fill="#009af9" fill-rule="evenodd" fill-opacity="1"/>
<polyline clip-path="url(#clip262)" style="stroke:#000000; stroke-linecap:butt; stroke-linejoin:round; stroke-width:4; stroke-opacity:1; fill:none" points="
  689.911,1384.24 689.911,1384.24 702.25,1384.24 689.911,1384.24 
  "/>
<path clip-path="url(#clip262)" d="
M702.25 1384.24 L702.25 1384.24 L714.589 1384.24 L714.589 1384.24 L702.25 1384.24 L702.25 1384.24  Z
  " fill="#009af9" fill-rule="evenodd" fill-opacity="1"/>
<polyline clip-path="url(#clip262)" style="stroke:#000000; stroke-linecap:butt; stroke-linejoin:round; stroke-width:4; stroke-opacity:1; fill:none" points="
  702.25,1384.24 702.25,1384.24 714.589,1384.24 702.25,1384.24 
  "/>
<path clip-path="url(#clip262)" d="
M714.589 1336.16 L714.589 1384.24 L726.928 1384.24 L726.928 1336.16 L714.589 1336.16 L714.589 1336.16  Z
  " fill="#009af9" fill-rule="evenodd" fill-opacity="1"/>
<polyline clip-path="url(#clip262)" style="stroke:#000000; stroke-linecap:butt; stroke-linejoin:round; stroke-width:4; stroke-opacity:1; fill:none" points="
  714.589,1336.16 714.589,1384.24 726.928,1384.24 726.928,1336.16 714.589,1336.16 
  "/>
<path clip-path="url(#clip262)" d="
M726.928 1384.24 L726.928 1384.24 L739.266 1384.24 L739.266 1384.24 L726.928 1384.24 L726.928 1384.24  Z
  " fill="#009af9" fill-rule="evenodd" fill-opacity="1"/>
<polyline clip-path="url(#clip262)" style="stroke:#000000; stroke-linecap:butt; stroke-linejoin:round; stroke-width:4; stroke-opacity:1; fill:none" points="
  726.928,1384.24 726.928,1384.24 739.266,1384.24 726.928,1384.24 
  "/>
<path clip-path="url(#clip262)" d="
M739.266 1336.16 L739.266 1384.24 L751.605 1384.24 L751.605 1336.16 L739.266 1336.16 L739.266 1336.16  Z
  " fill="#009af9" fill-rule="evenodd" fill-opacity="1"/>
<polyline clip-path="url(#clip262)" style="stroke:#000000; stroke-linecap:butt; stroke-linejoin:round; stroke-width:4; stroke-opacity:1; fill:none" points="
  739.266,1336.16 739.266,1384.24 751.605,1384.24 751.605,1336.16 739.266,1336.16 
  "/>
<path clip-path="url(#clip262)" d="
M751.605 1288.09 L751.605 1384.24 L763.944 1384.24 L763.944 1288.09 L751.605 1288.09 L751.605 1288.09  Z
  " fill="#009af9" fill-rule="evenodd" fill-opacity="1"/>
<polyline clip-path="url(#clip262)" style="stroke:#000000; stroke-linecap:butt; stroke-linejoin:round; stroke-width:4; stroke-opacity:1; fill:none" points="
  751.605,1288.09 751.605,1384.24 763.944,1384.24 763.944,1288.09 751.605,1288.09 
  "/>
<path clip-path="url(#clip262)" d="
M763.944 1336.16 L763.944 1384.24 L776.283 1384.24 L776.283 1336.16 L763.944 1336.16 L763.944 1336.16  Z
  " fill="#009af9" fill-rule="evenodd" fill-opacity="1"/>
<polyline clip-path="url(#clip262)" style="stroke:#000000; stroke-linecap:butt; stroke-linejoin:round; stroke-width:4; stroke-opacity:1; fill:none" points="
  763.944,1336.16 763.944,1384.24 776.283,1384.24 776.283,1336.16 763.944,1336.16 
  "/>
<path clip-path="url(#clip262)" d="
M776.283 1384.24 L776.283 1384.24 L788.622 1384.24 L788.622 1384.24 L776.283 1384.24 L776.283 1384.24  Z
  " fill="#009af9" fill-rule="evenodd" fill-opacity="1"/>
<polyline clip-path="url(#clip262)" style="stroke:#000000; stroke-linecap:butt; stroke-linejoin:round; stroke-width:4; stroke-opacity:1; fill:none" points="
  776.283,1384.24 776.283,1384.24 788.622,1384.24 776.283,1384.24 
  "/>
<path clip-path="url(#clip262)" d="
M788.622 1336.16 L788.622 1384.24 L800.96 1384.24 L800.96 1336.16 L788.622 1336.16 L788.622 1336.16  Z
  " fill="#009af9" fill-rule="evenodd" fill-opacity="1"/>
<polyline clip-path="url(#clip262)" style="stroke:#000000; stroke-linecap:butt; stroke-linejoin:round; stroke-width:4; stroke-opacity:1; fill:none" points="
  788.622,1336.16 788.622,1384.24 800.96,1384.24 800.96,1336.16 788.622,1336.16 
  "/>
<path clip-path="url(#clip262)" d="
M800.96 1336.16 L800.96 1384.24 L813.299 1384.24 L813.299 1336.16 L800.96 1336.16 L800.96 1336.16  Z
  " fill="#009af9" fill-rule="evenodd" fill-opacity="1"/>
<polyline clip-path="url(#clip262)" style="stroke:#000000; stroke-linecap:butt; stroke-linejoin:round; stroke-width:4; stroke-opacity:1; fill:none" points="
  800.96,1336.16 800.96,1384.24 813.299,1384.24 813.299,1336.16 800.96,1336.16 
  "/>
<path clip-path="url(#clip262)" d="
M813.299 1384.24 L813.299 1384.24 L825.638 1384.24 L825.638 1384.24 L813.299 1384.24 L813.299 1384.24  Z
  " fill="#009af9" fill-rule="evenodd" fill-opacity="1"/>
<polyline clip-path="url(#clip262)" style="stroke:#000000; stroke-linecap:butt; stroke-linejoin:round; stroke-width:4; stroke-opacity:1; fill:none" points="
  813.299,1384.24 813.299,1384.24 825.638,1384.24 813.299,1384.24 
  "/>
<path clip-path="url(#clip262)" d="
M825.638 1384.24 L825.638 1384.24 L837.977 1384.24 L837.977 1384.24 L825.638 1384.24 L825.638 1384.24  Z
  " fill="#009af9" fill-rule="evenodd" fill-opacity="1"/>
<polyline clip-path="url(#clip262)" style="stroke:#000000; stroke-linecap:butt; stroke-linejoin:round; stroke-width:4; stroke-opacity:1; fill:none" points="
  825.638,1384.24 825.638,1384.24 837.977,1384.24 825.638,1384.24 
  "/>
<path clip-path="url(#clip262)" d="
M837.977 1336.16 L837.977 1384.24 L850.315 1384.24 L850.315 1336.16 L837.977 1336.16 L837.977 1336.16  Z
  " fill="#009af9" fill-rule="evenodd" fill-opacity="1"/>
<polyline clip-path="url(#clip262)" style="stroke:#000000; stroke-linecap:butt; stroke-linejoin:round; stroke-width:4; stroke-opacity:1; fill:none" points="
  837.977,1336.16 837.977,1384.24 850.315,1384.24 850.315,1336.16 837.977,1336.16 
  "/>
<path clip-path="url(#clip262)" d="
M850.315 1336.16 L850.315 1384.24 L862.654 1384.24 L862.654 1336.16 L850.315 1336.16 L850.315 1336.16  Z
  " fill="#009af9" fill-rule="evenodd" fill-opacity="1"/>
<polyline clip-path="url(#clip262)" style="stroke:#000000; stroke-linecap:butt; stroke-linejoin:round; stroke-width:4; stroke-opacity:1; fill:none" points="
  850.315,1336.16 850.315,1384.24 862.654,1384.24 862.654,1336.16 850.315,1336.16 
  "/>
<path clip-path="url(#clip262)" d="
M862.654 1384.24 L862.654 1384.24 L874.993 1384.24 L874.993 1384.24 L862.654 1384.24 L862.654 1384.24  Z
  " fill="#009af9" fill-rule="evenodd" fill-opacity="1"/>
<polyline clip-path="url(#clip262)" style="stroke:#000000; stroke-linecap:butt; stroke-linejoin:round; stroke-width:4; stroke-opacity:1; fill:none" points="
  862.654,1384.24 862.654,1384.24 874.993,1384.24 862.654,1384.24 
  "/>
<path clip-path="url(#clip262)" d="
M874.993 1336.16 L874.993 1384.24 L887.332 1384.24 L887.332 1336.16 L874.993 1336.16 L874.993 1336.16  Z
  " fill="#009af9" fill-rule="evenodd" fill-opacity="1"/>
<polyline clip-path="url(#clip262)" style="stroke:#000000; stroke-linecap:butt; stroke-linejoin:round; stroke-width:4; stroke-opacity:1; fill:none" points="
  874.993,1336.16 874.993,1384.24 887.332,1384.24 887.332,1336.16 874.993,1336.16 
  "/>
<path clip-path="url(#clip262)" d="
M887.332 1384.24 L887.332 1384.24 L899.67 1384.24 L899.67 1384.24 L887.332 1384.24 L887.332 1384.24  Z
  " fill="#009af9" fill-rule="evenodd" fill-opacity="1"/>
<polyline clip-path="url(#clip262)" style="stroke:#000000; stroke-linecap:butt; stroke-linejoin:round; stroke-width:4; stroke-opacity:1; fill:none" points="
  887.332,1384.24 887.332,1384.24 899.67,1384.24 887.332,1384.24 
  "/>
<path clip-path="url(#clip262)" d="
M899.67 1336.16 L899.67 1384.24 L912.009 1384.24 L912.009 1336.16 L899.67 1336.16 L899.67 1336.16  Z
  " fill="#009af9" fill-rule="evenodd" fill-opacity="1"/>
<polyline clip-path="url(#clip262)" style="stroke:#000000; stroke-linecap:butt; stroke-linejoin:round; stroke-width:4; stroke-opacity:1; fill:none" points="
  899.67,1336.16 899.67,1384.24 912.009,1384.24 912.009,1336.16 899.67,1336.16 
  "/>
<path clip-path="url(#clip262)" d="
M912.009 1384.24 L912.009 1384.24 L924.348 1384.24 L924.348 1384.24 L912.009 1384.24 L912.009 1384.24  Z
  " fill="#009af9" fill-rule="evenodd" fill-opacity="1"/>
<polyline clip-path="url(#clip262)" style="stroke:#000000; stroke-linecap:butt; stroke-linejoin:round; stroke-width:4; stroke-opacity:1; fill:none" points="
  912.009,1384.24 912.009,1384.24 924.348,1384.24 912.009,1384.24 
  "/>
<path clip-path="url(#clip262)" d="
M924.348 1384.24 L924.348 1384.24 L936.687 1384.24 L936.687 1384.24 L924.348 1384.24 L924.348 1384.24  Z
  " fill="#009af9" fill-rule="evenodd" fill-opacity="1"/>
<polyline clip-path="url(#clip262)" style="stroke:#000000; stroke-linecap:butt; stroke-linejoin:round; stroke-width:4; stroke-opacity:1; fill:none" points="
  924.348,1384.24 924.348,1384.24 936.687,1384.24 924.348,1384.24 
  "/>
<path clip-path="url(#clip262)" d="
M936.687 1384.24 L936.687 1384.24 L949.026 1384.24 L949.026 1384.24 L936.687 1384.24 L936.687 1384.24  Z
  " fill="#009af9" fill-rule="evenodd" fill-opacity="1"/>
<polyline clip-path="url(#clip262)" style="stroke:#000000; stroke-linecap:butt; stroke-linejoin:round; stroke-width:4; stroke-opacity:1; fill:none" points="
  936.687,1384.24 936.687,1384.24 949.026,1384.24 936.687,1384.24 
  "/>
<path clip-path="url(#clip262)" d="
M949.026 1384.24 L949.026 1384.24 L961.364 1384.24 L961.364 1384.24 L949.026 1384.24 L949.026 1384.24  Z
  " fill="#009af9" fill-rule="evenodd" fill-opacity="1"/>
<polyline clip-path="url(#clip262)" style="stroke:#000000; stroke-linecap:butt; stroke-linejoin:round; stroke-width:4; stroke-opacity:1; fill:none" points="
  949.026,1384.24 949.026,1384.24 961.364,1384.24 949.026,1384.24 
  "/>
<path clip-path="url(#clip262)" d="
M961.364 1384.24 L961.364 1384.24 L973.703 1384.24 L973.703 1384.24 L961.364 1384.24 L961.364 1384.24  Z
  " fill="#009af9" fill-rule="evenodd" fill-opacity="1"/>
<polyline clip-path="url(#clip262)" style="stroke:#000000; stroke-linecap:butt; stroke-linejoin:round; stroke-width:4; stroke-opacity:1; fill:none" points="
  961.364,1384.24 961.364,1384.24 973.703,1384.24 961.364,1384.24 
  "/>
<path clip-path="url(#clip262)" d="
M973.703 1336.16 L973.703 1384.24 L986.042 1384.24 L986.042 1336.16 L973.703 1336.16 L973.703 1336.16  Z
  " fill="#009af9" fill-rule="evenodd" fill-opacity="1"/>
<polyline clip-path="url(#clip262)" style="stroke:#000000; stroke-linecap:butt; stroke-linejoin:round; stroke-width:4; stroke-opacity:1; fill:none" points="
  973.703,1336.16 973.703,1384.24 986.042,1384.24 986.042,1336.16 973.703,1336.16 
  "/>
<path clip-path="url(#clip262)" d="
M986.042 1384.24 L986.042 1384.24 L998.381 1384.24 L998.381 1384.24 L986.042 1384.24 L986.042 1384.24  Z
  " fill="#009af9" fill-rule="evenodd" fill-opacity="1"/>
<polyline clip-path="url(#clip262)" style="stroke:#000000; stroke-linecap:butt; stroke-linejoin:round; stroke-width:4; stroke-opacity:1; fill:none" points="
  986.042,1384.24 986.042,1384.24 998.381,1384.24 986.042,1384.24 
  "/>
<path clip-path="url(#clip262)" d="
M998.381 1384.24 L998.381 1384.24 L1010.72 1384.24 L1010.72 1384.24 L998.381 1384.24 L998.381 1384.24  Z
  " fill="#009af9" fill-rule="evenodd" fill-opacity="1"/>
<polyline clip-path="url(#clip262)" style="stroke:#000000; stroke-linecap:butt; stroke-linejoin:round; stroke-width:4; stroke-opacity:1; fill:none" points="
  998.381,1384.24 998.381,1384.24 1010.72,1384.24 998.381,1384.24 
  "/>
<path clip-path="url(#clip262)" d="
M1010.72 1384.24 L1010.72 1384.24 L1023.06 1384.24 L1023.06 1384.24 L1010.72 1384.24 L1010.72 1384.24  Z
  " fill="#009af9" fill-rule="evenodd" fill-opacity="1"/>
<polyline clip-path="url(#clip262)" style="stroke:#000000; stroke-linecap:butt; stroke-linejoin:round; stroke-width:4; stroke-opacity:1; fill:none" points="
  1010.72,1384.24 1010.72,1384.24 1023.06,1384.24 1010.72,1384.24 
  "/>
<path clip-path="url(#clip262)" d="
M1023.06 1384.24 L1023.06 1384.24 L1035.4 1384.24 L1035.4 1384.24 L1023.06 1384.24 L1023.06 1384.24  Z
  " fill="#009af9" fill-rule="evenodd" fill-opacity="1"/>
<polyline clip-path="url(#clip262)" style="stroke:#000000; stroke-linecap:butt; stroke-linejoin:round; stroke-width:4; stroke-opacity:1; fill:none" points="
  1023.06,1384.24 1023.06,1384.24 1035.4,1384.24 1023.06,1384.24 
  "/>
<path clip-path="url(#clip262)" d="
M1035.4 1384.24 L1035.4 1384.24 L1047.74 1384.24 L1047.74 1384.24 L1035.4 1384.24 L1035.4 1384.24  Z
  " fill="#009af9" fill-rule="evenodd" fill-opacity="1"/>
<polyline clip-path="url(#clip262)" style="stroke:#000000; stroke-linecap:butt; stroke-linejoin:round; stroke-width:4; stroke-opacity:1; fill:none" points="
  1035.4,1384.24 1035.4,1384.24 1047.74,1384.24 1035.4,1384.24 
  "/>
<path clip-path="url(#clip262)" d="
M1047.74 1336.16 L1047.74 1384.24 L1060.07 1384.24 L1060.07 1336.16 L1047.74 1336.16 L1047.74 1336.16  Z
  " fill="#009af9" fill-rule="evenodd" fill-opacity="1"/>
<polyline clip-path="url(#clip262)" style="stroke:#000000; stroke-linecap:butt; stroke-linejoin:round; stroke-width:4; stroke-opacity:1; fill:none" points="
  1047.74,1336.16 1047.74,1384.24 1060.07,1384.24 1060.07,1336.16 1047.74,1336.16 
  "/>
<path clip-path="url(#clip262)" d="
M1060.07 1384.24 L1060.07 1384.24 L1072.41 1384.24 L1072.41 1384.24 L1060.07 1384.24 L1060.07 1384.24  Z
  " fill="#009af9" fill-rule="evenodd" fill-opacity="1"/>
<polyline clip-path="url(#clip262)" style="stroke:#000000; stroke-linecap:butt; stroke-linejoin:round; stroke-width:4; stroke-opacity:1; fill:none" points="
  1060.07,1384.24 1060.07,1384.24 1072.41,1384.24 1060.07,1384.24 
  "/>
<path clip-path="url(#clip262)" d="
M1072.41 1336.16 L1072.41 1384.24 L1084.75 1384.24 L1084.75 1336.16 L1072.41 1336.16 L1072.41 1336.16  Z
  " fill="#009af9" fill-rule="evenodd" fill-opacity="1"/>
<polyline clip-path="url(#clip262)" style="stroke:#000000; stroke-linecap:butt; stroke-linejoin:round; stroke-width:4; stroke-opacity:1; fill:none" points="
  1072.41,1336.16 1072.41,1384.24 1084.75,1384.24 1084.75,1336.16 1072.41,1336.16 
  "/>
<path clip-path="url(#clip262)" d="
M1084.75 1336.16 L1084.75 1384.24 L1097.09 1384.24 L1097.09 1336.16 L1084.75 1336.16 L1084.75 1336.16  Z
  " fill="#009af9" fill-rule="evenodd" fill-opacity="1"/>
<polyline clip-path="url(#clip262)" style="stroke:#000000; stroke-linecap:butt; stroke-linejoin:round; stroke-width:4; stroke-opacity:1; fill:none" points="
  1084.75,1336.16 1084.75,1384.24 1097.09,1384.24 1097.09,1336.16 1084.75,1336.16 
  "/>
<circle clip-path="url(#clip262)" style="fill:#009af9; stroke:none; fill-opacity:0" cx="202.53" cy="951.554" r="2"/>
<circle clip-path="url(#clip262)" style="fill:#009af9; stroke:none; fill-opacity:0" cx="214.869" cy="807.326" r="2"/>
<circle clip-path="url(#clip262)" style="fill:#009af9; stroke:none; fill-opacity:0" cx="227.208" cy="326.566" r="2"/>
<circle clip-path="url(#clip262)" style="fill:#009af9; stroke:none; fill-opacity:0" cx="239.546" cy="86.1857" r="2"/>
<circle clip-path="url(#clip262)" style="fill:#009af9; stroke:none; fill-opacity:0" cx="251.885" cy="1047.71" r="2"/>
<circle clip-path="url(#clip262)" style="fill:#009af9; stroke:none; fill-opacity:0" cx="264.224" cy="470.794" r="2"/>
<circle clip-path="url(#clip262)" style="fill:#009af9; stroke:none; fill-opacity:0" cx="276.563" cy="711.174" r="2"/>
<circle clip-path="url(#clip262)" style="fill:#009af9; stroke:none; fill-opacity:0" cx="288.901" cy="951.554" r="2"/>
<circle clip-path="url(#clip262)" style="fill:#009af9; stroke:none; fill-opacity:0" cx="301.24" cy="566.946" r="2"/>
<circle clip-path="url(#clip262)" style="fill:#009af9; stroke:none; fill-opacity:0" cx="313.579" cy="951.554" r="2"/>
<circle clip-path="url(#clip262)" style="fill:#009af9; stroke:none; fill-opacity:0" cx="325.918" cy="1143.86" r="2"/>
<circle clip-path="url(#clip262)" style="fill:#009af9; stroke:none; fill-opacity:0" cx="338.257" cy="807.326" r="2"/>
<circle clip-path="url(#clip262)" style="fill:#009af9; stroke:none; fill-opacity:0" cx="350.595" cy="951.554" r="2"/>
<circle clip-path="url(#clip262)" style="fill:#009af9; stroke:none; fill-opacity:0" cx="362.934" cy="951.554" r="2"/>
<circle clip-path="url(#clip262)" style="fill:#009af9; stroke:none; fill-opacity:0" cx="375.273" cy="1047.71" r="2"/>
<circle clip-path="url(#clip262)" style="fill:#009af9; stroke:none; fill-opacity:0" cx="387.612" cy="1047.71" r="2"/>
<circle clip-path="url(#clip262)" style="fill:#009af9; stroke:none; fill-opacity:0" cx="399.95" cy="1095.78" r="2"/>
<circle clip-path="url(#clip262)" style="fill:#009af9; stroke:none; fill-opacity:0" cx="412.289" cy="1191.93" r="2"/>
<circle clip-path="url(#clip262)" style="fill:#009af9; stroke:none; fill-opacity:0" cx="424.628" cy="1191.93" r="2"/>
<circle clip-path="url(#clip262)" style="fill:#009af9; stroke:none; fill-opacity:0" cx="436.967" cy="1191.93" r="2"/>
<circle clip-path="url(#clip262)" style="fill:#009af9; stroke:none; fill-opacity:0" cx="449.305" cy="1191.93" r="2"/>
<circle clip-path="url(#clip262)" style="fill:#009af9; stroke:none; fill-opacity:0" cx="461.644" cy="1095.78" r="2"/>
<circle clip-path="url(#clip262)" style="fill:#009af9; stroke:none; fill-opacity:0" cx="473.983" cy="1143.86" r="2"/>
<circle clip-path="url(#clip262)" style="fill:#009af9; stroke:none; fill-opacity:0" cx="486.322" cy="1288.09" r="2"/>
<circle clip-path="url(#clip262)" style="fill:#009af9; stroke:none; fill-opacity:0" cx="498.66" cy="1336.16" r="2"/>
<circle clip-path="url(#clip262)" style="fill:#009af9; stroke:none; fill-opacity:0" cx="510.999" cy="1288.09" r="2"/>
<circle clip-path="url(#clip262)" style="fill:#009af9; stroke:none; fill-opacity:0" cx="523.338" cy="1288.09" r="2"/>
<circle clip-path="url(#clip262)" style="fill:#009af9; stroke:none; fill-opacity:0" cx="535.677" cy="1288.09" r="2"/>
<circle clip-path="url(#clip262)" style="fill:#009af9; stroke:none; fill-opacity:0" cx="548.016" cy="1336.16" r="2"/>
<circle clip-path="url(#clip262)" style="fill:#009af9; stroke:none; fill-opacity:0" cx="560.354" cy="1336.16" r="2"/>
<circle clip-path="url(#clip262)" style="fill:#009af9; stroke:none; fill-opacity:0" cx="572.693" cy="1240.01" r="2"/>
<circle clip-path="url(#clip262)" style="fill:#009af9; stroke:none; fill-opacity:0" cx="585.032" cy="1288.09" r="2"/>
<circle clip-path="url(#clip262)" style="fill:#009af9; stroke:none; fill-opacity:0" cx="597.371" cy="1384.24" r="2"/>
<circle clip-path="url(#clip262)" style="fill:#009af9; stroke:none; fill-opacity:0" cx="609.709" cy="1240.01" r="2"/>
<circle clip-path="url(#clip262)" style="fill:#009af9; stroke:none; fill-opacity:0" cx="622.048" cy="1336.16" r="2"/>
<circle clip-path="url(#clip262)" style="fill:#009af9; stroke:none; fill-opacity:0" cx="634.387" cy="1336.16" r="2"/>
<circle clip-path="url(#clip262)" style="fill:#009af9; stroke:none; fill-opacity:0" cx="646.726" cy="1288.09" r="2"/>
<circle clip-path="url(#clip262)" style="fill:#009af9; stroke:none; fill-opacity:0" cx="659.064" cy="1384.24" r="2"/>
<circle clip-path="url(#clip262)" style="fill:#009af9; stroke:none; fill-opacity:0" cx="671.403" cy="1240.01" r="2"/>
<circle clip-path="url(#clip262)" style="fill:#009af9; stroke:none; fill-opacity:0" cx="683.742" cy="1240.01" r="2"/>
<circle clip-path="url(#clip262)" style="fill:#009af9; stroke:none; fill-opacity:0" cx="696.081" cy="1384.24" r="2"/>
<circle clip-path="url(#clip262)" style="fill:#009af9; stroke:none; fill-opacity:0" cx="708.42" cy="1384.24" r="2"/>
<circle clip-path="url(#clip262)" style="fill:#009af9; stroke:none; fill-opacity:0" cx="720.758" cy="1336.16" r="2"/>
<circle clip-path="url(#clip262)" style="fill:#009af9; stroke:none; fill-opacity:0" cx="733.097" cy="1384.24" r="2"/>
<circle clip-path="url(#clip262)" style="fill:#009af9; stroke:none; fill-opacity:0" cx="745.436" cy="1336.16" r="2"/>
<circle clip-path="url(#clip262)" style="fill:#009af9; stroke:none; fill-opacity:0" cx="757.775" cy="1288.09" r="2"/>
<circle clip-path="url(#clip262)" style="fill:#009af9; stroke:none; fill-opacity:0" cx="770.113" cy="1336.16" r="2"/>
<circle clip-path="url(#clip262)" style="fill:#009af9; stroke:none; fill-opacity:0" cx="782.452" cy="1384.24" r="2"/>
<circle clip-path="url(#clip262)" style="fill:#009af9; stroke:none; fill-opacity:0" cx="794.791" cy="1336.16" r="2"/>
<circle clip-path="url(#clip262)" style="fill:#009af9; stroke:none; fill-opacity:0" cx="807.13" cy="1336.16" r="2"/>
<circle clip-path="url(#clip262)" style="fill:#009af9; stroke:none; fill-opacity:0" cx="819.468" cy="1384.24" r="2"/>
<circle clip-path="url(#clip262)" style="fill:#009af9; stroke:none; fill-opacity:0" cx="831.807" cy="1384.24" r="2"/>
<circle clip-path="url(#clip262)" style="fill:#009af9; stroke:none; fill-opacity:0" cx="844.146" cy="1336.16" r="2"/>
<circle clip-path="url(#clip262)" style="fill:#009af9; stroke:none; fill-opacity:0" cx="856.485" cy="1336.16" r="2"/>
<circle clip-path="url(#clip262)" style="fill:#009af9; stroke:none; fill-opacity:0" cx="868.824" cy="1384.24" r="2"/>
<circle clip-path="url(#clip262)" style="fill:#009af9; stroke:none; fill-opacity:0" cx="881.162" cy="1336.16" r="2"/>
<circle clip-path="url(#clip262)" style="fill:#009af9; stroke:none; fill-opacity:0" cx="893.501" cy="1384.24" r="2"/>
<circle clip-path="url(#clip262)" style="fill:#009af9; stroke:none; fill-opacity:0" cx="905.84" cy="1336.16" r="2"/>
<circle clip-path="url(#clip262)" style="fill:#009af9; stroke:none; fill-opacity:0" cx="918.179" cy="1384.24" r="2"/>
<circle clip-path="url(#clip262)" style="fill:#009af9; stroke:none; fill-opacity:0" cx="930.517" cy="1384.24" r="2"/>
<circle clip-path="url(#clip262)" style="fill:#009af9; stroke:none; fill-opacity:0" cx="942.856" cy="1384.24" r="2"/>
<circle clip-path="url(#clip262)" style="fill:#009af9; stroke:none; fill-opacity:0" cx="955.195" cy="1384.24" r="2"/>
<circle clip-path="url(#clip262)" style="fill:#009af9; stroke:none; fill-opacity:0" cx="967.534" cy="1384.24" r="2"/>
<circle clip-path="url(#clip262)" style="fill:#009af9; stroke:none; fill-opacity:0" cx="979.872" cy="1336.16" r="2"/>
<circle clip-path="url(#clip262)" style="fill:#009af9; stroke:none; fill-opacity:0" cx="992.211" cy="1384.24" r="2"/>
<circle clip-path="url(#clip262)" style="fill:#009af9; stroke:none; fill-opacity:0" cx="1004.55" cy="1384.24" r="2"/>
<circle clip-path="url(#clip262)" style="fill:#009af9; stroke:none; fill-opacity:0" cx="1016.89" cy="1384.24" r="2"/>
<circle clip-path="url(#clip262)" style="fill:#009af9; stroke:none; fill-opacity:0" cx="1029.23" cy="1384.24" r="2"/>
<circle clip-path="url(#clip262)" style="fill:#009af9; stroke:none; fill-opacity:0" cx="1041.57" cy="1384.24" r="2"/>
<circle clip-path="url(#clip262)" style="fill:#009af9; stroke:none; fill-opacity:0" cx="1053.91" cy="1336.16" r="2"/>
<circle clip-path="url(#clip262)" style="fill:#009af9; stroke:none; fill-opacity:0" cx="1066.24" cy="1384.24" r="2"/>
<circle clip-path="url(#clip262)" style="fill:#009af9; stroke:none; fill-opacity:0" cx="1078.58" cy="1336.16" r="2"/>
<circle clip-path="url(#clip262)" style="fill:#009af9; stroke:none; fill-opacity:0" cx="1090.92" cy="1336.16" r="2"/>
<path clip-path="url(#clip260)" d="
M1340.7 1423.18 L2352.76 1423.18 L2352.76 47.2441 L1340.7 47.2441  Z
  " fill="#ffffff" fill-rule="evenodd" fill-opacity="1"/>
<defs>
  <clipPath id="clip263">
    <rect x="1340" y="47" width="1013" height="1377"/>
  </clipPath>
</defs>
<polyline clip-path="url(#clip263)" style="stroke:#000000; stroke-linecap:butt; stroke-linejoin:round; stroke-width:2; stroke-opacity:0.1; fill:none" points="
  1371.34,1423.18 1371.34,47.2441 
  "/>
<polyline clip-path="url(#clip263)" style="stroke:#000000; stroke-linecap:butt; stroke-linejoin:round; stroke-width:2; stroke-opacity:0.1; fill:none" points="
  1621.54,1423.18 1621.54,47.2441 
  "/>
<polyline clip-path="url(#clip263)" style="stroke:#000000; stroke-linecap:butt; stroke-linejoin:round; stroke-width:2; stroke-opacity:0.1; fill:none" points="
  1871.75,1423.18 1871.75,47.2441 
  "/>
<polyline clip-path="url(#clip263)" style="stroke:#000000; stroke-linecap:butt; stroke-linejoin:round; stroke-width:2; stroke-opacity:0.1; fill:none" points="
  2121.95,1423.18 2121.95,47.2441 
  "/>
<polyline clip-path="url(#clip260)" style="stroke:#000000; stroke-linecap:butt; stroke-linejoin:round; stroke-width:4; stroke-opacity:1; fill:none" points="
  1340.7,1423.18 2352.76,1423.18 
  "/>
<polyline clip-path="url(#clip260)" style="stroke:#000000; stroke-linecap:butt; stroke-linejoin:round; stroke-width:4; stroke-opacity:1; fill:none" points="
  1371.34,1423.18 1371.34,1404.28 
  "/>
<polyline clip-path="url(#clip260)" style="stroke:#000000; stroke-linecap:butt; stroke-linejoin:round; stroke-width:4; stroke-opacity:1; fill:none" points="
  1621.54,1423.18 1621.54,1404.28 
  "/>
<polyline clip-path="url(#clip260)" style="stroke:#000000; stroke-linecap:butt; stroke-linejoin:round; stroke-width:4; stroke-opacity:1; fill:none" points="
  1871.75,1423.18 1871.75,1404.28 
  "/>
<polyline clip-path="url(#clip260)" style="stroke:#000000; stroke-linecap:butt; stroke-linejoin:round; stroke-width:4; stroke-opacity:1; fill:none" points="
  2121.95,1423.18 2121.95,1404.28 
  "/>
<path clip-path="url(#clip260)" d="M1349.52 1452.37 Q1345.91 1452.37 1344.08 1455.94 Q1342.28 1459.48 1342.28 1466.61 Q1342.28 1473.71 1344.08 1477.28 Q1345.91 1480.82 1349.52 1480.82 Q1353.16 1480.82 1354.96 1477.28 Q1356.79 1473.71 1356.79 1466.61 Q1356.79 1459.48 1354.96 1455.94 Q1353.16 1452.37 1349.52 1452.37 M1349.52 1448.67 Q1355.33 1448.67 1358.39 1453.27 Q1361.47 1457.86 1361.47 1466.61 Q1361.47 1475.33 1358.39 1479.94 Q1355.33 1484.52 1349.52 1484.52 Q1343.71 1484.52 1340.63 1479.94 Q1337.58 1475.33 1337.58 1466.61 Q1337.58 1457.86 1340.63 1453.27 Q1343.71 1448.67 1349.52 1448.67 Z" fill="#000000" fill-rule="evenodd" fill-opacity="1" /><path clip-path="url(#clip260)" d="M1369.69 1477.97 L1374.57 1477.97 L1374.57 1483.85 L1369.69 1483.85 L1369.69 1477.97 Z" fill="#000000" fill-rule="evenodd" fill-opacity="1" /><path clip-path="url(#clip260)" d="M1388.78 1479.92 L1405.1 1479.92 L1405.1 1483.85 L1383.16 1483.85 L1383.16 1479.92 Q1385.82 1477.16 1390.4 1472.53 Q1395.01 1467.88 1396.19 1466.54 Q1398.44 1464.01 1399.31 1462.28 Q1400.22 1460.52 1400.22 1458.83 Q1400.22 1456.07 1398.27 1454.34 Q1396.35 1452.6 1393.25 1452.6 Q1391.05 1452.6 1388.6 1453.37 Q1386.17 1454.13 1383.39 1455.68 L1383.39 1450.96 Q1386.21 1449.82 1388.67 1449.25 Q1391.12 1448.67 1393.16 1448.67 Q1398.53 1448.67 1401.72 1451.35 Q1404.92 1454.04 1404.92 1458.53 Q1404.92 1460.66 1404.11 1462.58 Q1403.32 1464.48 1401.21 1467.07 Q1400.63 1467.74 1397.53 1470.96 Q1394.43 1474.15 1388.78 1479.92 Z" fill="#000000" fill-rule="evenodd" fill-opacity="1" /><path clip-path="url(#clip260)" d="M1598.68 1452.37 Q1595.07 1452.37 1593.24 1455.94 Q1591.44 1459.48 1591.44 1466.61 Q1591.44 1473.71 1593.24 1477.28 Q1595.07 1480.82 1598.68 1480.82 Q1602.32 1480.82 1604.12 1477.28 Q1605.95 1473.71 1605.95 1466.61 Q1605.95 1459.48 1604.12 1455.94 Q1602.32 1452.37 1598.68 1452.37 M1598.68 1448.67 Q1604.49 1448.67 1607.55 1453.27 Q1610.63 1457.86 1610.63 1466.61 Q1610.63 1475.33 1607.55 1479.94 Q1604.49 1484.52 1598.68 1484.52 Q1592.87 1484.52 1589.8 1479.94 Q1586.74 1475.33 1586.74 1466.61 Q1586.74 1457.86 1589.8 1453.27 Q1592.87 1448.67 1598.68 1448.67 Z" fill="#000000" fill-rule="evenodd" fill-opacity="1" /><path clip-path="url(#clip260)" d="M1618.85 1477.97 L1623.73 1477.97 L1623.73 1483.85 L1618.85 1483.85 L1618.85 1477.97 Z" fill="#000000" fill-rule="evenodd" fill-opacity="1" /><path clip-path="url(#clip260)" d="M1646.76 1453.37 L1634.96 1471.81 L1646.76 1471.81 L1646.76 1453.37 M1645.54 1449.29 L1651.42 1449.29 L1651.42 1471.81 L1656.35 1471.81 L1656.35 1475.7 L1651.42 1475.7 L1651.42 1483.85 L1646.76 1483.85 L1646.76 1475.7 L1631.16 1475.7 L1631.16 1471.19 L1645.54 1449.29 Z" fill="#000000" fill-rule="evenodd" fill-opacity="1" /><path clip-path="url(#clip260)" d="M1849.05 1452.37 Q1845.44 1452.37 1843.61 1455.94 Q1841.8 1459.48 1841.8 1466.61 Q1841.8 1473.71 1843.61 1477.28 Q1845.44 1480.82 1849.05 1480.82 Q1852.68 1480.82 1854.49 1477.28 Q1856.32 1473.71 1856.32 1466.61 Q1856.32 1459.48 1854.49 1455.94 Q1852.68 1452.37 1849.05 1452.37 M1849.05 1448.67 Q1854.86 1448.67 1857.92 1453.27 Q1860.99 1457.86 1860.99 1466.61 Q1860.99 1475.33 1857.92 1479.94 Q1854.86 1484.52 1849.05 1484.52 Q1843.24 1484.52 1840.16 1479.94 Q1837.1 1475.33 1837.1 1466.61 Q1837.1 1457.86 1840.16 1453.27 Q1843.24 1448.67 1849.05 1448.67 Z" fill="#000000" fill-rule="evenodd" fill-opacity="1" /><path clip-path="url(#clip260)" d="M1869.21 1477.97 L1874.1 1477.97 L1874.1 1483.85 L1869.21 1483.85 L1869.21 1477.97 Z" fill="#000000" fill-rule="evenodd" fill-opacity="1" /><path clip-path="url(#clip260)" d="M1894.86 1464.71 Q1891.71 1464.71 1889.86 1466.86 Q1888.03 1469.01 1888.03 1472.76 Q1888.03 1476.49 1889.86 1478.67 Q1891.71 1480.82 1894.86 1480.82 Q1898.01 1480.82 1899.84 1478.67 Q1901.69 1476.49 1901.69 1472.76 Q1901.69 1469.01 1899.84 1466.86 Q1898.01 1464.71 1894.86 1464.71 M1904.14 1450.06 L1904.14 1454.31 Q1902.38 1453.48 1900.58 1453.04 Q1898.79 1452.6 1897.04 1452.6 Q1892.41 1452.6 1889.95 1455.73 Q1887.52 1458.85 1887.17 1465.17 Q1888.54 1463.16 1890.6 1462.09 Q1892.66 1461 1895.14 1461 Q1900.35 1461 1903.35 1464.18 Q1906.39 1467.32 1906.39 1472.76 Q1906.39 1478.09 1903.24 1481.31 Q1900.09 1484.52 1894.86 1484.52 Q1888.86 1484.52 1885.69 1479.94 Q1882.52 1475.33 1882.52 1466.61 Q1882.52 1458.41 1886.41 1453.55 Q1890.3 1448.67 1896.85 1448.67 Q1898.61 1448.67 1900.39 1449.01 Q1902.2 1449.36 1904.14 1450.06 Z" fill="#000000" fill-rule="evenodd" fill-opacity="1" /><path clip-path="url(#clip260)" d="M2099.38 1452.37 Q2095.77 1452.37 2093.94 1455.94 Q2092.13 1459.48 2092.13 1466.61 Q2092.13 1473.71 2093.94 1477.28 Q2095.77 1480.82 2099.38 1480.82 Q2103.01 1480.82 2104.82 1477.28 Q2106.65 1473.71 2106.65 1466.61 Q2106.65 1459.48 2104.82 1455.94 Q2103.01 1452.37 2099.38 1452.37 M2099.38 1448.67 Q2105.19 1448.67 2108.25 1453.27 Q2111.32 1457.86 2111.32 1466.61 Q2111.32 1475.33 2108.25 1479.94 Q2105.19 1484.52 2099.38 1484.52 Q2093.57 1484.52 2090.49 1479.94 Q2087.44 1475.33 2087.44 1466.61 Q2087.44 1457.86 2090.49 1453.27 Q2093.57 1448.67 2099.38 1448.67 Z" fill="#000000" fill-rule="evenodd" fill-opacity="1" /><path clip-path="url(#clip260)" d="M2119.54 1477.97 L2124.43 1477.97 L2124.43 1483.85 L2119.54 1483.85 L2119.54 1477.97 Z" fill="#000000" fill-rule="evenodd" fill-opacity="1" /><path clip-path="url(#clip260)" d="M2144.61 1467.44 Q2141.28 1467.44 2139.36 1469.22 Q2137.46 1471 2137.46 1474.13 Q2137.46 1477.25 2139.36 1479.04 Q2141.28 1480.82 2144.61 1480.82 Q2147.94 1480.82 2149.87 1479.04 Q2151.79 1477.23 2151.79 1474.13 Q2151.79 1471 2149.87 1469.22 Q2147.97 1467.44 2144.61 1467.44 M2139.93 1465.45 Q2136.93 1464.71 2135.24 1462.65 Q2133.57 1460.59 2133.57 1457.63 Q2133.57 1453.48 2136.51 1451.07 Q2139.47 1448.67 2144.61 1448.67 Q2149.77 1448.67 2152.71 1451.07 Q2155.65 1453.48 2155.65 1457.63 Q2155.65 1460.59 2153.96 1462.65 Q2152.3 1464.71 2149.31 1465.45 Q2152.69 1466.24 2154.56 1468.53 Q2156.46 1470.82 2156.46 1474.13 Q2156.46 1479.15 2153.38 1481.84 Q2150.33 1484.52 2144.61 1484.52 Q2138.89 1484.52 2135.81 1481.84 Q2132.76 1479.15 2132.76 1474.13 Q2132.76 1470.82 2134.66 1468.53 Q2136.56 1466.24 2139.93 1465.45 M2138.22 1458.06 Q2138.22 1460.75 2139.89 1462.25 Q2141.58 1463.76 2144.61 1463.76 Q2147.62 1463.76 2149.31 1462.25 Q2151.02 1460.75 2151.02 1458.06 Q2151.02 1455.38 2149.31 1453.88 Q2147.62 1452.37 2144.61 1452.37 Q2141.58 1452.37 2139.89 1453.88 Q2138.22 1455.38 2138.22 1458.06 Z" fill="#000000" fill-rule="evenodd" fill-opacity="1" /><path clip-path="url(#clip260)" d="M1813.58 1545.35 L1813.58 1562.76 L1823.89 1562.76 Q1829.08 1562.76 1831.56 1560.63 Q1834.07 1558.46 1834.07 1554.04 Q1834.07 1549.58 1831.56 1547.48 Q1829.08 1545.35 1823.89 1545.35 L1813.58 1545.35 M1813.58 1525.81 L1813.58 1540.13 L1823.09 1540.13 Q1827.8 1540.13 1830.1 1538.38 Q1832.42 1536.6 1832.42 1532.97 Q1832.42 1529.37 1830.1 1527.59 Q1827.8 1525.81 1823.09 1525.81 L1813.58 1525.81 M1807.15 1520.52 L1823.57 1520.52 Q1830.92 1520.52 1834.9 1523.58 Q1838.88 1526.63 1838.88 1532.27 Q1838.88 1536.63 1836.84 1539.21 Q1834.81 1541.79 1830.86 1542.42 Q1835.6 1543.44 1838.21 1546.69 Q1840.85 1549.9 1840.85 1554.74 Q1840.85 1561.11 1836.52 1564.57 Q1832.2 1568.04 1824.21 1568.04 L1807.15 1568.04 L1807.15 1520.52 Z" fill="#000000" fill-rule="evenodd" fill-opacity="1" /><path clip-path="url(#clip260)" d="M1886.3 1524.18 L1886.3 1530.96 Q1883.06 1527.94 1879.37 1526.44 Q1875.71 1524.95 1871.57 1524.95 Q1863.42 1524.95 1859.09 1529.95 Q1854.76 1534.91 1854.76 1544.33 Q1854.76 1553.72 1859.09 1558.72 Q1863.42 1563.68 1871.57 1563.68 Q1875.71 1563.68 1879.37 1562.19 Q1883.06 1560.69 1886.3 1557.67 L1886.3 1564.38 Q1882.93 1566.68 1879.14 1567.82 Q1875.39 1568.97 1871.19 1568.97 Q1860.4 1568.97 1854.19 1562.38 Q1847.98 1555.76 1847.98 1544.33 Q1847.98 1532.87 1854.19 1526.28 Q1860.4 1519.66 1871.19 1519.66 Q1875.45 1519.66 1879.21 1520.81 Q1882.99 1521.92 1886.3 1524.18 Z" fill="#000000" fill-rule="evenodd" fill-opacity="1" /><polyline clip-path="url(#clip263)" style="stroke:#000000; stroke-linecap:butt; stroke-linejoin:round; stroke-width:2; stroke-opacity:0.1; fill:none" points="
  1340.7,1384.24 2352.76,1384.24 
  "/>
<polyline clip-path="url(#clip263)" style="stroke:#000000; stroke-linecap:butt; stroke-linejoin:round; stroke-width:2; stroke-opacity:0.1; fill:none" points="
  1340.7,965.512 2352.76,965.512 
  "/>
<polyline clip-path="url(#clip263)" style="stroke:#000000; stroke-linecap:butt; stroke-linejoin:round; stroke-width:2; stroke-opacity:0.1; fill:none" points="
  1340.7,546.785 2352.76,546.785 
  "/>
<polyline clip-path="url(#clip263)" style="stroke:#000000; stroke-linecap:butt; stroke-linejoin:round; stroke-width:2; stroke-opacity:0.1; fill:none" points="
  1340.7,128.058 2352.76,128.058 
  "/>
<polyline clip-path="url(#clip260)" style="stroke:#000000; stroke-linecap:butt; stroke-linejoin:round; stroke-width:4; stroke-opacity:1; fill:none" points="
  1340.7,1423.18 1340.7,47.2441 
  "/>
<polyline clip-path="url(#clip260)" style="stroke:#000000; stroke-linecap:butt; stroke-linejoin:round; stroke-width:4; stroke-opacity:1; fill:none" points="
  1340.7,1384.24 1359.59,1384.24 
  "/>
<polyline clip-path="url(#clip260)" style="stroke:#000000; stroke-linecap:butt; stroke-linejoin:round; stroke-width:4; stroke-opacity:1; fill:none" points="
  1340.7,965.512 1359.59,965.512 
  "/>
<polyline clip-path="url(#clip260)" style="stroke:#000000; stroke-linecap:butt; stroke-linejoin:round; stroke-width:4; stroke-opacity:1; fill:none" points="
  1340.7,546.785 1359.59,546.785 
  "/>
<polyline clip-path="url(#clip260)" style="stroke:#000000; stroke-linecap:butt; stroke-linejoin:round; stroke-width:4; stroke-opacity:1; fill:none" points="
  1340.7,128.058 1359.59,128.058 
  "/>
<path clip-path="url(#clip260)" d="M1292.75 1370.04 Q1289.14 1370.04 1287.31 1373.6 Q1285.51 1377.14 1285.51 1384.27 Q1285.51 1391.38 1287.31 1394.94 Q1289.14 1398.49 1292.75 1398.49 Q1296.39 1398.49 1298.19 1394.94 Q1300.02 1391.38 1300.02 1384.27 Q1300.02 1377.14 1298.19 1373.6 Q1296.39 1370.04 1292.75 1370.04 M1292.75 1366.33 Q1298.56 1366.33 1301.62 1370.94 Q1304.7 1375.52 1304.7 1384.27 Q1304.7 1393 1301.62 1397.61 Q1298.56 1402.19 1292.75 1402.19 Q1286.94 1402.19 1283.86 1397.61 Q1280.81 1393 1280.81 1384.27 Q1280.81 1375.52 1283.86 1370.94 Q1286.94 1366.33 1292.75 1366.33 Z" fill="#000000" fill-rule="evenodd" fill-opacity="1" /><path clip-path="url(#clip260)" d="M1253.4 978.856 L1261.04 978.856 L1261.04 952.491 L1252.73 954.158 L1252.73 949.898 L1260.99 948.232 L1265.67 948.232 L1265.67 978.856 L1273.31 978.856 L1273.31 982.792 L1253.4 982.792 L1253.4 978.856 Z" fill="#000000" fill-rule="evenodd" fill-opacity="1" /><path clip-path="url(#clip260)" d="M1292.75 951.31 Q1289.14 951.31 1287.31 954.875 Q1285.51 958.417 1285.51 965.546 Q1285.51 972.653 1287.31 976.218 Q1289.14 979.759 1292.75 979.759 Q1296.39 979.759 1298.19 976.218 Q1300.02 972.653 1300.02 965.546 Q1300.02 958.417 1298.19 954.875 Q1296.39 951.31 1292.75 951.31 M1292.75 947.607 Q1298.56 947.607 1301.62 952.213 Q1304.7 956.796 1304.7 965.546 Q1304.7 974.273 1301.62 978.88 Q1298.56 983.463 1292.75 983.463 Q1286.94 983.463 1283.86 978.88 Q1280.81 974.273 1280.81 965.546 Q1280.81 956.796 1283.86 952.213 Q1286.94 947.607 1292.75 947.607 Z" fill="#000000" fill-rule="evenodd" fill-opacity="1" /><path clip-path="url(#clip260)" d="M1256.62 560.13 L1272.94 560.13 L1272.94 564.065 L1250.99 564.065 L1250.99 560.13 Q1253.65 557.375 1258.24 552.746 Q1262.84 548.093 1264.02 546.75 Q1266.27 544.227 1267.15 542.491 Q1268.05 540.732 1268.05 539.042 Q1268.05 536.287 1266.11 534.551 Q1264.19 532.815 1261.08 532.815 Q1258.89 532.815 1256.43 533.579 Q1254 534.343 1251.22 535.894 L1251.22 531.172 Q1254.05 530.037 1256.5 529.459 Q1258.96 528.88 1260.99 528.88 Q1266.36 528.88 1269.56 531.565 Q1272.75 534.25 1272.75 538.741 Q1272.75 540.871 1271.94 542.792 Q1271.15 544.69 1269.05 547.283 Q1268.47 547.954 1265.37 551.172 Q1262.27 554.366 1256.62 560.13 Z" fill="#000000" fill-rule="evenodd" fill-opacity="1" /><path clip-path="url(#clip260)" d="M1292.75 532.584 Q1289.14 532.584 1287.31 536.148 Q1285.51 539.69 1285.51 546.82 Q1285.51 553.926 1287.31 557.491 Q1289.14 561.033 1292.75 561.033 Q1296.39 561.033 1298.19 557.491 Q1300.02 553.926 1300.02 546.82 Q1300.02 539.69 1298.19 536.148 Q1296.39 532.584 1292.75 532.584 M1292.75 528.88 Q1298.56 528.88 1301.62 533.486 Q1304.7 538.07 1304.7 546.82 Q1304.7 555.547 1301.62 560.153 Q1298.56 564.736 1292.75 564.736 Q1286.94 564.736 1283.86 560.153 Q1280.81 555.547 1280.81 546.82 Q1280.81 538.07 1283.86 533.486 Q1286.94 528.88 1292.75 528.88 Z" fill="#000000" fill-rule="evenodd" fill-opacity="1" /><path clip-path="url(#clip260)" d="M1266.76 126.704 Q1270.11 127.422 1271.99 129.69 Q1273.89 131.959 1273.89 135.292 Q1273.89 140.408 1270.37 143.209 Q1266.85 146.01 1260.37 146.01 Q1258.19 146.01 1255.88 145.57 Q1253.58 145.153 1251.13 144.297 L1251.13 139.783 Q1253.08 140.917 1255.39 141.496 Q1257.71 142.074 1260.23 142.074 Q1264.63 142.074 1266.92 140.338 Q1269.23 138.602 1269.23 135.292 Q1269.23 132.237 1267.08 130.524 Q1264.95 128.787 1261.13 128.787 L1257.1 128.787 L1257.1 124.945 L1261.32 124.945 Q1264.77 124.945 1266.59 123.579 Q1268.42 122.19 1268.42 119.598 Q1268.42 116.936 1266.52 115.524 Q1264.65 114.089 1261.13 114.089 Q1259.21 114.089 1257.01 114.505 Q1254.81 114.922 1252.17 115.801 L1252.17 111.635 Q1254.83 110.894 1257.15 110.524 Q1259.49 110.153 1261.55 110.153 Q1266.87 110.153 1269.97 112.584 Q1273.08 114.991 1273.08 119.112 Q1273.08 121.982 1271.43 123.973 Q1269.79 125.94 1266.76 126.704 Z" fill="#000000" fill-rule="evenodd" fill-opacity="1" /><path clip-path="url(#clip260)" d="M1292.75 113.857 Q1289.14 113.857 1287.31 117.422 Q1285.51 120.963 1285.51 128.093 Q1285.51 135.2 1287.31 138.764 Q1289.14 142.306 1292.75 142.306 Q1296.39 142.306 1298.19 138.764 Q1300.02 135.2 1300.02 128.093 Q1300.02 120.963 1298.19 117.422 Q1296.39 113.857 1292.75 113.857 M1292.75 110.153 Q1298.56 110.153 1301.62 114.76 Q1304.7 119.343 1304.7 128.093 Q1304.7 136.82 1301.62 141.426 Q1298.56 146.01 1292.75 146.01 Q1286.94 146.01 1283.86 141.426 Q1280.81 136.82 1280.81 128.093 Q1280.81 119.343 1283.86 114.76 Q1286.94 110.153 1292.75 110.153 Z" fill="#000000" fill-rule="evenodd" fill-opacity="1" /><path clip-path="url(#clip263)" d="
M1396.36 1300.49 L1396.36 1384.24 L1421.38 1384.24 L1421.38 1300.49 L1396.36 1300.49 L1396.36 1300.49  Z
  " fill="#009af9" fill-rule="evenodd" fill-opacity="1"/>
<polyline clip-path="url(#clip263)" style="stroke:#000000; stroke-linecap:butt; stroke-linejoin:round; stroke-width:4; stroke-opacity:1; fill:none" points="
  1396.36,1300.49 1396.36,1384.24 1421.38,1384.24 1421.38,1300.49 1396.36,1300.49 
  "/>
<path clip-path="url(#clip263)" d="
M1421.38 1342.37 L1421.38 1384.24 L1446.4 1384.24 L1446.4 1342.37 L1421.38 1342.37 L1421.38 1342.37  Z
  " fill="#009af9" fill-rule="evenodd" fill-opacity="1"/>
<polyline clip-path="url(#clip263)" style="stroke:#000000; stroke-linecap:butt; stroke-linejoin:round; stroke-width:4; stroke-opacity:1; fill:none" points="
  1421.38,1342.37 1421.38,1384.24 1446.4,1384.24 1446.4,1342.37 1421.38,1342.37 
  "/>
<path clip-path="url(#clip263)" d="
M1446.4 1342.37 L1446.4 1384.24 L1471.42 1384.24 L1471.42 1342.37 L1446.4 1342.37 L1446.4 1342.37  Z
  " fill="#009af9" fill-rule="evenodd" fill-opacity="1"/>
<polyline clip-path="url(#clip263)" style="stroke:#000000; stroke-linecap:butt; stroke-linejoin:round; stroke-width:4; stroke-opacity:1; fill:none" points="
  1446.4,1342.37 1446.4,1384.24 1471.42,1384.24 1471.42,1342.37 1446.4,1342.37 
  "/>
<path clip-path="url(#clip263)" d="
M1471.42 1384.24 L1471.42 1384.24 L1496.44 1384.24 L1496.44 1384.24 L1471.42 1384.24 L1471.42 1384.24  Z
  " fill="#009af9" fill-rule="evenodd" fill-opacity="1"/>
<polyline clip-path="url(#clip263)" style="stroke:#000000; stroke-linecap:butt; stroke-linejoin:round; stroke-width:4; stroke-opacity:1; fill:none" points="
  1471.42,1384.24 1471.42,1384.24 1496.44,1384.24 1471.42,1384.24 
  "/>
<path clip-path="url(#clip263)" d="
M1496.44 1300.49 L1496.44 1384.24 L1521.46 1384.24 L1521.46 1300.49 L1496.44 1300.49 L1496.44 1300.49  Z
  " fill="#009af9" fill-rule="evenodd" fill-opacity="1"/>
<polyline clip-path="url(#clip263)" style="stroke:#000000; stroke-linecap:butt; stroke-linejoin:round; stroke-width:4; stroke-opacity:1; fill:none" points="
  1496.44,1300.49 1496.44,1384.24 1521.46,1384.24 1521.46,1300.49 1496.44,1300.49 
  "/>
<path clip-path="url(#clip263)" d="
M1521.46 1300.49 L1521.46 1384.24 L1546.48 1384.24 L1546.48 1300.49 L1521.46 1300.49 L1521.46 1300.49  Z
  " fill="#009af9" fill-rule="evenodd" fill-opacity="1"/>
<polyline clip-path="url(#clip263)" style="stroke:#000000; stroke-linecap:butt; stroke-linejoin:round; stroke-width:4; stroke-opacity:1; fill:none" points="
  1521.46,1300.49 1521.46,1384.24 1546.48,1384.24 1546.48,1300.49 1521.46,1300.49 
  "/>
<path clip-path="url(#clip263)" d="
M1546.48 1342.37 L1546.48 1384.24 L1571.5 1384.24 L1571.5 1342.37 L1546.48 1342.37 L1546.48 1342.37  Z
  " fill="#009af9" fill-rule="evenodd" fill-opacity="1"/>
<polyline clip-path="url(#clip263)" style="stroke:#000000; stroke-linecap:butt; stroke-linejoin:round; stroke-width:4; stroke-opacity:1; fill:none" points="
  1546.48,1342.37 1546.48,1384.24 1571.5,1384.24 1571.5,1342.37 1546.48,1342.37 
  "/>
<path clip-path="url(#clip263)" d="
M1571.5 1342.37 L1571.5 1384.24 L1596.52 1384.24 L1596.52 1342.37 L1571.5 1342.37 L1571.5 1342.37  Z
  " fill="#009af9" fill-rule="evenodd" fill-opacity="1"/>
<polyline clip-path="url(#clip263)" style="stroke:#000000; stroke-linecap:butt; stroke-linejoin:round; stroke-width:4; stroke-opacity:1; fill:none" points="
  1571.5,1342.37 1571.5,1384.24 1596.52,1384.24 1596.52,1342.37 1571.5,1342.37 
  "/>
<path clip-path="url(#clip263)" d="
M1596.52 1216.75 L1596.52 1384.24 L1621.54 1384.24 L1621.54 1216.75 L1596.52 1216.75 L1596.52 1216.75  Z
  " fill="#009af9" fill-rule="evenodd" fill-opacity="1"/>
<polyline clip-path="url(#clip263)" style="stroke:#000000; stroke-linecap:butt; stroke-linejoin:round; stroke-width:4; stroke-opacity:1; fill:none" points="
  1596.52,1216.75 1596.52,1384.24 1621.54,1384.24 1621.54,1216.75 1596.52,1216.75 
  "/>
<path clip-path="url(#clip263)" d="
M1621.54 1342.37 L1621.54 1384.24 L1646.56 1384.24 L1646.56 1342.37 L1621.54 1342.37 L1621.54 1342.37  Z
  " fill="#009af9" fill-rule="evenodd" fill-opacity="1"/>
<polyline clip-path="url(#clip263)" style="stroke:#000000; stroke-linecap:butt; stroke-linejoin:round; stroke-width:4; stroke-opacity:1; fill:none" points="
  1621.54,1342.37 1621.54,1384.24 1646.56,1384.24 1646.56,1342.37 1621.54,1342.37 
  "/>
<path clip-path="url(#clip263)" d="
M1646.56 1258.62 L1646.56 1384.24 L1671.58 1384.24 L1671.58 1258.62 L1646.56 1258.62 L1646.56 1258.62  Z
  " fill="#009af9" fill-rule="evenodd" fill-opacity="1"/>
<polyline clip-path="url(#clip263)" style="stroke:#000000; stroke-linecap:butt; stroke-linejoin:round; stroke-width:4; stroke-opacity:1; fill:none" points="
  1646.56,1258.62 1646.56,1384.24 1671.58,1384.24 1671.58,1258.62 1646.56,1258.62 
  "/>
<path clip-path="url(#clip263)" d="
M1671.58 1258.62 L1671.58 1384.24 L1696.6 1384.24 L1696.6 1258.62 L1671.58 1258.62 L1671.58 1258.62  Z
  " fill="#009af9" fill-rule="evenodd" fill-opacity="1"/>
<polyline clip-path="url(#clip263)" style="stroke:#000000; stroke-linecap:butt; stroke-linejoin:round; stroke-width:4; stroke-opacity:1; fill:none" points="
  1671.58,1258.62 1671.58,1384.24 1696.6,1384.24 1696.6,1258.62 1671.58,1258.62 
  "/>
<path clip-path="url(#clip263)" d="
M1696.6 1258.62 L1696.6 1384.24 L1721.62 1384.24 L1721.62 1258.62 L1696.6 1258.62 L1696.6 1258.62  Z
  " fill="#009af9" fill-rule="evenodd" fill-opacity="1"/>
<polyline clip-path="url(#clip263)" style="stroke:#000000; stroke-linecap:butt; stroke-linejoin:round; stroke-width:4; stroke-opacity:1; fill:none" points="
  1696.6,1258.62 1696.6,1384.24 1721.62,1384.24 1721.62,1258.62 1696.6,1258.62 
  "/>
<path clip-path="url(#clip263)" d="
M1721.62 1216.75 L1721.62 1384.24 L1746.64 1384.24 L1746.64 1216.75 L1721.62 1216.75 L1721.62 1216.75  Z
  " fill="#009af9" fill-rule="evenodd" fill-opacity="1"/>
<polyline clip-path="url(#clip263)" style="stroke:#000000; stroke-linecap:butt; stroke-linejoin:round; stroke-width:4; stroke-opacity:1; fill:none" points="
  1721.62,1216.75 1721.62,1384.24 1746.64,1384.24 1746.64,1216.75 1721.62,1216.75 
  "/>
<path clip-path="url(#clip263)" d="
M1746.64 1300.49 L1746.64 1384.24 L1771.66 1384.24 L1771.66 1300.49 L1746.64 1300.49 L1746.64 1300.49  Z
  " fill="#009af9" fill-rule="evenodd" fill-opacity="1"/>
<polyline clip-path="url(#clip263)" style="stroke:#000000; stroke-linecap:butt; stroke-linejoin:round; stroke-width:4; stroke-opacity:1; fill:none" points="
  1746.64,1300.49 1746.64,1384.24 1771.66,1384.24 1771.66,1300.49 1746.64,1300.49 
  "/>
<path clip-path="url(#clip263)" d="
M1771.66 1174.87 L1771.66 1384.24 L1796.69 1384.24 L1796.69 1174.87 L1771.66 1174.87 L1771.66 1174.87  Z
  " fill="#009af9" fill-rule="evenodd" fill-opacity="1"/>
<polyline clip-path="url(#clip263)" style="stroke:#000000; stroke-linecap:butt; stroke-linejoin:round; stroke-width:4; stroke-opacity:1; fill:none" points="
  1771.66,1174.87 1771.66,1384.24 1796.69,1384.24 1796.69,1174.87 1771.66,1174.87 
  "/>
<path clip-path="url(#clip263)" d="
M1796.69 1300.49 L1796.69 1384.24 L1821.71 1384.24 L1821.71 1300.49 L1796.69 1300.49 L1796.69 1300.49  Z
  " fill="#009af9" fill-rule="evenodd" fill-opacity="1"/>
<polyline clip-path="url(#clip263)" style="stroke:#000000; stroke-linecap:butt; stroke-linejoin:round; stroke-width:4; stroke-opacity:1; fill:none" points="
  1796.69,1300.49 1796.69,1384.24 1821.71,1384.24 1821.71,1300.49 1796.69,1300.49 
  "/>
<path clip-path="url(#clip263)" d="
M1821.71 1216.75 L1821.71 1384.24 L1846.73 1384.24 L1846.73 1216.75 L1821.71 1216.75 L1821.71 1216.75  Z
  " fill="#009af9" fill-rule="evenodd" fill-opacity="1"/>
<polyline clip-path="url(#clip263)" style="stroke:#000000; stroke-linecap:butt; stroke-linejoin:round; stroke-width:4; stroke-opacity:1; fill:none" points="
  1821.71,1216.75 1821.71,1384.24 1846.73,1384.24 1846.73,1216.75 1821.71,1216.75 
  "/>
<path clip-path="url(#clip263)" d="
M1846.73 1300.49 L1846.73 1384.24 L1871.75 1384.24 L1871.75 1300.49 L1846.73 1300.49 L1846.73 1300.49  Z
  " fill="#009af9" fill-rule="evenodd" fill-opacity="1"/>
<polyline clip-path="url(#clip263)" style="stroke:#000000; stroke-linecap:butt; stroke-linejoin:round; stroke-width:4; stroke-opacity:1; fill:none" points="
  1846.73,1300.49 1846.73,1384.24 1871.75,1384.24 1871.75,1300.49 1846.73,1300.49 
  "/>
<path clip-path="url(#clip263)" d="
M1871.75 1049.26 L1871.75 1384.24 L1896.77 1384.24 L1896.77 1049.26 L1871.75 1049.26 L1871.75 1049.26  Z
  " fill="#009af9" fill-rule="evenodd" fill-opacity="1"/>
<polyline clip-path="url(#clip263)" style="stroke:#000000; stroke-linecap:butt; stroke-linejoin:round; stroke-width:4; stroke-opacity:1; fill:none" points="
  1871.75,1049.26 1871.75,1384.24 1896.77,1384.24 1896.77,1049.26 1871.75,1049.26 
  "/>
<path clip-path="url(#clip263)" d="
M1896.77 1049.26 L1896.77 1384.24 L1921.79 1384.24 L1921.79 1049.26 L1896.77 1049.26 L1896.77 1049.26  Z
  " fill="#009af9" fill-rule="evenodd" fill-opacity="1"/>
<polyline clip-path="url(#clip263)" style="stroke:#000000; stroke-linecap:butt; stroke-linejoin:round; stroke-width:4; stroke-opacity:1; fill:none" points="
  1896.77,1049.26 1896.77,1384.24 1921.79,1384.24 1921.79,1049.26 1896.77,1049.26 
  "/>
<path clip-path="url(#clip263)" d="
M1921.79 1133 L1921.79 1384.24 L1946.81 1384.24 L1946.81 1133 L1921.79 1133 L1921.79 1133  Z
  " fill="#009af9" fill-rule="evenodd" fill-opacity="1"/>
<polyline clip-path="url(#clip263)" style="stroke:#000000; stroke-linecap:butt; stroke-linejoin:round; stroke-width:4; stroke-opacity:1; fill:none" points="
  1921.79,1133 1921.79,1384.24 1946.81,1384.24 1946.81,1133 1921.79,1133 
  "/>
<path clip-path="url(#clip263)" d="
M1946.81 1133 L1946.81 1384.24 L1971.83 1384.24 L1971.83 1133 L1946.81 1133 L1946.81 1133  Z
  " fill="#009af9" fill-rule="evenodd" fill-opacity="1"/>
<polyline clip-path="url(#clip263)" style="stroke:#000000; stroke-linecap:butt; stroke-linejoin:round; stroke-width:4; stroke-opacity:1; fill:none" points="
  1946.81,1133 1946.81,1384.24 1971.83,1384.24 1971.83,1133 1946.81,1133 
  "/>
<path clip-path="url(#clip263)" d="
M1971.83 1007.38 L1971.83 1384.24 L1996.85 1384.24 L1996.85 1007.38 L1971.83 1007.38 L1971.83 1007.38  Z
  " fill="#009af9" fill-rule="evenodd" fill-opacity="1"/>
<polyline clip-path="url(#clip263)" style="stroke:#000000; stroke-linecap:butt; stroke-linejoin:round; stroke-width:4; stroke-opacity:1; fill:none" points="
  1971.83,1007.38 1971.83,1384.24 1996.85,1384.24 1996.85,1007.38 1971.83,1007.38 
  "/>
<path clip-path="url(#clip263)" d="
M1996.85 923.639 L1996.85 1384.24 L2021.87 1384.24 L2021.87 923.639 L1996.85 923.639 L1996.85 923.639  Z
  " fill="#009af9" fill-rule="evenodd" fill-opacity="1"/>
<polyline clip-path="url(#clip263)" style="stroke:#000000; stroke-linecap:butt; stroke-linejoin:round; stroke-width:4; stroke-opacity:1; fill:none" points="
  1996.85,923.639 1996.85,1384.24 2021.87,1384.24 2021.87,923.639 1996.85,923.639 
  "/>
<path clip-path="url(#clip263)" d="
M2021.87 923.639 L2021.87 1384.24 L2046.89 1384.24 L2046.89 923.639 L2021.87 923.639 L2021.87 923.639  Z
  " fill="#009af9" fill-rule="evenodd" fill-opacity="1"/>
<polyline clip-path="url(#clip263)" style="stroke:#000000; stroke-linecap:butt; stroke-linejoin:round; stroke-width:4; stroke-opacity:1; fill:none" points="
  2021.87,923.639 2021.87,1384.24 2046.89,1384.24 2046.89,923.639 2021.87,923.639 
  "/>
<path clip-path="url(#clip263)" d="
M2046.89 798.021 L2046.89 1384.24 L2071.91 1384.24 L2071.91 798.021 L2046.89 798.021 L2046.89 798.021  Z
  " fill="#009af9" fill-rule="evenodd" fill-opacity="1"/>
<polyline clip-path="url(#clip263)" style="stroke:#000000; stroke-linecap:butt; stroke-linejoin:round; stroke-width:4; stroke-opacity:1; fill:none" points="
  2046.89,798.021 2046.89,1384.24 2071.91,1384.24 2071.91,798.021 2046.89,798.021 
  "/>
<path clip-path="url(#clip263)" d="
M2071.91 965.512 L2071.91 1384.24 L2096.93 1384.24 L2096.93 965.512 L2071.91 965.512 L2071.91 965.512  Z
  " fill="#009af9" fill-rule="evenodd" fill-opacity="1"/>
<polyline clip-path="url(#clip263)" style="stroke:#000000; stroke-linecap:butt; stroke-linejoin:round; stroke-width:4; stroke-opacity:1; fill:none" points="
  2071.91,965.512 2071.91,1384.24 2096.93,1384.24 2096.93,965.512 2071.91,965.512 
  "/>
<path clip-path="url(#clip263)" d="
M2096.93 839.894 L2096.93 1384.24 L2121.95 1384.24 L2121.95 839.894 L2096.93 839.894 L2096.93 839.894  Z
  " fill="#009af9" fill-rule="evenodd" fill-opacity="1"/>
<polyline clip-path="url(#clip263)" style="stroke:#000000; stroke-linecap:butt; stroke-linejoin:round; stroke-width:4; stroke-opacity:1; fill:none" points="
  2096.93,839.894 2096.93,1384.24 2121.95,1384.24 2121.95,839.894 2096.93,839.894 
  "/>
<path clip-path="url(#clip263)" d="
M2121.95 714.276 L2121.95 1384.24 L2146.97 1384.24 L2146.97 714.276 L2121.95 714.276 L2121.95 714.276  Z
  " fill="#009af9" fill-rule="evenodd" fill-opacity="1"/>
<polyline clip-path="url(#clip263)" style="stroke:#000000; stroke-linecap:butt; stroke-linejoin:round; stroke-width:4; stroke-opacity:1; fill:none" points="
  2121.95,714.276 2121.95,1384.24 2146.97,1384.24 2146.97,714.276 2121.95,714.276 
  "/>
<path clip-path="url(#clip263)" d="
M2146.97 630.53 L2146.97 1384.24 L2171.99 1384.24 L2171.99 630.53 L2146.97 630.53 L2146.97 630.53  Z
  " fill="#009af9" fill-rule="evenodd" fill-opacity="1"/>
<polyline clip-path="url(#clip263)" style="stroke:#000000; stroke-linecap:butt; stroke-linejoin:round; stroke-width:4; stroke-opacity:1; fill:none" points="
  2146.97,630.53 2146.97,1384.24 2171.99,1384.24 2171.99,630.53 2146.97,630.53 
  "/>
<path clip-path="url(#clip263)" d="
M2171.99 504.912 L2171.99 1384.24 L2197.01 1384.24 L2197.01 504.912 L2171.99 504.912 L2171.99 504.912  Z
  " fill="#009af9" fill-rule="evenodd" fill-opacity="1"/>
<polyline clip-path="url(#clip263)" style="stroke:#000000; stroke-linecap:butt; stroke-linejoin:round; stroke-width:4; stroke-opacity:1; fill:none" points="
  2171.99,504.912 2171.99,1384.24 2197.01,1384.24 2197.01,504.912 2171.99,504.912 
  "/>
<path clip-path="url(#clip263)" d="
M2197.01 714.276 L2197.01 1384.24 L2222.03 1384.24 L2222.03 714.276 L2197.01 714.276 L2197.01 714.276  Z
  " fill="#009af9" fill-rule="evenodd" fill-opacity="1"/>
<polyline clip-path="url(#clip263)" style="stroke:#000000; stroke-linecap:butt; stroke-linejoin:round; stroke-width:4; stroke-opacity:1; fill:none" points="
  2197.01,714.276 2197.01,1384.24 2222.03,1384.24 2222.03,714.276 2197.01,714.276 
  "/>
<path clip-path="url(#clip263)" d="
M2222.03 86.1857 L2222.03 1384.24 L2247.05 1384.24 L2247.05 86.1857 L2222.03 86.1857 L2222.03 86.1857  Z
  " fill="#009af9" fill-rule="evenodd" fill-opacity="1"/>
<polyline clip-path="url(#clip263)" style="stroke:#000000; stroke-linecap:butt; stroke-linejoin:round; stroke-width:4; stroke-opacity:1; fill:none" points="
  2222.03,86.1857 2222.03,1384.24 2247.05,1384.24 2247.05,86.1857 2222.03,86.1857 
  "/>
<path clip-path="url(#clip263)" d="
M2247.05 714.276 L2247.05 1384.24 L2272.07 1384.24 L2272.07 714.276 L2247.05 714.276 L2247.05 714.276  Z
  " fill="#009af9" fill-rule="evenodd" fill-opacity="1"/>
<polyline clip-path="url(#clip263)" style="stroke:#000000; stroke-linecap:butt; stroke-linejoin:round; stroke-width:4; stroke-opacity:1; fill:none" points="
  2247.05,714.276 2247.05,1384.24 2272.07,1384.24 2272.07,714.276 2247.05,714.276 
  "/>
<path clip-path="url(#clip263)" d="
M2272.07 798.021 L2272.07 1384.24 L2297.09 1384.24 L2297.09 798.021 L2272.07 798.021 L2272.07 798.021  Z
  " fill="#009af9" fill-rule="evenodd" fill-opacity="1"/>
<polyline clip-path="url(#clip263)" style="stroke:#000000; stroke-linecap:butt; stroke-linejoin:round; stroke-width:4; stroke-opacity:1; fill:none" points="
  2272.07,798.021 2272.07,1384.24 2297.09,1384.24 2297.09,798.021 2272.07,798.021 
  "/>
<circle clip-path="url(#clip263)" style="fill:#009af9; stroke:none; fill-opacity:0" cx="1408.87" cy="1300.49" r="2"/>
<circle clip-path="url(#clip263)" style="fill:#009af9; stroke:none; fill-opacity:0" cx="1433.89" cy="1342.37" r="2"/>
<circle clip-path="url(#clip263)" style="fill:#009af9; stroke:none; fill-opacity:0" cx="1458.91" cy="1342.37" r="2"/>
<circle clip-path="url(#clip263)" style="fill:#009af9; stroke:none; fill-opacity:0" cx="1483.93" cy="1384.24" r="2"/>
<circle clip-path="url(#clip263)" style="fill:#009af9; stroke:none; fill-opacity:0" cx="1508.95" cy="1300.49" r="2"/>
<circle clip-path="url(#clip263)" style="fill:#009af9; stroke:none; fill-opacity:0" cx="1533.97" cy="1300.49" r="2"/>
<circle clip-path="url(#clip263)" style="fill:#009af9; stroke:none; fill-opacity:0" cx="1558.99" cy="1342.37" r="2"/>
<circle clip-path="url(#clip263)" style="fill:#009af9; stroke:none; fill-opacity:0" cx="1584.01" cy="1342.37" r="2"/>
<circle clip-path="url(#clip263)" style="fill:#009af9; stroke:none; fill-opacity:0" cx="1609.03" cy="1216.75" r="2"/>
<circle clip-path="url(#clip263)" style="fill:#009af9; stroke:none; fill-opacity:0" cx="1634.05" cy="1342.37" r="2"/>
<circle clip-path="url(#clip263)" style="fill:#009af9; stroke:none; fill-opacity:0" cx="1659.07" cy="1258.62" r="2"/>
<circle clip-path="url(#clip263)" style="fill:#009af9; stroke:none; fill-opacity:0" cx="1684.09" cy="1258.62" r="2"/>
<circle clip-path="url(#clip263)" style="fill:#009af9; stroke:none; fill-opacity:0" cx="1709.11" cy="1258.62" r="2"/>
<circle clip-path="url(#clip263)" style="fill:#009af9; stroke:none; fill-opacity:0" cx="1734.13" cy="1216.75" r="2"/>
<circle clip-path="url(#clip263)" style="fill:#009af9; stroke:none; fill-opacity:0" cx="1759.15" cy="1300.49" r="2"/>
<circle clip-path="url(#clip263)" style="fill:#009af9; stroke:none; fill-opacity:0" cx="1784.18" cy="1174.87" r="2"/>
<circle clip-path="url(#clip263)" style="fill:#009af9; stroke:none; fill-opacity:0" cx="1809.2" cy="1300.49" r="2"/>
<circle clip-path="url(#clip263)" style="fill:#009af9; stroke:none; fill-opacity:0" cx="1834.22" cy="1216.75" r="2"/>
<circle clip-path="url(#clip263)" style="fill:#009af9; stroke:none; fill-opacity:0" cx="1859.24" cy="1300.49" r="2"/>
<circle clip-path="url(#clip263)" style="fill:#009af9; stroke:none; fill-opacity:0" cx="1884.26" cy="1049.26" r="2"/>
<circle clip-path="url(#clip263)" style="fill:#009af9; stroke:none; fill-opacity:0" cx="1909.28" cy="1049.26" r="2"/>
<circle clip-path="url(#clip263)" style="fill:#009af9; stroke:none; fill-opacity:0" cx="1934.3" cy="1133" r="2"/>
<circle clip-path="url(#clip263)" style="fill:#009af9; stroke:none; fill-opacity:0" cx="1959.32" cy="1133" r="2"/>
<circle clip-path="url(#clip263)" style="fill:#009af9; stroke:none; fill-opacity:0" cx="1984.34" cy="1007.38" r="2"/>
<circle clip-path="url(#clip263)" style="fill:#009af9; stroke:none; fill-opacity:0" cx="2009.36" cy="923.639" r="2"/>
<circle clip-path="url(#clip263)" style="fill:#009af9; stroke:none; fill-opacity:0" cx="2034.38" cy="923.639" r="2"/>
<circle clip-path="url(#clip263)" style="fill:#009af9; stroke:none; fill-opacity:0" cx="2059.4" cy="798.021" r="2"/>
<circle clip-path="url(#clip263)" style="fill:#009af9; stroke:none; fill-opacity:0" cx="2084.42" cy="965.512" r="2"/>
<circle clip-path="url(#clip263)" style="fill:#009af9; stroke:none; fill-opacity:0" cx="2109.44" cy="839.894" r="2"/>
<circle clip-path="url(#clip263)" style="fill:#009af9; stroke:none; fill-opacity:0" cx="2134.46" cy="714.276" r="2"/>
<circle clip-path="url(#clip263)" style="fill:#009af9; stroke:none; fill-opacity:0" cx="2159.48" cy="630.53" r="2"/>
<circle clip-path="url(#clip263)" style="fill:#009af9; stroke:none; fill-opacity:0" cx="2184.5" cy="504.912" r="2"/>
<circle clip-path="url(#clip263)" style="fill:#009af9; stroke:none; fill-opacity:0" cx="2209.52" cy="714.276" r="2"/>
<circle clip-path="url(#clip263)" style="fill:#009af9; stroke:none; fill-opacity:0" cx="2234.54" cy="86.1857" r="2"/>
<circle clip-path="url(#clip263)" style="fill:#009af9; stroke:none; fill-opacity:0" cx="2259.56" cy="714.276" r="2"/>
<circle clip-path="url(#clip263)" style="fill:#009af9; stroke:none; fill-opacity:0" cx="2284.58" cy="798.021" r="2"/>
</svg>
