<?xml version="1.0" encoding="utf-8"?>
<svg xmlns="http://www.w3.org/2000/svg" xmlns:xlink="http://www.w3.org/1999/xlink" width="600" height="400" viewBox="0 0 2400 1600">
<defs>
  <clipPath id="clip140">
    <rect x="0" y="0" width="2400" height="1600"/>
  </clipPath>
</defs>
<path clip-path="url(#clip140)" d="
M0 1600 L2400 1600 L2400 0 L0 0  Z
  " fill="#ffffff" fill-rule="evenodd" fill-opacity="1"/>
<defs>
  <clipPath id="clip141">
    <rect x="480" y="0" width="1681" height="1600"/>
  </clipPath>
</defs>
<path clip-path="url(#clip140)" d="
M287.852 1423.18 L2352.76 1423.18 L2352.76 47.2441 L287.852 47.2441  Z
  " fill="#ffffff" fill-rule="evenodd" fill-opacity="1"/>
<defs>
  <clipPath id="clip142">
    <rect x="287" y="47" width="2066" height="1377"/>
  </clipPath>
</defs>
<polyline clip-path="url(#clip142)" style="stroke:#000000; stroke-linecap:butt; stroke-linejoin:round; stroke-width:2; stroke-opacity:0.1; fill:none" points="
  468.044,1423.18 468.044,47.2441 
  "/>
<polyline clip-path="url(#clip142)" style="stroke:#000000; stroke-linecap:butt; stroke-linejoin:round; stroke-width:2; stroke-opacity:0.1; fill:none" points="
  772.423,1423.18 772.423,47.2441 
  "/>
<polyline clip-path="url(#clip142)" style="stroke:#000000; stroke-linecap:butt; stroke-linejoin:round; stroke-width:2; stroke-opacity:0.1; fill:none" points="
  1076.8,1423.18 1076.8,47.2441 
  "/>
<polyline clip-path="url(#clip142)" style="stroke:#000000; stroke-linecap:butt; stroke-linejoin:round; stroke-width:2; stroke-opacity:0.1; fill:none" points="
  1381.18,1423.18 1381.18,47.2441 
  "/>
<polyline clip-path="url(#clip142)" style="stroke:#000000; stroke-linecap:butt; stroke-linejoin:round; stroke-width:2; stroke-opacity:0.1; fill:none" points="
  1685.56,1423.18 1685.56,47.2441 
  "/>
<polyline clip-path="url(#clip142)" style="stroke:#000000; stroke-linecap:butt; stroke-linejoin:round; stroke-width:2; stroke-opacity:0.1; fill:none" points="
  1989.94,1423.18 1989.94,47.2441 
  "/>
<polyline clip-path="url(#clip142)" style="stroke:#000000; stroke-linecap:butt; stroke-linejoin:round; stroke-width:2; stroke-opacity:0.1; fill:none" points="
  2294.32,1423.18 2294.32,47.2441 
  "/>
<polyline clip-path="url(#clip140)" style="stroke:#000000; stroke-linecap:butt; stroke-linejoin:round; stroke-width:4; stroke-opacity:1; fill:none" points="
  287.852,1423.18 2352.76,1423.18 
  "/>
<polyline clip-path="url(#clip140)" style="stroke:#000000; stroke-linecap:butt; stroke-linejoin:round; stroke-width:4; stroke-opacity:1; fill:none" points="
  468.044,1423.18 468.044,1404.28 
  "/>
<polyline clip-path="url(#clip140)" style="stroke:#000000; stroke-linecap:butt; stroke-linejoin:round; stroke-width:4; stroke-opacity:1; fill:none" points="
  772.423,1423.18 772.423,1404.28 
  "/>
<polyline clip-path="url(#clip140)" style="stroke:#000000; stroke-linecap:butt; stroke-linejoin:round; stroke-width:4; stroke-opacity:1; fill:none" points="
  1076.8,1423.18 1076.8,1404.28 
  "/>
<polyline clip-path="url(#clip140)" style="stroke:#000000; stroke-linecap:butt; stroke-linejoin:round; stroke-width:4; stroke-opacity:1; fill:none" points="
  1381.18,1423.18 1381.18,1404.28 
  "/>
<polyline clip-path="url(#clip140)" style="stroke:#000000; stroke-linecap:butt; stroke-linejoin:round; stroke-width:4; stroke-opacity:1; fill:none" points="
  1685.56,1423.18 1685.56,1404.28 
  "/>
<polyline clip-path="url(#clip140)" style="stroke:#000000; stroke-linecap:butt; stroke-linejoin:round; stroke-width:4; stroke-opacity:1; fill:none" points="
  1989.94,1423.18 1989.94,1404.28 
  "/>
<polyline clip-path="url(#clip140)" style="stroke:#000000; stroke-linecap:butt; stroke-linejoin:round; stroke-width:4; stroke-opacity:1; fill:none" points="
  2294.32,1423.18 2294.32,1404.28 
  "/>
<path clip-path="url(#clip140)" d="M456.887 1465.22 Q460.243 1465.94 462.118 1468.2 Q464.016 1470.47 464.016 1473.81 Q464.016 1478.92 460.498 1481.72 Q456.979 1484.52 450.498 1484.52 Q448.322 1484.52 446.007 1484.08 Q443.716 1483.67 441.262 1482.81 L441.262 1478.3 Q443.206 1479.43 445.521 1480.01 Q447.836 1480.59 450.359 1480.59 Q454.757 1480.59 457.049 1478.85 Q459.364 1477.12 459.364 1473.81 Q459.364 1470.75 457.211 1469.04 Q455.081 1467.3 451.262 1467.3 L447.234 1467.3 L447.234 1463.46 L451.447 1463.46 Q454.896 1463.46 456.725 1462.09 Q458.553 1460.7 458.553 1458.11 Q458.553 1455.45 456.655 1454.04 Q454.78 1452.6 451.262 1452.6 Q449.34 1452.6 447.141 1453.02 Q444.942 1453.44 442.303 1454.31 L442.303 1450.15 Q444.966 1449.41 447.28 1449.04 Q449.618 1448.67 451.678 1448.67 Q457.002 1448.67 460.104 1451.1 Q463.206 1453.5 463.206 1457.63 Q463.206 1460.5 461.563 1462.49 Q459.919 1464.45 456.887 1465.22 Z" fill="#000000" fill-rule="evenodd" fill-opacity="1" /><path clip-path="url(#clip140)" d="M482.882 1452.37 Q479.271 1452.37 477.442 1455.94 Q475.637 1459.48 475.637 1466.61 Q475.637 1473.71 477.442 1477.28 Q479.271 1480.82 482.882 1480.82 Q486.516 1480.82 488.322 1477.28 Q490.15 1473.71 490.15 1466.61 Q490.15 1459.48 488.322 1455.94 Q486.516 1452.37 482.882 1452.37 M482.882 1448.67 Q488.692 1448.67 491.748 1453.27 Q494.826 1457.86 494.826 1466.61 Q494.826 1475.33 491.748 1479.94 Q488.692 1484.52 482.882 1484.52 Q477.072 1484.52 473.993 1479.94 Q470.938 1475.33 470.938 1466.61 Q470.938 1457.86 473.993 1453.27 Q477.072 1448.67 482.882 1448.67 Z" fill="#000000" fill-rule="evenodd" fill-opacity="1" /><path clip-path="url(#clip140)" d="M760.594 1453.37 L748.788 1471.81 L760.594 1471.81 L760.594 1453.37 M759.367 1449.29 L765.247 1449.29 L765.247 1471.81 L770.177 1471.81 L770.177 1475.7 L765.247 1475.7 L765.247 1483.85 L760.594 1483.85 L760.594 1475.7 L744.992 1475.7 L744.992 1471.19 L759.367 1449.29 Z" fill="#000000" fill-rule="evenodd" fill-opacity="1" /><path clip-path="url(#clip140)" d="M787.909 1452.37 Q784.298 1452.37 782.469 1455.94 Q780.663 1459.48 780.663 1466.61 Q780.663 1473.71 782.469 1477.28 Q784.298 1480.82 787.909 1480.82 Q791.543 1480.82 793.348 1477.28 Q795.177 1473.71 795.177 1466.61 Q795.177 1459.48 793.348 1455.94 Q791.543 1452.37 787.909 1452.37 M787.909 1448.67 Q793.719 1448.67 796.774 1453.27 Q799.853 1457.86 799.853 1466.61 Q799.853 1475.33 796.774 1479.94 Q793.719 1484.52 787.909 1484.52 Q782.098 1484.52 779.02 1479.94 Q775.964 1475.33 775.964 1466.61 Q775.964 1457.86 779.02 1453.27 Q782.098 1448.67 787.909 1448.67 Z" fill="#000000" fill-rule="evenodd" fill-opacity="1" /><path clip-path="url(#clip140)" d="M1051.5 1449.29 L1069.86 1449.29 L1069.86 1453.23 L1055.78 1453.23 L1055.78 1461.7 Q1056.8 1461.35 1057.82 1461.19 Q1058.84 1461 1059.86 1461 Q1065.64 1461 1069.02 1464.18 Q1072.4 1467.35 1072.4 1472.76 Q1072.4 1478.34 1068.93 1481.44 Q1065.46 1484.52 1059.14 1484.52 Q1056.96 1484.52 1054.69 1484.15 Q1052.45 1483.78 1050.04 1483.04 L1050.04 1478.34 Q1052.13 1479.48 1054.35 1480.03 Q1056.57 1480.59 1059.05 1480.59 Q1063.05 1480.59 1065.39 1478.48 Q1067.73 1476.38 1067.73 1472.76 Q1067.73 1469.15 1065.39 1467.05 Q1063.05 1464.94 1059.05 1464.94 Q1057.17 1464.94 1055.3 1465.36 Q1053.44 1465.77 1051.5 1466.65 L1051.5 1449.29 Z" fill="#000000" fill-rule="evenodd" fill-opacity="1" /><path clip-path="url(#clip140)" d="M1091.62 1452.37 Q1088 1452.37 1086.18 1455.94 Q1084.37 1459.48 1084.37 1466.61 Q1084.37 1473.71 1086.18 1477.28 Q1088 1480.82 1091.62 1480.82 Q1095.25 1480.82 1097.06 1477.28 Q1098.88 1473.71 1098.88 1466.61 Q1098.88 1459.48 1097.06 1455.94 Q1095.25 1452.37 1091.62 1452.37 M1091.62 1448.67 Q1097.43 1448.67 1100.48 1453.27 Q1103.56 1457.86 1103.56 1466.61 Q1103.56 1475.33 1100.48 1479.94 Q1097.43 1484.52 1091.62 1484.52 Q1085.81 1484.52 1082.73 1479.94 Q1079.67 1475.33 1079.67 1466.61 Q1079.67 1457.86 1082.73 1453.27 Q1085.81 1448.67 1091.62 1448.67 Z" fill="#000000" fill-rule="evenodd" fill-opacity="1" /><path clip-path="url(#clip140)" d="M1366.58 1464.71 Q1363.44 1464.71 1361.58 1466.86 Q1359.76 1469.01 1359.76 1472.76 Q1359.76 1476.49 1361.58 1478.67 Q1363.44 1480.82 1366.58 1480.82 Q1369.73 1480.82 1371.56 1478.67 Q1373.41 1476.49 1373.41 1472.76 Q1373.41 1469.01 1371.56 1466.86 Q1369.73 1464.71 1366.58 1464.71 M1375.87 1450.06 L1375.87 1454.31 Q1374.11 1453.48 1372.3 1453.04 Q1370.52 1452.6 1368.76 1452.6 Q1364.13 1452.6 1361.68 1455.73 Q1359.25 1458.85 1358.9 1465.17 Q1360.27 1463.16 1362.33 1462.09 Q1364.39 1461 1366.86 1461 Q1372.07 1461 1375.08 1464.18 Q1378.11 1467.32 1378.11 1472.76 Q1378.11 1478.09 1374.96 1481.31 Q1371.82 1484.52 1366.58 1484.52 Q1360.59 1484.52 1357.42 1479.94 Q1354.25 1475.33 1354.25 1466.61 Q1354.25 1458.41 1358.14 1453.55 Q1362.02 1448.67 1368.58 1448.67 Q1370.33 1448.67 1372.12 1449.01 Q1373.92 1449.36 1375.87 1450.06 Z" fill="#000000" fill-rule="evenodd" fill-opacity="1" /><path clip-path="url(#clip140)" d="M1396.17 1452.37 Q1392.56 1452.37 1390.73 1455.94 Q1388.92 1459.48 1388.92 1466.61 Q1388.92 1473.71 1390.73 1477.28 Q1392.56 1480.82 1396.17 1480.82 Q1399.8 1480.82 1401.61 1477.28 Q1403.44 1473.71 1403.44 1466.61 Q1403.44 1459.48 1401.61 1455.94 Q1399.8 1452.37 1396.17 1452.37 M1396.17 1448.67 Q1401.98 1448.67 1405.03 1453.27 Q1408.11 1457.86 1408.11 1466.61 Q1408.11 1475.33 1405.03 1479.94 Q1401.98 1484.52 1396.17 1484.52 Q1390.36 1484.52 1387.28 1479.94 Q1384.22 1475.33 1384.22 1466.61 Q1384.22 1457.86 1387.28 1453.27 Q1390.36 1448.67 1396.17 1448.67 Z" fill="#000000" fill-rule="evenodd" fill-opacity="1" /><path clip-path="url(#clip140)" d="M1658.91 1449.29 L1681.14 1449.29 L1681.14 1451.28 L1668.59 1483.85 L1663.71 1483.85 L1675.51 1453.23 L1658.91 1453.23 L1658.91 1449.29 Z" fill="#000000" fill-rule="evenodd" fill-opacity="1" /><path clip-path="url(#clip140)" d="M1700.26 1452.37 Q1696.65 1452.37 1694.82 1455.94 Q1693.01 1459.48 1693.01 1466.61 Q1693.01 1473.71 1694.82 1477.28 Q1696.65 1480.82 1700.26 1480.82 Q1703.89 1480.82 1705.7 1477.28 Q1707.53 1473.71 1707.53 1466.61 Q1707.53 1459.48 1705.7 1455.94 Q1703.89 1452.37 1700.26 1452.37 M1700.26 1448.67 Q1706.07 1448.67 1709.12 1453.27 Q1712.2 1457.86 1712.2 1466.61 Q1712.2 1475.33 1709.12 1479.94 Q1706.07 1484.52 1700.26 1484.52 Q1694.45 1484.52 1691.37 1479.94 Q1688.31 1475.33 1688.31 1466.61 Q1688.31 1457.86 1691.37 1453.27 Q1694.45 1448.67 1700.26 1448.67 Z" fill="#000000" fill-rule="evenodd" fill-opacity="1" /><path clip-path="url(#clip140)" d="M1974.81 1467.44 Q1971.48 1467.44 1969.55 1469.22 Q1967.66 1471 1967.66 1474.13 Q1967.66 1477.25 1969.55 1479.04 Q1971.48 1480.82 1974.81 1480.82 Q1978.14 1480.82 1980.06 1479.04 Q1981.99 1477.23 1981.99 1474.13 Q1981.99 1471 1980.06 1469.22 Q1978.17 1467.44 1974.81 1467.44 M1970.13 1465.45 Q1967.12 1464.71 1965.43 1462.65 Q1963.77 1460.59 1963.77 1457.63 Q1963.77 1453.48 1966.71 1451.07 Q1969.67 1448.67 1974.81 1448.67 Q1979.97 1448.67 1982.91 1451.07 Q1985.85 1453.48 1985.85 1457.63 Q1985.85 1460.59 1984.16 1462.65 Q1982.49 1464.71 1979.51 1465.45 Q1982.89 1466.24 1984.76 1468.53 Q1986.66 1470.82 1986.66 1474.13 Q1986.66 1479.15 1983.58 1481.84 Q1980.53 1484.52 1974.81 1484.52 Q1969.09 1484.52 1966.01 1481.84 Q1962.96 1479.15 1962.96 1474.13 Q1962.96 1470.82 1964.86 1468.53 Q1966.75 1466.24 1970.13 1465.45 M1968.42 1458.06 Q1968.42 1460.75 1970.09 1462.25 Q1971.78 1463.76 1974.81 1463.76 Q1977.82 1463.76 1979.51 1462.25 Q1981.22 1460.75 1981.22 1458.06 Q1981.22 1455.38 1979.51 1453.88 Q1977.82 1452.37 1974.81 1452.37 Q1971.78 1452.37 1970.09 1453.88 Q1968.42 1455.38 1968.42 1458.06 Z" fill="#000000" fill-rule="evenodd" fill-opacity="1" /><path clip-path="url(#clip140)" d="M2004.97 1452.37 Q2001.36 1452.37 1999.53 1455.94 Q1997.73 1459.48 1997.73 1466.61 Q1997.73 1473.71 1999.53 1477.28 Q2001.36 1480.82 2004.97 1480.82 Q2008.61 1480.82 2010.41 1477.28 Q2012.24 1473.71 2012.24 1466.61 Q2012.24 1459.48 2010.41 1455.94 Q2008.61 1452.37 2004.97 1452.37 M2004.97 1448.67 Q2010.78 1448.67 2013.84 1453.27 Q2016.92 1457.86 2016.92 1466.61 Q2016.92 1475.33 2013.84 1479.94 Q2010.78 1484.52 2004.97 1484.52 Q1999.16 1484.52 1996.08 1479.94 Q1993.03 1475.33 1993.03 1466.61 Q1993.03 1457.86 1996.08 1453.27 Q1999.16 1448.67 2004.97 1448.67 Z" fill="#000000" fill-rule="evenodd" fill-opacity="1" /><path clip-path="url(#clip140)" d="M2269.44 1483.13 L2269.44 1478.88 Q2271.2 1479.71 2273.01 1480.15 Q2274.81 1480.59 2276.55 1480.59 Q2281.18 1480.59 2283.61 1477.49 Q2286.06 1474.36 2286.41 1468.02 Q2285.07 1470.01 2283.01 1471.07 Q2280.95 1472.14 2278.45 1472.14 Q2273.26 1472.14 2270.23 1469.01 Q2267.22 1465.87 2267.22 1460.43 Q2267.22 1455.1 2270.37 1451.88 Q2273.52 1448.67 2278.75 1448.67 Q2284.74 1448.67 2287.89 1453.27 Q2291.06 1457.86 2291.06 1466.61 Q2291.06 1474.78 2287.17 1479.66 Q2283.31 1484.52 2276.76 1484.52 Q2275 1484.52 2273.19 1484.18 Q2271.39 1483.83 2269.44 1483.13 M2278.75 1468.48 Q2281.9 1468.48 2283.73 1466.33 Q2285.58 1464.18 2285.58 1460.43 Q2285.58 1456.7 2283.73 1454.55 Q2281.9 1452.37 2278.75 1452.37 Q2275.6 1452.37 2273.75 1454.55 Q2271.92 1456.7 2271.92 1460.43 Q2271.92 1464.18 2273.75 1466.33 Q2275.6 1468.48 2278.75 1468.48 Z" fill="#000000" fill-rule="evenodd" fill-opacity="1" /><path clip-path="url(#clip140)" d="M2309.47 1452.37 Q2305.85 1452.37 2304.03 1455.94 Q2302.22 1459.48 2302.22 1466.61 Q2302.22 1473.71 2304.03 1477.28 Q2305.85 1480.82 2309.47 1480.82 Q2313.1 1480.82 2314.91 1477.28 Q2316.73 1473.71 2316.73 1466.61 Q2316.73 1459.48 2314.91 1455.94 Q2313.1 1452.37 2309.47 1452.37 M2309.47 1448.67 Q2315.28 1448.67 2318.33 1453.27 Q2321.41 1457.86 2321.41 1466.61 Q2321.41 1475.33 2318.33 1479.94 Q2315.28 1484.52 2309.47 1484.52 Q2303.66 1484.52 2300.58 1479.94 Q2297.52 1475.33 2297.52 1466.61 Q2297.52 1457.86 2300.58 1453.27 Q2303.66 1448.67 2309.47 1448.67 Z" fill="#000000" fill-rule="evenodd" fill-opacity="1" /><path clip-path="url(#clip140)" d="M1281.71 1550.12 Q1274.61 1550.12 1271.88 1551.75 Q1269.14 1553.37 1269.14 1557.29 Q1269.14 1560.4 1271.18 1562.25 Q1273.25 1564.07 1276.78 1564.07 Q1281.65 1564.07 1284.58 1560.63 Q1287.54 1557.16 1287.54 1551.43 L1287.54 1550.12 L1281.71 1550.12 M1293.39 1547.71 L1293.39 1568.04 L1287.54 1568.04 L1287.54 1562.63 Q1285.53 1565.88 1282.54 1567.44 Q1279.55 1568.97 1275.22 1568.97 Q1269.74 1568.97 1266.5 1565.91 Q1263.28 1562.82 1263.28 1557.67 Q1263.28 1551.65 1267.29 1548.6 Q1271.34 1545.54 1279.32 1545.54 L1287.54 1545.54 L1287.54 1544.97 Q1287.54 1540.93 1284.86 1538.73 Q1282.22 1536.5 1277.42 1536.5 Q1274.36 1536.5 1271.46 1537.23 Q1268.57 1537.97 1265.89 1539.43 L1265.89 1534.02 Q1269.11 1532.78 1272.13 1532.17 Q1275.16 1531.54 1278.02 1531.54 Q1285.75 1531.54 1289.57 1535.55 Q1293.39 1539.56 1293.39 1547.71 Z" fill="#000000" fill-rule="evenodd" fill-opacity="1" /><path clip-path="url(#clip140)" d="M1328.91 1549.81 Q1328.91 1543.44 1326.27 1539.94 Q1323.66 1536.44 1318.92 1536.44 Q1314.21 1536.44 1311.57 1539.94 Q1308.96 1543.44 1308.96 1549.81 Q1308.96 1556.14 1311.57 1559.64 Q1314.21 1563.14 1318.92 1563.14 Q1323.66 1563.14 1326.27 1559.64 Q1328.91 1556.14 1328.91 1549.81 M1334.77 1563.62 Q1334.77 1572.72 1330.73 1577.15 Q1326.69 1581.6 1318.35 1581.6 Q1315.26 1581.6 1312.52 1581.13 Q1309.78 1580.68 1307.21 1579.72 L1307.21 1574.03 Q1309.78 1575.43 1312.3 1576.1 Q1314.81 1576.76 1317.42 1576.76 Q1323.18 1576.76 1326.05 1573.74 Q1328.91 1570.75 1328.91 1564.67 L1328.91 1561.77 Q1327.1 1564.92 1324.27 1566.48 Q1321.43 1568.04 1317.49 1568.04 Q1310.93 1568.04 1306.92 1563.05 Q1302.91 1558.05 1302.91 1549.81 Q1302.91 1541.53 1306.92 1536.53 Q1310.93 1531.54 1317.49 1531.54 Q1321.43 1531.54 1324.27 1533.1 Q1327.1 1534.66 1328.91 1537.81 L1328.91 1532.4 L1334.77 1532.4 L1334.77 1563.62 Z" fill="#000000" fill-rule="evenodd" fill-opacity="1" /><path clip-path="url(#clip140)" d="M1377.32 1548.76 L1377.32 1551.62 L1350.4 1551.62 Q1350.78 1557.67 1354.03 1560.85 Q1357.3 1564 1363.13 1564 Q1366.5 1564 1369.65 1563.17 Q1372.84 1562.35 1375.96 1560.69 L1375.96 1566.23 Q1372.81 1567.57 1369.49 1568.27 Q1366.18 1568.97 1362.78 1568.97 Q1354.25 1568.97 1349.25 1564 Q1344.29 1559.04 1344.29 1550.57 Q1344.29 1541.82 1349 1536.69 Q1353.74 1531.54 1361.76 1531.54 Q1368.95 1531.54 1373.12 1536.18 Q1377.32 1540.8 1377.32 1548.76 M1371.47 1547.04 Q1371.4 1542.23 1368.76 1539.37 Q1366.15 1536.5 1361.82 1536.5 Q1356.92 1536.5 1353.96 1539.27 Q1351.03 1542.04 1350.59 1547.07 L1371.47 1547.04 Z" fill="#000000" fill-rule="evenodd" fill-opacity="1" /><polyline clip-path="url(#clip142)" style="stroke:#000000; stroke-linecap:butt; stroke-linejoin:round; stroke-width:2; stroke-opacity:0.1; fill:none" points="
  287.852,1307.89 2352.76,1307.89 
  "/>
<polyline clip-path="url(#clip142)" style="stroke:#000000; stroke-linecap:butt; stroke-linejoin:round; stroke-width:2; stroke-opacity:0.1; fill:none" points="
  287.852,1046.98 2352.76,1046.98 
  "/>
<polyline clip-path="url(#clip142)" style="stroke:#000000; stroke-linecap:butt; stroke-linejoin:round; stroke-width:2; stroke-opacity:0.1; fill:none" points="
  287.852,786.072 2352.76,786.072 
  "/>
<polyline clip-path="url(#clip142)" style="stroke:#000000; stroke-linecap:butt; stroke-linejoin:round; stroke-width:2; stroke-opacity:0.1; fill:none" points="
  287.852,525.161 2352.76,525.161 
  "/>
<polyline clip-path="url(#clip142)" style="stroke:#000000; stroke-linecap:butt; stroke-linejoin:round; stroke-width:2; stroke-opacity:0.1; fill:none" points="
  287.852,264.25 2352.76,264.25 
  "/>
<polyline clip-path="url(#clip140)" style="stroke:#000000; stroke-linecap:butt; stroke-linejoin:round; stroke-width:4; stroke-opacity:1; fill:none" points="
  287.852,1423.18 287.852,47.2441 
  "/>
<polyline clip-path="url(#clip140)" style="stroke:#000000; stroke-linecap:butt; stroke-linejoin:round; stroke-width:4; stroke-opacity:1; fill:none" points="
  287.852,1307.89 306.75,1307.89 
  "/>
<polyline clip-path="url(#clip140)" style="stroke:#000000; stroke-linecap:butt; stroke-linejoin:round; stroke-width:4; stroke-opacity:1; fill:none" points="
  287.852,1046.98 306.75,1046.98 
  "/>
<polyline clip-path="url(#clip140)" style="stroke:#000000; stroke-linecap:butt; stroke-linejoin:round; stroke-width:4; stroke-opacity:1; fill:none" points="
  287.852,786.072 306.75,786.072 
  "/>
<polyline clip-path="url(#clip140)" style="stroke:#000000; stroke-linecap:butt; stroke-linejoin:round; stroke-width:4; stroke-opacity:1; fill:none" points="
  287.852,525.161 306.75,525.161 
  "/>
<polyline clip-path="url(#clip140)" style="stroke:#000000; stroke-linecap:butt; stroke-linejoin:round; stroke-width:4; stroke-opacity:1; fill:none" points="
  287.852,264.25 306.75,264.25 
  "/>
<path clip-path="url(#clip140)" d="M114.26 1308.35 L143.936 1308.35 L143.936 1312.28 L114.26 1312.28 L114.26 1308.35 Z" fill="#000000" fill-rule="evenodd" fill-opacity="1" /><path clip-path="url(#clip140)" d="M164.028 1293.69 Q160.417 1293.69 158.589 1297.26 Q156.783 1300.8 156.783 1307.93 Q156.783 1315.04 158.589 1318.6 Q160.417 1322.14 164.028 1322.14 Q167.663 1322.14 169.468 1318.6 Q171.297 1315.04 171.297 1307.93 Q171.297 1300.8 169.468 1297.26 Q167.663 1293.69 164.028 1293.69 M164.028 1289.99 Q169.839 1289.99 172.894 1294.6 Q175.973 1299.18 175.973 1307.93 Q175.973 1316.66 172.894 1321.26 Q169.839 1325.85 164.028 1325.85 Q158.218 1325.85 155.14 1321.26 Q152.084 1316.66 152.084 1307.93 Q152.084 1299.18 155.14 1294.6 Q158.218 1289.99 164.028 1289.99 Z" fill="#000000" fill-rule="evenodd" fill-opacity="1" /><path clip-path="url(#clip140)" d="M184.19 1319.29 L189.075 1319.29 L189.075 1325.17 L184.19 1325.17 L184.19 1319.29 Z" fill="#000000" fill-rule="evenodd" fill-opacity="1" /><path clip-path="url(#clip140)" d="M209.26 1293.69 Q205.649 1293.69 203.82 1297.26 Q202.014 1300.8 202.014 1307.93 Q202.014 1315.04 203.82 1318.6 Q205.649 1322.14 209.26 1322.14 Q212.894 1322.14 214.699 1318.6 Q216.528 1315.04 216.528 1307.93 Q216.528 1300.8 214.699 1297.26 Q212.894 1293.69 209.26 1293.69 M209.26 1289.99 Q215.07 1289.99 218.125 1294.6 Q221.204 1299.18 221.204 1307.93 Q221.204 1316.66 218.125 1321.26 Q215.07 1325.85 209.26 1325.85 Q203.449 1325.85 200.371 1321.26 Q197.315 1316.66 197.315 1307.93 Q197.315 1299.18 200.371 1294.6 Q203.449 1289.99 209.26 1289.99 Z" fill="#000000" fill-rule="evenodd" fill-opacity="1" /><path clip-path="url(#clip140)" d="M242.269 1294.69 L230.463 1313.14 L242.269 1313.14 L242.269 1294.69 M241.042 1290.61 L246.921 1290.61 L246.921 1313.14 L251.852 1313.14 L251.852 1317.03 L246.921 1317.03 L246.921 1325.17 L242.269 1325.17 L242.269 1317.03 L226.667 1317.03 L226.667 1312.51 L241.042 1290.61 Z" fill="#000000" fill-rule="evenodd" fill-opacity="1" /><path clip-path="url(#clip140)" d="M115.394 1047.43 L145.07 1047.43 L145.07 1051.37 L115.394 1051.37 L115.394 1047.43 Z" fill="#000000" fill-rule="evenodd" fill-opacity="1" /><path clip-path="url(#clip140)" d="M165.163 1032.78 Q161.552 1032.78 159.723 1036.35 Q157.917 1039.89 157.917 1047.02 Q157.917 1054.12 159.723 1057.69 Q161.552 1061.23 165.163 1061.23 Q168.797 1061.23 170.602 1057.69 Q172.431 1054.12 172.431 1047.02 Q172.431 1039.89 170.602 1036.35 Q168.797 1032.78 165.163 1032.78 M165.163 1029.08 Q170.973 1029.08 174.028 1033.68 Q177.107 1038.27 177.107 1047.02 Q177.107 1055.74 174.028 1060.35 Q170.973 1064.93 165.163 1064.93 Q159.353 1064.93 156.274 1060.35 Q153.218 1055.74 153.218 1047.02 Q153.218 1038.27 156.274 1033.68 Q159.353 1029.08 165.163 1029.08 Z" fill="#000000" fill-rule="evenodd" fill-opacity="1" /><path clip-path="url(#clip140)" d="M185.325 1058.38 L190.209 1058.38 L190.209 1064.26 L185.325 1064.26 L185.325 1058.38 Z" fill="#000000" fill-rule="evenodd" fill-opacity="1" /><path clip-path="url(#clip140)" d="M210.394 1032.78 Q206.783 1032.78 204.954 1036.35 Q203.149 1039.89 203.149 1047.02 Q203.149 1054.12 204.954 1057.69 Q206.783 1061.23 210.394 1061.23 Q214.028 1061.23 215.834 1057.69 Q217.662 1054.12 217.662 1047.02 Q217.662 1039.89 215.834 1036.35 Q214.028 1032.78 210.394 1032.78 M210.394 1029.08 Q216.204 1029.08 219.26 1033.68 Q222.338 1038.27 222.338 1047.02 Q222.338 1055.74 219.26 1060.35 Q216.204 1064.93 210.394 1064.93 Q204.584 1064.93 201.505 1060.35 Q198.45 1055.74 198.45 1047.02 Q198.45 1038.27 201.505 1033.68 Q204.584 1029.08 210.394 1029.08 Z" fill="#000000" fill-rule="evenodd" fill-opacity="1" /><path clip-path="url(#clip140)" d="M244.722 1045.63 Q248.079 1046.35 249.954 1048.62 Q251.852 1050.88 251.852 1054.22 Q251.852 1059.33 248.334 1062.13 Q244.815 1064.93 238.334 1064.93 Q236.158 1064.93 233.843 1064.49 Q231.551 1064.08 229.098 1063.22 L229.098 1058.71 Q231.042 1059.84 233.357 1060.42 Q235.672 1061 238.195 1061 Q242.593 1061 244.884 1059.26 Q247.199 1057.53 247.199 1054.22 Q247.199 1051.16 245.046 1049.45 Q242.917 1047.71 239.097 1047.71 L235.07 1047.71 L235.07 1043.87 L239.283 1043.87 Q242.732 1043.87 244.56 1042.5 Q246.389 1041.12 246.389 1038.52 Q246.389 1035.86 244.491 1034.45 Q242.616 1033.01 239.097 1033.01 Q237.176 1033.01 234.977 1033.43 Q232.778 1033.85 230.139 1034.73 L230.139 1030.56 Q232.801 1029.82 235.116 1029.45 Q237.454 1029.08 239.514 1029.08 Q244.838 1029.08 247.94 1031.51 Q251.042 1033.92 251.042 1038.04 Q251.042 1040.91 249.398 1042.9 Q247.755 1044.87 244.722 1045.63 Z" fill="#000000" fill-rule="evenodd" fill-opacity="1" /><path clip-path="url(#clip140)" d="M116.343 786.524 L146.019 786.524 L146.019 790.459 L116.343 790.459 L116.343 786.524 Z" fill="#000000" fill-rule="evenodd" fill-opacity="1" /><path clip-path="url(#clip140)" d="M166.112 771.871 Q162.501 771.871 160.672 775.436 Q158.866 778.977 158.866 786.107 Q158.866 793.214 160.672 796.778 Q162.501 800.32 166.112 800.32 Q169.746 800.32 171.552 796.778 Q173.38 793.214 173.38 786.107 Q173.38 778.977 171.552 775.436 Q169.746 771.871 166.112 771.871 M166.112 768.167 Q171.922 768.167 174.977 772.774 Q178.056 777.357 178.056 786.107 Q178.056 794.834 174.977 799.44 Q171.922 804.024 166.112 804.024 Q160.302 804.024 157.223 799.44 Q154.167 794.834 154.167 786.107 Q154.167 777.357 157.223 772.774 Q160.302 768.167 166.112 768.167 Z" fill="#000000" fill-rule="evenodd" fill-opacity="1" /><path clip-path="url(#clip140)" d="M186.274 797.473 L191.158 797.473 L191.158 803.352 L186.274 803.352 L186.274 797.473 Z" fill="#000000" fill-rule="evenodd" fill-opacity="1" /><path clip-path="url(#clip140)" d="M211.343 771.871 Q207.732 771.871 205.903 775.436 Q204.098 778.977 204.098 786.107 Q204.098 793.214 205.903 796.778 Q207.732 800.32 211.343 800.32 Q214.977 800.32 216.783 796.778 Q218.611 793.214 218.611 786.107 Q218.611 778.977 216.783 775.436 Q214.977 771.871 211.343 771.871 M211.343 768.167 Q217.153 768.167 220.209 772.774 Q223.287 777.357 223.287 786.107 Q223.287 794.834 220.209 799.44 Q217.153 804.024 211.343 804.024 Q205.533 804.024 202.454 799.44 Q199.399 794.834 199.399 786.107 Q199.399 777.357 202.454 772.774 Q205.533 768.167 211.343 768.167 Z" fill="#000000" fill-rule="evenodd" fill-opacity="1" /><path clip-path="url(#clip140)" d="M235.533 799.417 L251.852 799.417 L251.852 803.352 L229.908 803.352 L229.908 799.417 Q232.57 796.663 237.153 792.033 Q241.759 787.38 242.94 786.038 Q245.185 783.515 246.065 781.778 Q246.968 780.019 246.968 778.329 Q246.968 775.575 245.023 773.839 Q243.102 772.103 240 772.103 Q237.801 772.103 235.347 772.866 Q232.917 773.63 230.139 775.181 L230.139 770.459 Q232.963 769.325 235.417 768.746 Q237.871 768.167 239.908 768.167 Q245.278 768.167 248.472 770.853 Q251.667 773.538 251.667 778.028 Q251.667 780.158 250.857 782.079 Q250.07 783.977 247.963 786.57 Q247.384 787.241 244.283 790.459 Q241.181 793.653 235.533 799.417 Z" fill="#000000" fill-rule="evenodd" fill-opacity="1" /><path clip-path="url(#clip140)" d="M115.973 525.613 L145.649 525.613 L145.649 529.548 L115.973 529.548 L115.973 525.613 Z" fill="#000000" fill-rule="evenodd" fill-opacity="1" /><path clip-path="url(#clip140)" d="M165.741 510.96 Q162.13 510.96 160.302 514.525 Q158.496 518.066 158.496 525.196 Q158.496 532.302 160.302 535.867 Q162.13 539.409 165.741 539.409 Q169.376 539.409 171.181 535.867 Q173.01 532.302 173.01 525.196 Q173.01 518.066 171.181 514.525 Q169.376 510.96 165.741 510.96 M165.741 507.256 Q171.552 507.256 174.607 511.863 Q177.686 516.446 177.686 525.196 Q177.686 533.923 174.607 538.529 Q171.552 543.113 165.741 543.113 Q159.931 543.113 156.853 538.529 Q153.797 533.923 153.797 525.196 Q153.797 516.446 156.853 511.863 Q159.931 507.256 165.741 507.256 Z" fill="#000000" fill-rule="evenodd" fill-opacity="1" /><path clip-path="url(#clip140)" d="M185.903 536.562 L190.788 536.562 L190.788 542.441 L185.903 542.441 L185.903 536.562 Z" fill="#000000" fill-rule="evenodd" fill-opacity="1" /><path clip-path="url(#clip140)" d="M210.973 510.96 Q207.362 510.96 205.533 514.525 Q203.727 518.066 203.727 525.196 Q203.727 532.302 205.533 535.867 Q207.362 539.409 210.973 539.409 Q214.607 539.409 216.412 535.867 Q218.241 532.302 218.241 525.196 Q218.241 518.066 216.412 514.525 Q214.607 510.96 210.973 510.96 M210.973 507.256 Q216.783 507.256 219.838 511.863 Q222.917 516.446 222.917 525.196 Q222.917 533.923 219.838 538.529 Q216.783 543.113 210.973 543.113 Q205.162 543.113 202.084 538.529 Q199.028 533.923 199.028 525.196 Q199.028 516.446 202.084 511.863 Q205.162 507.256 210.973 507.256 Z" fill="#000000" fill-rule="evenodd" fill-opacity="1" /><path clip-path="url(#clip140)" d="M231.945 538.506 L239.584 538.506 L239.584 512.141 L231.273 513.807 L231.273 509.548 L239.537 507.881 L244.213 507.881 L244.213 538.506 L251.852 538.506 L251.852 542.441 L231.945 542.441 L231.945 538.506 Z" fill="#000000" fill-rule="evenodd" fill-opacity="1" /><path clip-path="url(#clip140)" d="M164.515 250.049 Q160.903 250.049 159.075 253.614 Q157.269 257.155 157.269 264.285 Q157.269 271.391 159.075 274.956 Q160.903 278.498 164.515 278.498 Q168.149 278.498 169.954 274.956 Q171.783 271.391 171.783 264.285 Q171.783 257.155 169.954 253.614 Q168.149 250.049 164.515 250.049 M164.515 246.345 Q170.325 246.345 173.38 250.952 Q176.459 255.535 176.459 264.285 Q176.459 273.012 173.38 277.618 Q170.325 282.202 164.515 282.202 Q158.704 282.202 155.626 277.618 Q152.57 273.012 152.57 264.285 Q152.57 255.535 155.626 250.952 Q158.704 246.345 164.515 246.345 Z" fill="#000000" fill-rule="evenodd" fill-opacity="1" /><path clip-path="url(#clip140)" d="M184.676 275.651 L189.561 275.651 L189.561 281.53 L184.676 281.53 L184.676 275.651 Z" fill="#000000" fill-rule="evenodd" fill-opacity="1" /><path clip-path="url(#clip140)" d="M209.746 250.049 Q206.135 250.049 204.306 253.614 Q202.5 257.155 202.5 264.285 Q202.5 271.391 204.306 274.956 Q206.135 278.498 209.746 278.498 Q213.38 278.498 215.186 274.956 Q217.014 271.391 217.014 264.285 Q217.014 257.155 215.186 253.614 Q213.38 250.049 209.746 250.049 M209.746 246.345 Q215.556 246.345 218.611 250.952 Q221.69 255.535 221.69 264.285 Q221.69 273.012 218.611 277.618 Q215.556 282.202 209.746 282.202 Q203.936 282.202 200.857 277.618 Q197.801 273.012 197.801 264.285 Q197.801 255.535 200.857 250.952 Q203.936 246.345 209.746 246.345 Z" fill="#000000" fill-rule="evenodd" fill-opacity="1" /><path clip-path="url(#clip140)" d="M239.908 250.049 Q236.297 250.049 234.468 253.614 Q232.662 257.155 232.662 264.285 Q232.662 271.391 234.468 274.956 Q236.297 278.498 239.908 278.498 Q243.542 278.498 245.347 274.956 Q247.176 271.391 247.176 264.285 Q247.176 257.155 245.347 253.614 Q243.542 250.049 239.908 250.049 M239.908 246.345 Q245.718 246.345 248.773 250.952 Q251.852 255.535 251.852 264.285 Q251.852 273.012 248.773 277.618 Q245.718 282.202 239.908 282.202 Q234.097 282.202 231.019 277.618 Q227.963 273.012 227.963 264.285 Q227.963 255.535 231.019 250.952 Q234.097 246.345 239.908 246.345 Z" fill="#000000" fill-rule="evenodd" fill-opacity="1" /><path clip-path="url(#clip140)" d="M35.1993 1179.52 Q31.2526 1177.33 29.3747 1174.27 Q27.4968 1171.22 27.4968 1167.08 Q27.4968 1161.51 31.4117 1158.48 Q35.2948 1155.46 42.4881 1155.46 L64.0042 1155.46 L64.0042 1161.35 L42.679 1161.35 Q37.5546 1161.35 35.072 1163.16 Q32.5894 1164.98 32.5894 1168.7 Q32.5894 1173.25 35.6131 1175.89 Q38.6368 1178.54 43.8567 1178.54 L64.0042 1178.54 L64.0042 1184.42 L42.679 1184.42 Q37.5228 1184.42 35.072 1186.24 Q32.5894 1188.05 32.5894 1191.84 Q32.5894 1196.33 35.6449 1198.97 Q38.6686 1201.61 43.8567 1201.61 L64.0042 1201.61 L64.0042 1207.5 L28.3562 1207.5 L28.3562 1201.61 L33.8944 1201.61 Q30.616 1199.61 29.0564 1196.81 Q27.4968 1194 27.4968 1190.15 Q27.4968 1186.27 29.4702 1183.56 Q31.4436 1180.83 35.1993 1179.52 Z" fill="#000000" fill-rule="evenodd" fill-opacity="1" /><path clip-path="url(#clip140)" d="M46.0847 1127.58 Q46.0847 1134.68 47.7079 1137.41 Q49.3312 1140.15 53.2461 1140.15 Q56.3653 1140.15 58.2114 1138.11 Q60.0256 1136.04 60.0256 1132.51 Q60.0256 1127.64 56.5881 1124.71 Q53.1188 1121.75 47.3897 1121.75 L46.0847 1121.75 L46.0847 1127.58 M43.6657 1115.9 L64.0042 1115.9 L64.0042 1121.75 L58.5933 1121.75 Q61.8398 1123.76 63.3994 1126.75 Q64.9272 1129.74 64.9272 1134.07 Q64.9272 1139.55 61.8716 1142.79 Q58.7843 1146.01 53.6281 1146.01 Q47.6125 1146.01 44.5569 1142 Q41.5014 1137.95 41.5014 1129.97 L41.5014 1121.75 L40.9285 1121.75 Q36.8862 1121.75 34.6901 1124.43 Q32.4621 1127.07 32.4621 1131.88 Q32.4621 1134.93 33.1941 1137.83 Q33.9262 1140.72 35.3903 1143.4 L29.9795 1143.4 Q28.7381 1140.18 28.1334 1137.16 Q27.4968 1134.13 27.4968 1131.27 Q27.4968 1123.54 31.5072 1119.72 Q35.5176 1115.9 43.6657 1115.9 Z" fill="#000000" fill-rule="evenodd" fill-opacity="1" /><path clip-path="url(#clip140)" d="M33.8307 1083.18 Q33.2578 1084.16 33.0032 1085.34 Q32.7167 1086.49 32.7167 1087.89 Q32.7167 1092.85 35.9632 1095.53 Q39.1779 1098.17 45.2253 1098.17 L64.0042 1098.17 L64.0042 1104.06 L28.3562 1104.06 L28.3562 1098.17 L33.8944 1098.17 Q30.6479 1096.32 29.0883 1093.36 Q27.4968 1090.4 27.4968 1086.17 Q27.4968 1085.56 27.5923 1084.83 Q27.656 1084.1 27.8151 1083.21 L33.8307 1083.18 Z" fill="#000000" fill-rule="evenodd" fill-opacity="1" /><path clip-path="url(#clip140)" d="M45.7664 1054.72 Q39.4007 1054.72 35.8996 1057.36 Q32.3984 1059.97 32.3984 1064.72 Q32.3984 1069.43 35.8996 1072.07 Q39.4007 1074.68 45.7664 1074.68 Q52.1003 1074.68 55.6014 1072.07 Q59.1026 1069.43 59.1026 1064.72 Q59.1026 1059.97 55.6014 1057.36 Q52.1003 1054.72 45.7664 1054.72 M59.58 1048.87 Q68.683 1048.87 73.1071 1052.91 Q77.5631 1056.95 77.5631 1065.29 Q77.5631 1068.38 77.0857 1071.11 Q76.6401 1073.85 75.6852 1076.43 L69.9879 1076.43 Q71.3884 1073.85 72.0568 1071.34 Q72.7252 1068.82 72.7252 1066.21 Q72.7252 1060.45 69.7015 1057.59 Q66.7096 1054.72 60.6303 1054.72 L57.7339 1054.72 Q60.885 1056.54 62.4446 1059.37 Q64.0042 1062.2 64.0042 1066.15 Q64.0042 1072.71 59.0071 1076.72 Q54.01 1080.73 45.7664 1080.73 Q37.491 1080.73 32.4939 1076.72 Q27.4968 1072.71 27.4968 1066.15 Q27.4968 1062.2 29.0564 1059.37 Q30.616 1056.54 33.7671 1054.72 L28.3562 1054.72 L28.3562 1048.87 L59.58 1048.87 Z" fill="#000000" fill-rule="evenodd" fill-opacity="1" /><path clip-path="url(#clip140)" d="M28.3562 1036.8 L28.3562 1030.95 L64.0042 1030.95 L64.0042 1036.8 L28.3562 1036.8 M14.479 1036.8 L14.479 1030.95 L21.895 1030.95 L21.895 1036.8 L14.479 1036.8 Z" fill="#000000" fill-rule="evenodd" fill-opacity="1" /><path clip-path="url(#clip140)" d="M42.4881 989.06 L64.0042 989.06 L64.0042 994.917 L42.679 994.917 Q37.6183 994.917 35.1038 996.89 Q32.5894 998.864 32.5894 1002.81 Q32.5894 1007.55 35.6131 1010.29 Q38.6368 1013.03 43.8567 1013.03 L64.0042 1013.03 L64.0042 1018.92 L28.3562 1018.92 L28.3562 1013.03 L33.8944 1013.03 Q30.6797 1010.93 29.0883 1008.09 Q27.4968 1005.23 27.4968 1001.51 Q27.4968 995.362 31.3163 992.211 Q35.1038 989.06 42.4881 989.06 Z" fill="#000000" fill-rule="evenodd" fill-opacity="1" /><path clip-path="url(#clip140)" d="M46.0847 961.179 Q46.0847 968.276 47.7079 971.014 Q49.3312 973.751 53.2461 973.751 Q56.3653 973.751 58.2114 971.714 Q60.0256 969.645 60.0256 966.112 Q60.0256 961.242 56.5881 958.314 Q53.1188 955.354 47.3897 955.354 L46.0847 955.354 L46.0847 961.179 M43.6657 949.498 L64.0042 949.498 L64.0042 955.354 L58.5933 955.354 Q61.8398 957.359 63.3994 960.351 Q64.9272 963.343 64.9272 967.672 Q64.9272 973.146 61.8716 976.393 Q58.7843 979.607 53.6281 979.607 Q47.6125 979.607 44.5569 975.597 Q41.5014 971.555 41.5014 963.566 L41.5014 955.354 L40.9285 955.354 Q36.8862 955.354 34.6901 958.028 Q32.4621 960.669 32.4621 965.475 Q32.4621 968.531 33.1941 971.427 Q33.9262 974.324 35.3903 976.997 L29.9795 976.997 Q28.7381 973.783 28.1334 970.759 Q27.4968 967.735 27.4968 964.871 Q27.4968 957.136 31.5072 953.317 Q35.5176 949.498 43.6657 949.498 Z" fill="#000000" fill-rule="evenodd" fill-opacity="1" /><path clip-path="url(#clip140)" d="M14.479 937.435 L14.479 931.578 L64.0042 931.578 L64.0042 937.435 L14.479 937.435 Z" fill="#000000" fill-rule="evenodd" fill-opacity="1" /><path clip-path="url(#clip140)" d="M44.7161 868.112 L47.5806 868.112 L47.5806 895.039 Q53.6281 894.657 56.8109 891.41 Q59.9619 888.132 59.9619 882.308 Q59.9619 878.934 59.1344 875.783 Q58.3069 872.6 56.6518 869.481 L62.1899 869.481 Q63.5267 872.632 64.227 875.942 Q64.9272 879.252 64.9272 882.658 Q64.9272 891.188 59.9619 896.185 Q54.9967 901.15 46.5303 901.15 Q37.7774 901.15 32.6531 896.439 Q27.4968 891.697 27.4968 883.676 Q27.4968 876.483 32.1438 872.313 Q36.7589 868.112 44.7161 868.112 M42.9973 873.968 Q38.1912 874.032 35.3266 876.674 Q32.4621 879.284 32.4621 883.613 Q32.4621 888.514 35.2312 891.474 Q38.0002 894.402 43.0292 894.848 L42.9973 873.968 Z" fill="#000000" fill-rule="evenodd" fill-opacity="1" /><path clip-path="url(#clip140)" d="M14.479 840.453 L19.3487 840.453 L19.3487 846.055 Q19.3487 849.206 20.6219 850.447 Q21.895 851.657 25.2052 851.657 L28.3562 851.657 L28.3562 842.013 L32.9077 842.013 L32.9077 851.657 L64.0042 851.657 L64.0042 857.545 L32.9077 857.545 L32.9077 863.147 L28.3562 863.147 L28.3562 857.545 L25.8736 857.545 Q19.9216 857.545 17.2162 854.776 Q14.479 852.007 14.479 845.991 L14.479 840.453 Z" fill="#000000" fill-rule="evenodd" fill-opacity="1" /><path clip-path="url(#clip140)" d="M14.479 817.505 L19.3487 817.505 L19.3487 823.106 Q19.3487 826.257 20.6219 827.499 Q21.895 828.708 25.2052 828.708 L28.3562 828.708 L28.3562 819.064 L32.9077 819.064 L32.9077 828.708 L64.0042 828.708 L64.0042 834.597 L32.9077 834.597 L32.9077 840.198 L28.3562 840.198 L28.3562 834.597 L25.8736 834.597 Q19.9216 834.597 17.2162 831.827 Q14.479 829.058 14.479 823.043 L14.479 817.505 Z" fill="#000000" fill-rule="evenodd" fill-opacity="1" /><path clip-path="url(#clip140)" d="M44.7161 782.111 L47.5806 782.111 L47.5806 809.038 Q53.6281 808.656 56.8109 805.41 Q59.9619 802.131 59.9619 796.307 Q59.9619 792.933 59.1344 789.782 Q58.3069 786.599 56.6518 783.48 L62.1899 783.48 Q63.5267 786.631 64.227 789.941 Q64.9272 793.251 64.9272 796.657 Q64.9272 805.187 59.9619 810.184 Q54.9967 815.149 46.5303 815.149 Q37.7774 815.149 32.6531 810.439 Q27.4968 805.696 27.4968 797.675 Q27.4968 790.482 32.1438 786.313 Q36.7589 782.111 44.7161 782.111 M42.9973 787.968 Q38.1912 788.031 35.3266 790.673 Q32.4621 793.283 32.4621 797.612 Q32.4621 802.513 35.2312 805.473 Q38.0002 808.402 43.0292 808.847 L42.9973 787.968 Z" fill="#000000" fill-rule="evenodd" fill-opacity="1" /><path clip-path="url(#clip140)" d="M29.7248 746.845 L35.1993 746.845 Q33.8307 749.328 33.1623 751.842 Q32.4621 754.325 32.4621 756.871 Q32.4621 762.569 36.0905 765.72 Q39.6872 768.871 46.212 768.871 Q52.7369 768.871 56.3653 765.72 Q59.9619 762.569 59.9619 756.871 Q59.9619 754.325 59.2935 751.842 Q58.5933 749.328 57.2247 746.845 L62.6355 746.845 Q63.7814 749.296 64.3543 751.938 Q64.9272 754.548 64.9272 757.508 Q64.9272 765.56 59.8664 770.303 Q54.8057 775.045 46.212 775.045 Q37.491 775.045 32.4939 770.271 Q27.4968 765.465 27.4968 757.126 Q27.4968 754.42 28.0697 751.842 Q28.6108 749.264 29.7248 746.845 Z" fill="#000000" fill-rule="evenodd" fill-opacity="1" /><path clip-path="url(#clip140)" d="M18.2347 730.867 L28.3562 730.867 L28.3562 718.804 L32.9077 718.804 L32.9077 730.867 L52.2594 730.867 Q56.6199 730.867 57.8613 729.69 Q59.1026 728.48 59.1026 724.82 L59.1026 718.804 L64.0042 718.804 L64.0042 724.82 Q64.0042 731.599 61.4897 734.178 Q58.9434 736.756 52.2594 736.756 L32.9077 736.756 L32.9077 741.053 L28.3562 741.053 L28.3562 736.756 L18.2347 736.756 L18.2347 730.867 Z" fill="#000000" fill-rule="evenodd" fill-opacity="1" /><path clip-path="url(#clip140)" d="M32.4621 676.568 Q32.4621 681.279 36.1542 684.016 Q39.8145 686.753 46.212 686.753 Q52.6095 686.753 56.3017 684.048 Q59.9619 681.31 59.9619 676.568 Q59.9619 671.889 56.2698 669.152 Q52.5777 666.415 46.212 666.415 Q39.8781 666.415 36.186 669.152 Q32.4621 671.889 32.4621 676.568 M27.4968 676.568 Q27.4968 668.929 32.4621 664.569 Q37.4273 660.208 46.212 660.208 Q54.9649 660.208 59.9619 664.569 Q64.9272 668.929 64.9272 676.568 Q64.9272 684.239 59.9619 688.599 Q54.9649 692.928 46.212 692.928 Q37.4273 692.928 32.4621 688.599 Q27.4968 684.239 27.4968 676.568 Z" fill="#000000" fill-rule="evenodd" fill-opacity="1" /><path clip-path="url(#clip140)" d="M14.479 632.454 L19.3487 632.454 L19.3487 638.055 Q19.3487 641.206 20.6219 642.448 Q21.895 643.657 25.2052 643.657 L28.3562 643.657 L28.3562 634.013 L32.9077 634.013 L32.9077 643.657 L64.0042 643.657 L64.0042 649.545 L32.9077 649.545 L32.9077 655.147 L28.3562 655.147 L28.3562 649.545 L25.8736 649.545 Q19.9216 649.545 17.2162 646.776 Q14.479 644.007 14.479 637.992 L14.479 632.454 Z" fill="#000000" fill-rule="evenodd" fill-opacity="1" /><path clip-path="url(#clip140)" d="M46.0847 590.631 Q46.0847 597.729 47.7079 600.466 Q49.3312 603.203 53.2461 603.203 Q56.3653 603.203 58.2114 601.166 Q60.0256 599.097 60.0256 595.564 Q60.0256 590.695 56.5881 587.766 Q53.1188 584.806 47.3897 584.806 L46.0847 584.806 L46.0847 590.631 M43.6657 578.95 L64.0042 578.95 L64.0042 584.806 L58.5933 584.806 Q61.8398 586.811 63.3994 589.803 Q64.9272 592.795 64.9272 597.124 Q64.9272 602.598 61.8716 605.845 Q58.7843 609.06 53.6281 609.06 Q47.6125 609.06 44.5569 605.049 Q41.5014 601.007 41.5014 593.018 L41.5014 584.806 L40.9285 584.806 Q36.8862 584.806 34.6901 587.48 Q32.4621 590.122 32.4621 594.928 Q32.4621 597.983 33.1941 600.88 Q33.9262 603.776 35.3903 606.45 L29.9795 606.45 Q28.7381 603.235 28.1334 600.211 Q27.4968 597.188 27.4968 594.323 Q27.4968 586.589 31.5072 582.769 Q35.5176 578.95 43.6657 578.95 Z" fill="#000000" fill-rule="evenodd" fill-opacity="1" /><path clip-path="url(#clip140)" d="M45.7664 543.429 Q39.4007 543.429 35.8996 546.071 Q32.3984 548.681 32.3984 553.423 Q32.3984 558.134 35.8996 560.776 Q39.4007 563.386 45.7664 563.386 Q52.1003 563.386 55.6014 560.776 Q59.1026 558.134 59.1026 553.423 Q59.1026 548.681 55.6014 546.071 Q52.1003 543.429 45.7664 543.429 M59.58 537.573 Q68.683 537.573 73.1071 541.615 Q77.5631 545.657 77.5631 553.996 Q77.5631 557.084 77.0857 559.821 Q76.6401 562.558 75.6852 565.136 L69.9879 565.136 Q71.3884 562.558 72.0568 560.044 Q72.7252 557.529 72.7252 554.919 Q72.7252 549.158 69.7015 546.294 Q66.7096 543.429 60.6303 543.429 L57.7339 543.429 Q60.885 545.243 62.4446 548.076 Q64.0042 550.909 64.0042 554.856 Q64.0042 561.412 59.0071 565.423 Q54.01 569.433 45.7664 569.433 Q37.491 569.433 32.4939 565.423 Q27.4968 561.412 27.4968 554.856 Q27.4968 550.909 29.0564 548.076 Q30.616 545.243 33.7671 543.429 L28.3562 543.429 L28.3562 537.573 L59.58 537.573 Z" fill="#000000" fill-rule="evenodd" fill-opacity="1" /><path clip-path="url(#clip140)" d="M44.7161 495.018 L47.5806 495.018 L47.5806 521.945 Q53.6281 521.563 56.8109 518.316 Q59.9619 515.038 59.9619 509.213 Q59.9619 505.84 59.1344 502.689 Q58.3069 499.506 56.6518 496.387 L62.1899 496.387 Q63.5267 499.538 64.227 502.848 Q64.9272 506.158 64.9272 509.564 Q64.9272 518.094 59.9619 523.091 Q54.9967 528.056 46.5303 528.056 Q37.7774 528.056 32.6531 523.345 Q27.4968 518.603 27.4968 510.582 Q27.4968 503.389 32.1438 499.219 Q36.7589 495.018 44.7161 495.018 M42.9973 500.874 Q38.1912 500.938 35.3266 503.58 Q32.4621 506.19 32.4621 510.518 Q32.4621 515.42 35.2312 518.38 Q38.0002 521.308 43.0292 521.754 L42.9973 500.874 Z" fill="#000000" fill-rule="evenodd" fill-opacity="1" /><path clip-path="url(#clip140)" d="M28.3562 464.685 L28.3562 458.829 L64.0042 458.829 L64.0042 464.685 L28.3562 464.685 M14.479 464.685 L14.479 458.829 L21.895 458.829 L21.895 464.685 L14.479 464.685 Z" fill="#000000" fill-rule="evenodd" fill-opacity="1" /><path clip-path="url(#clip140)" d="M42.4881 416.943 L64.0042 416.943 L64.0042 422.799 L42.679 422.799 Q37.6183 422.799 35.1038 424.772 Q32.5894 426.746 32.5894 430.692 Q32.5894 435.435 35.6131 438.172 Q38.6368 440.909 43.8567 440.909 L64.0042 440.909 L64.0042 446.798 L28.3562 446.798 L28.3562 440.909 L33.8944 440.909 Q30.6797 438.809 29.0883 435.976 Q27.4968 433.111 27.4968 429.388 Q27.4968 423.245 31.3163 420.094 Q35.1038 416.943 42.4881 416.943 Z" fill="#000000" fill-rule="evenodd" fill-opacity="1" /><path clip-path="url(#clip140)" d="M16.4842 384.286 L16.4842 354.24 L21.895 354.24 L21.895 377.857 L35.9632 377.857 L35.9632 355.227 L41.3741 355.227 L41.3741 377.857 L58.5933 377.857 L58.5933 353.667 L64.0042 353.667 L64.0042 384.286 L16.4842 384.286 Z" fill="#000000" fill-rule="evenodd" fill-opacity="1" /><path clip-path="url(#clip140)" d="M14.5426 329.287 Q21.8632 333.552 29.0246 335.621 Q36.186 337.69 43.5384 337.69 Q50.8908 337.69 58.1159 335.621 Q65.3091 333.52 72.5979 329.287 L72.5979 334.379 Q65.1182 339.154 57.8931 341.541 Q50.668 343.896 43.5384 343.896 Q36.4406 343.896 29.2474 341.541 Q22.0542 339.185 14.5426 334.379 L14.5426 329.287 Z" fill="#000000" fill-rule="evenodd" fill-opacity="1" /><path clip-path="url(#clip140)" d="M49.9359 318.529 L28.3562 318.529 L28.3562 312.672 L49.7131 312.672 Q54.7739 312.672 57.3202 310.699 Q59.8346 308.726 59.8346 304.779 Q59.8346 300.036 56.8109 297.299 Q53.7872 294.53 48.5673 294.53 L28.3562 294.53 L28.3562 288.674 L64.0042 288.674 L64.0042 294.53 L58.5296 294.53 Q61.7762 296.663 63.3676 299.495 Q64.9272 302.296 64.9272 306.02 Q64.9272 312.163 61.1078 315.346 Q57.2883 318.529 49.9359 318.529 M27.4968 303.792 L27.4968 303.792 Z" fill="#000000" fill-rule="evenodd" fill-opacity="1" /><path clip-path="url(#clip140)" d="M14.5426 277.534 L14.5426 272.441 Q22.0542 267.667 29.2474 265.311 Q36.4406 262.924 43.5384 262.924 Q50.668 262.924 57.8931 265.311 Q65.1182 267.667 72.5979 272.441 L72.5979 277.534 Q65.3091 273.3 58.1159 271.232 Q50.8908 269.131 43.5384 269.131 Q36.186 269.131 29.0246 271.232 Q21.8632 273.3 14.5426 277.534 Z" fill="#000000" fill-rule="evenodd" fill-opacity="1" /><circle clip-path="url(#clip142)" cx="1076.8" cy="400.45" r="14" fill="#009af9" fill-rule="evenodd" fill-opacity="1" stroke="#000000" stroke-opacity="1" stroke-width="3.2"/>
<circle clip-path="url(#clip142)" cx="1107.24" cy="430.255" r="14" fill="#009af9" fill-rule="evenodd" fill-opacity="1" stroke="#000000" stroke-opacity="1" stroke-width="3.2"/>
<circle clip-path="url(#clip142)" cx="1137.68" cy="466.642" r="14" fill="#009af9" fill-rule="evenodd" fill-opacity="1" stroke="#000000" stroke-opacity="1" stroke-width="3.2"/>
<circle clip-path="url(#clip142)" cx="1168.11" cy="513.11" r="14" fill="#009af9" fill-rule="evenodd" fill-opacity="1" stroke="#000000" stroke-opacity="1" stroke-width="3.2"/>
<circle clip-path="url(#clip142)" cx="1198.55" cy="574.897" r="14" fill="#009af9" fill-rule="evenodd" fill-opacity="1" stroke="#000000" stroke-opacity="1" stroke-width="3.2"/>
<circle clip-path="url(#clip142)" cx="772.423" cy="488.747" r="14" fill="#009af9" fill-rule="evenodd" fill-opacity="1" stroke="#000000" stroke-opacity="1" stroke-width="3.2"/>
<circle clip-path="url(#clip142)" cx="802.86" cy="540.222" r="14" fill="#009af9" fill-rule="evenodd" fill-opacity="1" stroke="#000000" stroke-opacity="1" stroke-width="3.2"/>
<circle clip-path="url(#clip142)" cx="863.736" cy="695.91" r="14" fill="#009af9" fill-rule="evenodd" fill-opacity="1" stroke="#000000" stroke-opacity="1" stroke-width="3.2"/>
<circle clip-path="url(#clip142)" cx="894.174" cy="815.452" r="14" fill="#009af9" fill-rule="evenodd" fill-opacity="1" stroke="#000000" stroke-opacity="1" stroke-width="3.2"/>
<circle clip-path="url(#clip142)" cx="1259.43" cy="367.99" r="14" fill="#009af9" fill-rule="evenodd" fill-opacity="1" stroke="#000000" stroke-opacity="1" stroke-width="3.2"/>
<circle clip-path="url(#clip142)" cx="1289.87" cy="390.263" r="14" fill="#009af9" fill-rule="evenodd" fill-opacity="1" stroke="#000000" stroke-opacity="1" stroke-width="3.2"/>
<circle clip-path="url(#clip142)" cx="1228.99" cy="348.301" r="14" fill="#009af9" fill-rule="evenodd" fill-opacity="1" stroke="#000000" stroke-opacity="1" stroke-width="3.2"/>
<circle clip-path="url(#clip142)" cx="1259.43" cy="367.99" r="14" fill="#009af9" fill-rule="evenodd" fill-opacity="1" stroke="#000000" stroke-opacity="1" stroke-width="3.2"/>
<circle clip-path="url(#clip142)" cx="1289.87" cy="390.263" r="14" fill="#009af9" fill-rule="evenodd" fill-opacity="1" stroke="#000000" stroke-opacity="1" stroke-width="3.2"/>
<circle clip-path="url(#clip142)" cx="1320.3" cy="416.752" r="14" fill="#009af9" fill-rule="evenodd" fill-opacity="1" stroke="#000000" stroke-opacity="1" stroke-width="3.2"/>
<circle clip-path="url(#clip142)" cx="1350.74" cy="449.86" r="14" fill="#009af9" fill-rule="evenodd" fill-opacity="1" stroke="#000000" stroke-opacity="1" stroke-width="3.2"/>
<circle clip-path="url(#clip142)" cx="468.044" cy="440.154" r="14" fill="#009af9" fill-rule="evenodd" fill-opacity="1" stroke="#000000" stroke-opacity="1" stroke-width="3.2"/>
<circle clip-path="url(#clip142)" cx="498.482" cy="484.013" r="14" fill="#009af9" fill-rule="evenodd" fill-opacity="1" stroke="#000000" stroke-opacity="1" stroke-width="3.2"/>
<circle clip-path="url(#clip142)" cx="528.92" cy="535.688" r="14" fill="#009af9" fill-rule="evenodd" fill-opacity="1" stroke="#000000" stroke-opacity="1" stroke-width="3.2"/>
<circle clip-path="url(#clip142)" cx="559.358" cy="598.773" r="14" fill="#009af9" fill-rule="evenodd" fill-opacity="1" stroke="#000000" stroke-opacity="1" stroke-width="3.2"/>
<circle clip-path="url(#clip142)" cx="589.796" cy="678.01" r="14" fill="#009af9" fill-rule="evenodd" fill-opacity="1" stroke="#000000" stroke-opacity="1" stroke-width="3.2"/>
<circle clip-path="url(#clip142)" cx="620.233" cy="779.141" r="14" fill="#009af9" fill-rule="evenodd" fill-opacity="1" stroke="#000000" stroke-opacity="1" stroke-width="3.2"/>
<circle clip-path="url(#clip142)" cx="650.671" cy="907.52" r="14" fill="#009af9" fill-rule="evenodd" fill-opacity="1" stroke="#000000" stroke-opacity="1" stroke-width="3.2"/>
<circle clip-path="url(#clip142)" cx="681.109" cy="1063.62" r="14" fill="#009af9" fill-rule="evenodd" fill-opacity="1" stroke="#000000" stroke-opacity="1" stroke-width="3.2"/>
<circle clip-path="url(#clip142)" cx="711.547" cy="1233.99" r="14" fill="#009af9" fill-rule="evenodd" fill-opacity="1" stroke="#000000" stroke-opacity="1" stroke-width="3.2"/>
<circle clip-path="url(#clip142)" cx="741.985" cy="1384.24" r="14" fill="#009af9" fill-rule="evenodd" fill-opacity="1" stroke="#000000" stroke-opacity="1" stroke-width="3.2"/>
<circle clip-path="url(#clip142)" cx="924.612" cy="287.335" r="14" fill="#009af9" fill-rule="evenodd" fill-opacity="1" stroke="#000000" stroke-opacity="1" stroke-width="3.2"/>
<circle clip-path="url(#clip142)" cx="955.05" cy="308.889" r="14" fill="#009af9" fill-rule="evenodd" fill-opacity="1" stroke="#000000" stroke-opacity="1" stroke-width="3.2"/>
<circle clip-path="url(#clip142)" cx="985.488" cy="330.139" r="14" fill="#009af9" fill-rule="evenodd" fill-opacity="1" stroke="#000000" stroke-opacity="1" stroke-width="3.2"/>
<circle clip-path="url(#clip142)" cx="1015.93" cy="351.822" r="14" fill="#009af9" fill-rule="evenodd" fill-opacity="1" stroke="#000000" stroke-opacity="1" stroke-width="3.2"/>
<circle clip-path="url(#clip142)" cx="1046.36" cy="374.858" r="14" fill="#009af9" fill-rule="evenodd" fill-opacity="1" stroke="#000000" stroke-opacity="1" stroke-width="3.2"/>
<circle clip-path="url(#clip142)" cx="1076.8" cy="400.45" r="14" fill="#009af9" fill-rule="evenodd" fill-opacity="1" stroke="#000000" stroke-opacity="1" stroke-width="3.2"/>
<circle clip-path="url(#clip142)" cx="1107.24" cy="430.255" r="14" fill="#009af9" fill-rule="evenodd" fill-opacity="1" stroke="#000000" stroke-opacity="1" stroke-width="3.2"/>
<circle clip-path="url(#clip142)" cx="1137.68" cy="466.642" r="14" fill="#009af9" fill-rule="evenodd" fill-opacity="1" stroke="#000000" stroke-opacity="1" stroke-width="3.2"/>
<circle clip-path="url(#clip142)" cx="1168.11" cy="513.11" r="14" fill="#009af9" fill-rule="evenodd" fill-opacity="1" stroke="#000000" stroke-opacity="1" stroke-width="3.2"/>
<circle clip-path="url(#clip142)" cx="1198.55" cy="574.897" r="14" fill="#009af9" fill-rule="evenodd" fill-opacity="1" stroke="#000000" stroke-opacity="1" stroke-width="3.2"/>
<circle clip-path="url(#clip142)" cx="1076.8" cy="256.304" r="14" fill="#009af9" fill-rule="evenodd" fill-opacity="1" stroke="#000000" stroke-opacity="1" stroke-width="3.2"/>
<circle clip-path="url(#clip142)" cx="1107.24" cy="276.008" r="14" fill="#009af9" fill-rule="evenodd" fill-opacity="1" stroke="#000000" stroke-opacity="1" stroke-width="3.2"/>
<circle clip-path="url(#clip142)" cx="1168.11" cy="312.338" r="14" fill="#009af9" fill-rule="evenodd" fill-opacity="1" stroke="#000000" stroke-opacity="1" stroke-width="3.2"/>
<circle clip-path="url(#clip142)" cx="1198.55" cy="330.038" r="14" fill="#009af9" fill-rule="evenodd" fill-opacity="1" stroke="#000000" stroke-opacity="1" stroke-width="3.2"/>
<circle clip-path="url(#clip142)" cx="1228.99" cy="348.301" r="14" fill="#009af9" fill-rule="evenodd" fill-opacity="1" stroke="#000000" stroke-opacity="1" stroke-width="3.2"/>
<circle clip-path="url(#clip142)" cx="1259.43" cy="367.99" r="14" fill="#009af9" fill-rule="evenodd" fill-opacity="1" stroke="#000000" stroke-opacity="1" stroke-width="3.2"/>
<circle clip-path="url(#clip142)" cx="1289.87" cy="390.263" r="14" fill="#009af9" fill-rule="evenodd" fill-opacity="1" stroke="#000000" stroke-opacity="1" stroke-width="3.2"/>
<circle clip-path="url(#clip142)" cx="1320.3" cy="416.752" r="14" fill="#009af9" fill-rule="evenodd" fill-opacity="1" stroke="#000000" stroke-opacity="1" stroke-width="3.2"/>
<circle clip-path="url(#clip142)" cx="1350.74" cy="449.86" r="14" fill="#009af9" fill-rule="evenodd" fill-opacity="1" stroke="#000000" stroke-opacity="1" stroke-width="3.2"/>
<circle clip-path="url(#clip142)" cx="1776.87" cy="153.663" r="14" fill="#009af9" fill-rule="evenodd" fill-opacity="1" stroke="#000000" stroke-opacity="1" stroke-width="3.2"/>
<circle clip-path="url(#clip142)" cx="1837.75" cy="194.926" r="14" fill="#009af9" fill-rule="evenodd" fill-opacity="1" stroke="#000000" stroke-opacity="1" stroke-width="3.2"/>
<circle clip-path="url(#clip142)" cx="1868.19" cy="211.526" r="14" fill="#009af9" fill-rule="evenodd" fill-opacity="1" stroke="#000000" stroke-opacity="1" stroke-width="3.2"/>
<circle clip-path="url(#clip142)" cx="1898.62" cy="225.889" r="14" fill="#009af9" fill-rule="evenodd" fill-opacity="1" stroke="#000000" stroke-opacity="1" stroke-width="3.2"/>
<circle clip-path="url(#clip142)" cx="1929.06" cy="238.318" r="14" fill="#009af9" fill-rule="evenodd" fill-opacity="1" stroke="#000000" stroke-opacity="1" stroke-width="3.2"/>
<circle clip-path="url(#clip142)" cx="1959.5" cy="249.093" r="14" fill="#009af9" fill-rule="evenodd" fill-opacity="1" stroke="#000000" stroke-opacity="1" stroke-width="3.2"/>
<circle clip-path="url(#clip142)" cx="1989.94" cy="258.471" r="14" fill="#009af9" fill-rule="evenodd" fill-opacity="1" stroke="#000000" stroke-opacity="1" stroke-width="3.2"/>
<circle clip-path="url(#clip142)" cx="2020.37" cy="266.693" r="14" fill="#009af9" fill-rule="evenodd" fill-opacity="1" stroke="#000000" stroke-opacity="1" stroke-width="3.2"/>
<circle clip-path="url(#clip142)" cx="2050.81" cy="273.987" r="14" fill="#009af9" fill-rule="evenodd" fill-opacity="1" stroke="#000000" stroke-opacity="1" stroke-width="3.2"/>
<circle clip-path="url(#clip142)" cx="772.423" cy="325.59" r="14" fill="#009af9" fill-rule="evenodd" fill-opacity="1" stroke="#000000" stroke-opacity="1" stroke-width="3.2"/>
<circle clip-path="url(#clip142)" cx="802.86" cy="350.923" r="14" fill="#009af9" fill-rule="evenodd" fill-opacity="1" stroke="#000000" stroke-opacity="1" stroke-width="3.2"/>
<circle clip-path="url(#clip142)" cx="833.298" cy="377.424" r="14" fill="#009af9" fill-rule="evenodd" fill-opacity="1" stroke="#000000" stroke-opacity="1" stroke-width="3.2"/>
<circle clip-path="url(#clip142)" cx="863.736" cy="406.312" r="14" fill="#009af9" fill-rule="evenodd" fill-opacity="1" stroke="#000000" stroke-opacity="1" stroke-width="3.2"/>
<circle clip-path="url(#clip142)" cx="894.174" cy="439.222" r="14" fill="#009af9" fill-rule="evenodd" fill-opacity="1" stroke="#000000" stroke-opacity="1" stroke-width="3.2"/>
<circle clip-path="url(#clip142)" cx="924.612" cy="478.428" r="14" fill="#009af9" fill-rule="evenodd" fill-opacity="1" stroke="#000000" stroke-opacity="1" stroke-width="3.2"/>
<circle clip-path="url(#clip142)" cx="955.05" cy="527.173" r="14" fill="#009af9" fill-rule="evenodd" fill-opacity="1" stroke="#000000" stroke-opacity="1" stroke-width="3.2"/>
<circle clip-path="url(#clip142)" cx="985.488" cy="590.129" r="14" fill="#009af9" fill-rule="evenodd" fill-opacity="1" stroke="#000000" stroke-opacity="1" stroke-width="3.2"/>
<circle clip-path="url(#clip142)" cx="1015.93" cy="673.878" r="14" fill="#009af9" fill-rule="evenodd" fill-opacity="1" stroke="#000000" stroke-opacity="1" stroke-width="3.2"/>
<circle clip-path="url(#clip142)" cx="1046.36" cy="786.834" r="14" fill="#009af9" fill-rule="evenodd" fill-opacity="1" stroke="#000000" stroke-opacity="1" stroke-width="3.2"/>
<circle clip-path="url(#clip142)" cx="1381.18" cy="206.871" r="14" fill="#009af9" fill-rule="evenodd" fill-opacity="1" stroke="#000000" stroke-opacity="1" stroke-width="3.2"/>
<circle clip-path="url(#clip142)" cx="1411.62" cy="226.156" r="14" fill="#009af9" fill-rule="evenodd" fill-opacity="1" stroke="#000000" stroke-opacity="1" stroke-width="3.2"/>
<circle clip-path="url(#clip142)" cx="1442.06" cy="243.27" r="14" fill="#009af9" fill-rule="evenodd" fill-opacity="1" stroke="#000000" stroke-opacity="1" stroke-width="3.2"/>
<circle clip-path="url(#clip142)" cx="1472.49" cy="258.566" r="14" fill="#009af9" fill-rule="evenodd" fill-opacity="1" stroke="#000000" stroke-opacity="1" stroke-width="3.2"/>
<circle clip-path="url(#clip142)" cx="1502.93" cy="272.39" r="14" fill="#009af9" fill-rule="evenodd" fill-opacity="1" stroke="#000000" stroke-opacity="1" stroke-width="3.2"/>
<circle clip-path="url(#clip142)" cx="1533.37" cy="285.087" r="14" fill="#009af9" fill-rule="evenodd" fill-opacity="1" stroke="#000000" stroke-opacity="1" stroke-width="3.2"/>
<circle clip-path="url(#clip142)" cx="1563.81" cy="297.013" r="14" fill="#009af9" fill-rule="evenodd" fill-opacity="1" stroke="#000000" stroke-opacity="1" stroke-width="3.2"/>
<circle clip-path="url(#clip142)" cx="1594.24" cy="308.553" r="14" fill="#009af9" fill-rule="evenodd" fill-opacity="1" stroke="#000000" stroke-opacity="1" stroke-width="3.2"/>
<circle clip-path="url(#clip142)" cx="1624.68" cy="320.146" r="14" fill="#009af9" fill-rule="evenodd" fill-opacity="1" stroke="#000000" stroke-opacity="1" stroke-width="3.2"/>
<circle clip-path="url(#clip142)" cx="1655.12" cy="332.327" r="14" fill="#009af9" fill-rule="evenodd" fill-opacity="1" stroke="#000000" stroke-opacity="1" stroke-width="3.2"/>
<circle clip-path="url(#clip142)" cx="1076.8" cy="256.304" r="14" fill="#009af9" fill-rule="evenodd" fill-opacity="1" stroke="#000000" stroke-opacity="1" stroke-width="3.2"/>
<circle clip-path="url(#clip142)" cx="1107.24" cy="276.008" r="14" fill="#009af9" fill-rule="evenodd" fill-opacity="1" stroke="#000000" stroke-opacity="1" stroke-width="3.2"/>
<circle clip-path="url(#clip142)" cx="1137.68" cy="294.518" r="14" fill="#009af9" fill-rule="evenodd" fill-opacity="1" stroke="#000000" stroke-opacity="1" stroke-width="3.2"/>
<circle clip-path="url(#clip142)" cx="1168.11" cy="312.338" r="14" fill="#009af9" fill-rule="evenodd" fill-opacity="1" stroke="#000000" stroke-opacity="1" stroke-width="3.2"/>
<circle clip-path="url(#clip142)" cx="1198.55" cy="330.038" r="14" fill="#009af9" fill-rule="evenodd" fill-opacity="1" stroke="#000000" stroke-opacity="1" stroke-width="3.2"/>
<circle clip-path="url(#clip142)" cx="1228.99" cy="348.301" r="14" fill="#009af9" fill-rule="evenodd" fill-opacity="1" stroke="#000000" stroke-opacity="1" stroke-width="3.2"/>
<circle clip-path="url(#clip142)" cx="1259.43" cy="367.99" r="14" fill="#009af9" fill-rule="evenodd" fill-opacity="1" stroke="#000000" stroke-opacity="1" stroke-width="3.2"/>
<circle clip-path="url(#clip142)" cx="1289.87" cy="390.263" r="14" fill="#009af9" fill-rule="evenodd" fill-opacity="1" stroke="#000000" stroke-opacity="1" stroke-width="3.2"/>
<circle clip-path="url(#clip142)" cx="1320.3" cy="416.752" r="14" fill="#009af9" fill-rule="evenodd" fill-opacity="1" stroke="#000000" stroke-opacity="1" stroke-width="3.2"/>
<circle clip-path="url(#clip142)" cx="1350.74" cy="449.86" r="14" fill="#009af9" fill-rule="evenodd" fill-opacity="1" stroke="#000000" stroke-opacity="1" stroke-width="3.2"/>
<circle clip-path="url(#clip142)" cx="620.233" cy="374.723" r="14" fill="#009af9" fill-rule="evenodd" fill-opacity="1" stroke="#000000" stroke-opacity="1" stroke-width="3.2"/>
<circle clip-path="url(#clip142)" cx="681.109" cy="442.752" r="14" fill="#009af9" fill-rule="evenodd" fill-opacity="1" stroke="#000000" stroke-opacity="1" stroke-width="3.2"/>
<circle clip-path="url(#clip142)" cx="711.547" cy="484.404" r="14" fill="#009af9" fill-rule="evenodd" fill-opacity="1" stroke="#000000" stroke-opacity="1" stroke-width="3.2"/>
<circle clip-path="url(#clip142)" cx="741.985" cy="534.812" r="14" fill="#009af9" fill-rule="evenodd" fill-opacity="1" stroke="#000000" stroke-opacity="1" stroke-width="3.2"/>
<circle clip-path="url(#clip142)" cx="772.423" cy="598.09" r="14" fill="#009af9" fill-rule="evenodd" fill-opacity="1" stroke="#000000" stroke-opacity="1" stroke-width="3.2"/>
<circle clip-path="url(#clip142)" cx="802.86" cy="679.821" r="14" fill="#009af9" fill-rule="evenodd" fill-opacity="1" stroke="#000000" stroke-opacity="1" stroke-width="3.2"/>
<circle clip-path="url(#clip142)" cx="833.298" cy="786.915" r="14" fill="#009af9" fill-rule="evenodd" fill-opacity="1" stroke="#000000" stroke-opacity="1" stroke-width="3.2"/>
<circle clip-path="url(#clip142)" cx="894.174" cy="1095.28" r="14" fill="#009af9" fill-rule="evenodd" fill-opacity="1" stroke="#000000" stroke-opacity="1" stroke-width="3.2"/>
<circle clip-path="url(#clip142)" cx="772.423" cy="325.59" r="14" fill="#009af9" fill-rule="evenodd" fill-opacity="1" stroke="#000000" stroke-opacity="1" stroke-width="3.2"/>
<circle clip-path="url(#clip142)" cx="802.86" cy="350.923" r="14" fill="#009af9" fill-rule="evenodd" fill-opacity="1" stroke="#000000" stroke-opacity="1" stroke-width="3.2"/>
<circle clip-path="url(#clip142)" cx="833.298" cy="377.424" r="14" fill="#009af9" fill-rule="evenodd" fill-opacity="1" stroke="#000000" stroke-opacity="1" stroke-width="3.2"/>
<circle clip-path="url(#clip142)" cx="894.174" cy="439.222" r="14" fill="#009af9" fill-rule="evenodd" fill-opacity="1" stroke="#000000" stroke-opacity="1" stroke-width="3.2"/>
<circle clip-path="url(#clip142)" cx="955.05" cy="527.173" r="14" fill="#009af9" fill-rule="evenodd" fill-opacity="1" stroke="#000000" stroke-opacity="1" stroke-width="3.2"/>
<circle clip-path="url(#clip142)" cx="985.488" cy="590.129" r="14" fill="#009af9" fill-rule="evenodd" fill-opacity="1" stroke="#000000" stroke-opacity="1" stroke-width="3.2"/>
<circle clip-path="url(#clip142)" cx="1015.93" cy="673.878" r="14" fill="#009af9" fill-rule="evenodd" fill-opacity="1" stroke="#000000" stroke-opacity="1" stroke-width="3.2"/>
<circle clip-path="url(#clip142)" cx="1046.36" cy="786.834" r="14" fill="#009af9" fill-rule="evenodd" fill-opacity="1" stroke="#000000" stroke-opacity="1" stroke-width="3.2"/>
<circle clip-path="url(#clip142)" cx="772.423" cy="325.59" r="14" fill="#009af9" fill-rule="evenodd" fill-opacity="1" stroke="#000000" stroke-opacity="1" stroke-width="3.2"/>
<circle clip-path="url(#clip142)" cx="833.298" cy="377.424" r="14" fill="#009af9" fill-rule="evenodd" fill-opacity="1" stroke="#000000" stroke-opacity="1" stroke-width="3.2"/>
<circle clip-path="url(#clip142)" cx="863.736" cy="406.312" r="14" fill="#009af9" fill-rule="evenodd" fill-opacity="1" stroke="#000000" stroke-opacity="1" stroke-width="3.2"/>
<circle clip-path="url(#clip142)" cx="894.174" cy="439.222" r="14" fill="#009af9" fill-rule="evenodd" fill-opacity="1" stroke="#000000" stroke-opacity="1" stroke-width="3.2"/>
<circle clip-path="url(#clip142)" cx="1076.8" cy="156.458" r="14" fill="#009af9" fill-rule="evenodd" fill-opacity="1" stroke="#000000" stroke-opacity="1" stroke-width="3.2"/>
<circle clip-path="url(#clip142)" cx="1107.24" cy="178.311" r="14" fill="#009af9" fill-rule="evenodd" fill-opacity="1" stroke="#000000" stroke-opacity="1" stroke-width="3.2"/>
<circle clip-path="url(#clip142)" cx="1137.68" cy="197.275" r="14" fill="#009af9" fill-rule="evenodd" fill-opacity="1" stroke="#000000" stroke-opacity="1" stroke-width="3.2"/>
<circle clip-path="url(#clip142)" cx="1168.11" cy="213.708" r="14" fill="#009af9" fill-rule="evenodd" fill-opacity="1" stroke="#000000" stroke-opacity="1" stroke-width="3.2"/>
<circle clip-path="url(#clip142)" cx="1198.55" cy="227.937" r="14" fill="#009af9" fill-rule="evenodd" fill-opacity="1" stroke="#000000" stroke-opacity="1" stroke-width="3.2"/>
<circle clip-path="url(#clip142)" cx="1076.8" cy="192.339" r="14" fill="#009af9" fill-rule="evenodd" fill-opacity="1" stroke="#000000" stroke-opacity="1" stroke-width="3.2"/>
<circle clip-path="url(#clip142)" cx="1107.24" cy="212.068" r="14" fill="#009af9" fill-rule="evenodd" fill-opacity="1" stroke="#000000" stroke-opacity="1" stroke-width="3.2"/>
<circle clip-path="url(#clip142)" cx="1137.68" cy="229.404" r="14" fill="#009af9" fill-rule="evenodd" fill-opacity="1" stroke="#000000" stroke-opacity="1" stroke-width="3.2"/>
<circle clip-path="url(#clip142)" cx="1168.11" cy="244.693" r="14" fill="#009af9" fill-rule="evenodd" fill-opacity="1" stroke="#000000" stroke-opacity="1" stroke-width="3.2"/>
<circle clip-path="url(#clip142)" cx="1198.55" cy="258.26" r="14" fill="#009af9" fill-rule="evenodd" fill-opacity="1" stroke="#000000" stroke-opacity="1" stroke-width="3.2"/>
<circle clip-path="url(#clip142)" cx="1228.99" cy="270.42" r="14" fill="#009af9" fill-rule="evenodd" fill-opacity="1" stroke="#000000" stroke-opacity="1" stroke-width="3.2"/>
<circle clip-path="url(#clip142)" cx="1137.68" cy="113.482" r="14" fill="#009af9" fill-rule="evenodd" fill-opacity="1" stroke="#000000" stroke-opacity="1" stroke-width="3.2"/>
<circle clip-path="url(#clip142)" cx="1259.43" cy="197.279" r="14" fill="#009af9" fill-rule="evenodd" fill-opacity="1" stroke="#000000" stroke-opacity="1" stroke-width="3.2"/>
<circle clip-path="url(#clip142)" cx="2020.37" cy="122.189" r="14" fill="#009af9" fill-rule="evenodd" fill-opacity="1" stroke="#000000" stroke-opacity="1" stroke-width="3.2"/>
<circle clip-path="url(#clip142)" cx="2050.81" cy="147.087" r="14" fill="#009af9" fill-rule="evenodd" fill-opacity="1" stroke="#000000" stroke-opacity="1" stroke-width="3.2"/>
<circle clip-path="url(#clip142)" cx="2081.25" cy="168.64" r="14" fill="#009af9" fill-rule="evenodd" fill-opacity="1" stroke="#000000" stroke-opacity="1" stroke-width="3.2"/>
<circle clip-path="url(#clip142)" cx="2111.69" cy="187.238" r="14" fill="#009af9" fill-rule="evenodd" fill-opacity="1" stroke="#000000" stroke-opacity="1" stroke-width="3.2"/>
<circle clip-path="url(#clip142)" cx="2142.13" cy="203.239" r="14" fill="#009af9" fill-rule="evenodd" fill-opacity="1" stroke="#000000" stroke-opacity="1" stroke-width="3.2"/>
<circle clip-path="url(#clip142)" cx="2172.56" cy="216.968" r="14" fill="#009af9" fill-rule="evenodd" fill-opacity="1" stroke="#000000" stroke-opacity="1" stroke-width="3.2"/>
<circle clip-path="url(#clip142)" cx="2203" cy="228.724" r="14" fill="#009af9" fill-rule="evenodd" fill-opacity="1" stroke="#000000" stroke-opacity="1" stroke-width="3.2"/>
<circle clip-path="url(#clip142)" cx="2233.44" cy="238.775" r="14" fill="#009af9" fill-rule="evenodd" fill-opacity="1" stroke="#000000" stroke-opacity="1" stroke-width="3.2"/>
<circle clip-path="url(#clip142)" cx="2263.88" cy="247.365" r="14" fill="#009af9" fill-rule="evenodd" fill-opacity="1" stroke="#000000" stroke-opacity="1" stroke-width="3.2"/>
<circle clip-path="url(#clip142)" cx="2294.32" cy="254.714" r="14" fill="#009af9" fill-rule="evenodd" fill-opacity="1" stroke="#000000" stroke-opacity="1" stroke-width="3.2"/>
<circle clip-path="url(#clip142)" cx="772.423" cy="325.59" r="14" fill="#009af9" fill-rule="evenodd" fill-opacity="1" stroke="#000000" stroke-opacity="1" stroke-width="3.2"/>
<circle clip-path="url(#clip142)" cx="802.86" cy="350.923" r="14" fill="#009af9" fill-rule="evenodd" fill-opacity="1" stroke="#000000" stroke-opacity="1" stroke-width="3.2"/>
<circle clip-path="url(#clip142)" cx="833.298" cy="377.424" r="14" fill="#009af9" fill-rule="evenodd" fill-opacity="1" stroke="#000000" stroke-opacity="1" stroke-width="3.2"/>
<circle clip-path="url(#clip142)" cx="863.736" cy="406.312" r="14" fill="#009af9" fill-rule="evenodd" fill-opacity="1" stroke="#000000" stroke-opacity="1" stroke-width="3.2"/>
<circle clip-path="url(#clip142)" cx="894.174" cy="439.222" r="14" fill="#009af9" fill-rule="evenodd" fill-opacity="1" stroke="#000000" stroke-opacity="1" stroke-width="3.2"/>
<circle clip-path="url(#clip142)" cx="924.612" cy="478.428" r="14" fill="#009af9" fill-rule="evenodd" fill-opacity="1" stroke="#000000" stroke-opacity="1" stroke-width="3.2"/>
<circle clip-path="url(#clip142)" cx="955.05" cy="527.173" r="14" fill="#009af9" fill-rule="evenodd" fill-opacity="1" stroke="#000000" stroke-opacity="1" stroke-width="3.2"/>
<circle clip-path="url(#clip142)" cx="985.488" cy="590.129" r="14" fill="#009af9" fill-rule="evenodd" fill-opacity="1" stroke="#000000" stroke-opacity="1" stroke-width="3.2"/>
<circle clip-path="url(#clip142)" cx="772.423" cy="216.509" r="14" fill="#009af9" fill-rule="evenodd" fill-opacity="1" stroke="#000000" stroke-opacity="1" stroke-width="3.2"/>
<circle clip-path="url(#clip142)" cx="802.86" cy="235.596" r="14" fill="#009af9" fill-rule="evenodd" fill-opacity="1" stroke="#000000" stroke-opacity="1" stroke-width="3.2"/>
<circle clip-path="url(#clip142)" cx="833.298" cy="252.671" r="14" fill="#009af9" fill-rule="evenodd" fill-opacity="1" stroke="#000000" stroke-opacity="1" stroke-width="3.2"/>
<circle clip-path="url(#clip142)" cx="863.736" cy="268.101" r="14" fill="#009af9" fill-rule="evenodd" fill-opacity="1" stroke="#000000" stroke-opacity="1" stroke-width="3.2"/>
<circle clip-path="url(#clip142)" cx="894.174" cy="282.252" r="14" fill="#009af9" fill-rule="evenodd" fill-opacity="1" stroke="#000000" stroke-opacity="1" stroke-width="3.2"/>
<circle clip-path="url(#clip142)" cx="924.612" cy="295.498" r="14" fill="#009af9" fill-rule="evenodd" fill-opacity="1" stroke="#000000" stroke-opacity="1" stroke-width="3.2"/>
<circle clip-path="url(#clip142)" cx="955.05" cy="308.245" r="14" fill="#009af9" fill-rule="evenodd" fill-opacity="1" stroke="#000000" stroke-opacity="1" stroke-width="3.2"/>
<circle clip-path="url(#clip142)" cx="985.488" cy="320.949" r="14" fill="#009af9" fill-rule="evenodd" fill-opacity="1" stroke="#000000" stroke-opacity="1" stroke-width="3.2"/>
<circle clip-path="url(#clip142)" cx="1015.93" cy="334.16" r="14" fill="#009af9" fill-rule="evenodd" fill-opacity="1" stroke="#000000" stroke-opacity="1" stroke-width="3.2"/>
<circle clip-path="url(#clip142)" cx="1046.36" cy="348.581" r="14" fill="#009af9" fill-rule="evenodd" fill-opacity="1" stroke="#000000" stroke-opacity="1" stroke-width="3.2"/>
<circle clip-path="url(#clip142)" cx="1259.43" cy="225.202" r="14" fill="#009af9" fill-rule="evenodd" fill-opacity="1" stroke="#000000" stroke-opacity="1" stroke-width="3.2"/>
<circle clip-path="url(#clip142)" cx="1289.87" cy="244.273" r="14" fill="#009af9" fill-rule="evenodd" fill-opacity="1" stroke="#000000" stroke-opacity="1" stroke-width="3.2"/>
<circle clip-path="url(#clip142)" cx="1320.3" cy="261.487" r="14" fill="#009af9" fill-rule="evenodd" fill-opacity="1" stroke="#000000" stroke-opacity="1" stroke-width="3.2"/>
<circle clip-path="url(#clip142)" cx="1350.74" cy="277.227" r="14" fill="#009af9" fill-rule="evenodd" fill-opacity="1" stroke="#000000" stroke-opacity="1" stroke-width="3.2"/>
<circle clip-path="url(#clip142)" cx="1381.18" cy="291.888" r="14" fill="#009af9" fill-rule="evenodd" fill-opacity="1" stroke="#000000" stroke-opacity="1" stroke-width="3.2"/>
<circle clip-path="url(#clip142)" cx="1411.62" cy="305.885" r="14" fill="#009af9" fill-rule="evenodd" fill-opacity="1" stroke="#000000" stroke-opacity="1" stroke-width="3.2"/>
<circle clip-path="url(#clip142)" cx="1442.06" cy="319.686" r="14" fill="#009af9" fill-rule="evenodd" fill-opacity="1" stroke="#000000" stroke-opacity="1" stroke-width="3.2"/>
<circle clip-path="url(#clip142)" cx="1472.49" cy="333.841" r="14" fill="#009af9" fill-rule="evenodd" fill-opacity="1" stroke="#000000" stroke-opacity="1" stroke-width="3.2"/>
<circle clip-path="url(#clip142)" cx="1502.93" cy="349.042" r="14" fill="#009af9" fill-rule="evenodd" fill-opacity="1" stroke="#000000" stroke-opacity="1" stroke-width="3.2"/>
<circle clip-path="url(#clip142)" cx="1533.37" cy="366.213" r="14" fill="#009af9" fill-rule="evenodd" fill-opacity="1" stroke="#000000" stroke-opacity="1" stroke-width="3.2"/>
<circle clip-path="url(#clip142)" cx="924.612" cy="287.335" r="14" fill="#009af9" fill-rule="evenodd" fill-opacity="1" stroke="#000000" stroke-opacity="1" stroke-width="3.2"/>
<circle clip-path="url(#clip142)" cx="955.05" cy="308.889" r="14" fill="#009af9" fill-rule="evenodd" fill-opacity="1" stroke="#000000" stroke-opacity="1" stroke-width="3.2"/>
<circle clip-path="url(#clip142)" cx="985.488" cy="330.139" r="14" fill="#009af9" fill-rule="evenodd" fill-opacity="1" stroke="#000000" stroke-opacity="1" stroke-width="3.2"/>
<circle clip-path="url(#clip142)" cx="1015.93" cy="351.822" r="14" fill="#009af9" fill-rule="evenodd" fill-opacity="1" stroke="#000000" stroke-opacity="1" stroke-width="3.2"/>
<circle clip-path="url(#clip142)" cx="1046.36" cy="374.858" r="14" fill="#009af9" fill-rule="evenodd" fill-opacity="1" stroke="#000000" stroke-opacity="1" stroke-width="3.2"/>
<circle clip-path="url(#clip142)" cx="1076.8" cy="400.45" r="14" fill="#009af9" fill-rule="evenodd" fill-opacity="1" stroke="#000000" stroke-opacity="1" stroke-width="3.2"/>
<circle clip-path="url(#clip142)" cx="1107.24" cy="430.255" r="14" fill="#009af9" fill-rule="evenodd" fill-opacity="1" stroke="#000000" stroke-opacity="1" stroke-width="3.2"/>
<circle clip-path="url(#clip142)" cx="1137.68" cy="466.642" r="14" fill="#009af9" fill-rule="evenodd" fill-opacity="1" stroke="#000000" stroke-opacity="1" stroke-width="3.2"/>
<circle clip-path="url(#clip142)" cx="1168.11" cy="513.11" r="14" fill="#009af9" fill-rule="evenodd" fill-opacity="1" stroke="#000000" stroke-opacity="1" stroke-width="3.2"/>
<circle clip-path="url(#clip142)" cx="1198.55" cy="574.897" r="14" fill="#009af9" fill-rule="evenodd" fill-opacity="1" stroke="#000000" stroke-opacity="1" stroke-width="3.2"/>
<circle clip-path="url(#clip142)" cx="1046.36" cy="262.064" r="14" fill="#009af9" fill-rule="evenodd" fill-opacity="1" stroke="#000000" stroke-opacity="1" stroke-width="3.2"/>
<circle clip-path="url(#clip142)" cx="1076.8" cy="282.022" r="14" fill="#009af9" fill-rule="evenodd" fill-opacity="1" stroke="#000000" stroke-opacity="1" stroke-width="3.2"/>
<circle clip-path="url(#clip142)" cx="1107.24" cy="300.932" r="14" fill="#009af9" fill-rule="evenodd" fill-opacity="1" stroke="#000000" stroke-opacity="1" stroke-width="3.2"/>
<circle clip-path="url(#clip142)" cx="1168.11" cy="312.338" r="14" fill="#009af9" fill-rule="evenodd" fill-opacity="1" stroke="#000000" stroke-opacity="1" stroke-width="3.2"/>
<circle clip-path="url(#clip142)" cx="1168.11" cy="337.842" r="14" fill="#009af9" fill-rule="evenodd" fill-opacity="1" stroke="#000000" stroke-opacity="1" stroke-width="3.2"/>
<circle clip-path="url(#clip142)" cx="1198.55" cy="357.22" r="14" fill="#009af9" fill-rule="evenodd" fill-opacity="1" stroke="#000000" stroke-opacity="1" stroke-width="3.2"/>
<circle clip-path="url(#clip142)" cx="1228.99" cy="378.443" r="14" fill="#009af9" fill-rule="evenodd" fill-opacity="1" stroke="#000000" stroke-opacity="1" stroke-width="3.2"/>
<circle clip-path="url(#clip142)" cx="1076.8" cy="139.013" r="14" fill="#009af9" fill-rule="evenodd" fill-opacity="1" stroke="#000000" stroke-opacity="1" stroke-width="3.2"/>
<circle clip-path="url(#clip142)" cx="1107.24" cy="162.307" r="14" fill="#009af9" fill-rule="evenodd" fill-opacity="1" stroke="#000000" stroke-opacity="1" stroke-width="3.2"/>
<circle clip-path="url(#clip142)" cx="1137.68" cy="182.481" r="14" fill="#009af9" fill-rule="evenodd" fill-opacity="1" stroke="#000000" stroke-opacity="1" stroke-width="3.2"/>
<circle clip-path="url(#clip142)" cx="1168.11" cy="199.908" r="14" fill="#009af9" fill-rule="evenodd" fill-opacity="1" stroke="#000000" stroke-opacity="1" stroke-width="3.2"/>
<circle clip-path="url(#clip142)" cx="1198.55" cy="214.928" r="14" fill="#009af9" fill-rule="evenodd" fill-opacity="1" stroke="#000000" stroke-opacity="1" stroke-width="3.2"/>
<circle clip-path="url(#clip142)" cx="1228.99" cy="227.853" r="14" fill="#009af9" fill-rule="evenodd" fill-opacity="1" stroke="#000000" stroke-opacity="1" stroke-width="3.2"/>
<circle clip-path="url(#clip142)" cx="1259.43" cy="238.97" r="14" fill="#009af9" fill-rule="evenodd" fill-opacity="1" stroke="#000000" stroke-opacity="1" stroke-width="3.2"/>
<circle clip-path="url(#clip142)" cx="1289.87" cy="248.537" r="14" fill="#009af9" fill-rule="evenodd" fill-opacity="1" stroke="#000000" stroke-opacity="1" stroke-width="3.2"/>
<circle clip-path="url(#clip142)" cx="1320.3" cy="256.792" r="14" fill="#009af9" fill-rule="evenodd" fill-opacity="1" stroke="#000000" stroke-opacity="1" stroke-width="3.2"/>
<circle clip-path="url(#clip142)" cx="1350.74" cy="263.955" r="14" fill="#009af9" fill-rule="evenodd" fill-opacity="1" stroke="#000000" stroke-opacity="1" stroke-width="3.2"/>
<circle clip-path="url(#clip142)" cx="1442.06" cy="198.197" r="14" fill="#009af9" fill-rule="evenodd" fill-opacity="1" stroke="#000000" stroke-opacity="1" stroke-width="3.2"/>
<circle clip-path="url(#clip142)" cx="1472.49" cy="217.729" r="14" fill="#009af9" fill-rule="evenodd" fill-opacity="1" stroke="#000000" stroke-opacity="1" stroke-width="3.2"/>
<circle clip-path="url(#clip142)" cx="1502.93" cy="234.955" r="14" fill="#009af9" fill-rule="evenodd" fill-opacity="1" stroke="#000000" stroke-opacity="1" stroke-width="3.2"/>
<circle clip-path="url(#clip142)" cx="1533.37" cy="250.223" r="14" fill="#009af9" fill-rule="evenodd" fill-opacity="1" stroke="#000000" stroke-opacity="1" stroke-width="3.2"/>
<circle clip-path="url(#clip142)" cx="1563.81" cy="263.864" r="14" fill="#009af9" fill-rule="evenodd" fill-opacity="1" stroke="#000000" stroke-opacity="1" stroke-width="3.2"/>
<circle clip-path="url(#clip142)" cx="1594.24" cy="276.205" r="14" fill="#009af9" fill-rule="evenodd" fill-opacity="1" stroke="#000000" stroke-opacity="1" stroke-width="3.2"/>
<circle clip-path="url(#clip142)" cx="1624.68" cy="287.569" r="14" fill="#009af9" fill-rule="evenodd" fill-opacity="1" stroke="#000000" stroke-opacity="1" stroke-width="3.2"/>
<circle clip-path="url(#clip142)" cx="1655.12" cy="298.295" r="14" fill="#009af9" fill-rule="evenodd" fill-opacity="1" stroke="#000000" stroke-opacity="1" stroke-width="3.2"/>
<circle clip-path="url(#clip142)" cx="1685.56" cy="308.75" r="14" fill="#009af9" fill-rule="evenodd" fill-opacity="1" stroke="#000000" stroke-opacity="1" stroke-width="3.2"/>
<circle clip-path="url(#clip142)" cx="1716" cy="319.361" r="14" fill="#009af9" fill-rule="evenodd" fill-opacity="1" stroke="#000000" stroke-opacity="1" stroke-width="3.2"/>
<circle clip-path="url(#clip142)" cx="1015.93" cy="146.837" r="14" fill="#009af9" fill-rule="evenodd" fill-opacity="1" stroke="#000000" stroke-opacity="1" stroke-width="3.2"/>
<circle clip-path="url(#clip142)" cx="1046.36" cy="169.456" r="14" fill="#009af9" fill-rule="evenodd" fill-opacity="1" stroke="#000000" stroke-opacity="1" stroke-width="3.2"/>
<circle clip-path="url(#clip142)" cx="1076.8" cy="189.057" r="14" fill="#009af9" fill-rule="evenodd" fill-opacity="1" stroke="#000000" stroke-opacity="1" stroke-width="3.2"/>
<circle clip-path="url(#clip142)" cx="1107.24" cy="206.008" r="14" fill="#009af9" fill-rule="evenodd" fill-opacity="1" stroke="#000000" stroke-opacity="1" stroke-width="3.2"/>
<circle clip-path="url(#clip142)" cx="1137.68" cy="220.642" r="14" fill="#009af9" fill-rule="evenodd" fill-opacity="1" stroke="#000000" stroke-opacity="1" stroke-width="3.2"/>
<circle clip-path="url(#clip142)" cx="1168.11" cy="233.266" r="14" fill="#009af9" fill-rule="evenodd" fill-opacity="1" stroke="#000000" stroke-opacity="1" stroke-width="3.2"/>
<circle clip-path="url(#clip142)" cx="1198.55" cy="244.162" r="14" fill="#009af9" fill-rule="evenodd" fill-opacity="1" stroke="#000000" stroke-opacity="1" stroke-width="3.2"/>
<circle clip-path="url(#clip142)" cx="1228.99" cy="253.587" r="14" fill="#009af9" fill-rule="evenodd" fill-opacity="1" stroke="#000000" stroke-opacity="1" stroke-width="3.2"/>
<circle clip-path="url(#clip142)" cx="1259.43" cy="261.78" r="14" fill="#009af9" fill-rule="evenodd" fill-opacity="1" stroke="#000000" stroke-opacity="1" stroke-width="3.2"/>
<circle clip-path="url(#clip142)" cx="1381.18" cy="134.745" r="14" fill="#009af9" fill-rule="evenodd" fill-opacity="1" stroke="#000000" stroke-opacity="1" stroke-width="3.2"/>
<circle clip-path="url(#clip142)" cx="1411.62" cy="158.434" r="14" fill="#009af9" fill-rule="evenodd" fill-opacity="1" stroke="#000000" stroke-opacity="1" stroke-width="3.2"/>
<circle clip-path="url(#clip142)" cx="1442.06" cy="178.945" r="14" fill="#009af9" fill-rule="evenodd" fill-opacity="1" stroke="#000000" stroke-opacity="1" stroke-width="3.2"/>
<circle clip-path="url(#clip142)" cx="1502.93" cy="211.911" r="14" fill="#009af9" fill-rule="evenodd" fill-opacity="1" stroke="#000000" stroke-opacity="1" stroke-width="3.2"/>
<circle clip-path="url(#clip142)" cx="1533.37" cy="225.027" r="14" fill="#009af9" fill-rule="evenodd" fill-opacity="1" stroke="#000000" stroke-opacity="1" stroke-width="3.2"/>
<circle clip-path="url(#clip142)" cx="1563.81" cy="236.29" r="14" fill="#009af9" fill-rule="evenodd" fill-opacity="1" stroke="#000000" stroke-opacity="1" stroke-width="3.2"/>
<circle clip-path="url(#clip142)" cx="1594.24" cy="245.963" r="14" fill="#009af9" fill-rule="evenodd" fill-opacity="1" stroke="#000000" stroke-opacity="1" stroke-width="3.2"/>
<circle clip-path="url(#clip142)" cx="1624.68" cy="254.285" r="14" fill="#009af9" fill-rule="evenodd" fill-opacity="1" stroke="#000000" stroke-opacity="1" stroke-width="3.2"/>
<circle clip-path="url(#clip142)" cx="1655.12" cy="261.474" r="14" fill="#009af9" fill-rule="evenodd" fill-opacity="1" stroke="#000000" stroke-opacity="1" stroke-width="3.2"/>
<circle clip-path="url(#clip142)" cx="1228.99" cy="136.881" r="14" fill="#009af9" fill-rule="evenodd" fill-opacity="1" stroke="#000000" stroke-opacity="1" stroke-width="3.2"/>
<circle clip-path="url(#clip142)" cx="1259.43" cy="160.371" r="14" fill="#009af9" fill-rule="evenodd" fill-opacity="1" stroke="#000000" stroke-opacity="1" stroke-width="3.2"/>
<circle clip-path="url(#clip142)" cx="1289.87" cy="180.712" r="14" fill="#009af9" fill-rule="evenodd" fill-opacity="1" stroke="#000000" stroke-opacity="1" stroke-width="3.2"/>
<circle clip-path="url(#clip142)" cx="1320.3" cy="198.279" r="14" fill="#009af9" fill-rule="evenodd" fill-opacity="1" stroke="#000000" stroke-opacity="1" stroke-width="3.2"/>
<circle clip-path="url(#clip142)" cx="1350.74" cy="213.415" r="14" fill="#009af9" fill-rule="evenodd" fill-opacity="1" stroke="#000000" stroke-opacity="1" stroke-width="3.2"/>
<circle clip-path="url(#clip142)" cx="1381.18" cy="226.434" r="14" fill="#009af9" fill-rule="evenodd" fill-opacity="1" stroke="#000000" stroke-opacity="1" stroke-width="3.2"/>
<circle clip-path="url(#clip142)" cx="1411.62" cy="237.623" r="14" fill="#009af9" fill-rule="evenodd" fill-opacity="1" stroke="#000000" stroke-opacity="1" stroke-width="3.2"/>
<circle clip-path="url(#clip142)" cx="1442.06" cy="247.241" r="14" fill="#009af9" fill-rule="evenodd" fill-opacity="1" stroke="#000000" stroke-opacity="1" stroke-width="3.2"/>
<circle clip-path="url(#clip142)" cx="1472.49" cy="255.528" r="14" fill="#009af9" fill-rule="evenodd" fill-opacity="1" stroke="#000000" stroke-opacity="1" stroke-width="3.2"/>
<circle clip-path="url(#clip142)" cx="1502.93" cy="262.701" r="14" fill="#009af9" fill-rule="evenodd" fill-opacity="1" stroke="#000000" stroke-opacity="1" stroke-width="3.2"/>
<circle clip-path="url(#clip142)" cx="1228.99" cy="230.04" r="14" fill="#009af9" fill-rule="evenodd" fill-opacity="1" stroke="#000000" stroke-opacity="1" stroke-width="3.2"/>
<circle clip-path="url(#clip142)" cx="1259.43" cy="249.127" r="14" fill="#009af9" fill-rule="evenodd" fill-opacity="1" stroke="#000000" stroke-opacity="1" stroke-width="3.2"/>
<circle clip-path="url(#clip142)" cx="1289.87" cy="266.448" r="14" fill="#009af9" fill-rule="evenodd" fill-opacity="1" stroke="#000000" stroke-opacity="1" stroke-width="3.2"/>
<circle clip-path="url(#clip142)" cx="1320.3" cy="282.398" r="14" fill="#009af9" fill-rule="evenodd" fill-opacity="1" stroke="#000000" stroke-opacity="1" stroke-width="3.2"/>
<circle clip-path="url(#clip142)" cx="1350.74" cy="297.391" r="14" fill="#009af9" fill-rule="evenodd" fill-opacity="1" stroke="#000000" stroke-opacity="1" stroke-width="3.2"/>
<circle clip-path="url(#clip142)" cx="1381.18" cy="311.87" r="14" fill="#009af9" fill-rule="evenodd" fill-opacity="1" stroke="#000000" stroke-opacity="1" stroke-width="3.2"/>
<circle clip-path="url(#clip142)" cx="1411.62" cy="326.345" r="14" fill="#009af9" fill-rule="evenodd" fill-opacity="1" stroke="#000000" stroke-opacity="1" stroke-width="3.2"/>
<circle clip-path="url(#clip142)" cx="1442.06" cy="341.429" r="14" fill="#009af9" fill-rule="evenodd" fill-opacity="1" stroke="#000000" stroke-opacity="1" stroke-width="3.2"/>
<circle clip-path="url(#clip142)" cx="1472.49" cy="357.911" r="14" fill="#009af9" fill-rule="evenodd" fill-opacity="1" stroke="#000000" stroke-opacity="1" stroke-width="3.2"/>
<circle clip-path="url(#clip142)" cx="1502.93" cy="376.866" r="14" fill="#009af9" fill-rule="evenodd" fill-opacity="1" stroke="#000000" stroke-opacity="1" stroke-width="3.2"/>
<circle clip-path="url(#clip142)" cx="620.233" cy="127.933" r="14" fill="#009af9" fill-rule="evenodd" fill-opacity="1" stroke="#000000" stroke-opacity="1" stroke-width="3.2"/>
<circle clip-path="url(#clip142)" cx="650.671" cy="152.235" r="14" fill="#009af9" fill-rule="evenodd" fill-opacity="1" stroke="#000000" stroke-opacity="1" stroke-width="3.2"/>
<circle clip-path="url(#clip142)" cx="681.109" cy="173.27" r="14" fill="#009af9" fill-rule="evenodd" fill-opacity="1" stroke="#000000" stroke-opacity="1" stroke-width="3.2"/>
<circle clip-path="url(#clip142)" cx="711.547" cy="191.423" r="14" fill="#009af9" fill-rule="evenodd" fill-opacity="1" stroke="#000000" stroke-opacity="1" stroke-width="3.2"/>
<circle clip-path="url(#clip142)" cx="741.985" cy="207.044" r="14" fill="#009af9" fill-rule="evenodd" fill-opacity="1" stroke="#000000" stroke-opacity="1" stroke-width="3.2"/>
<circle clip-path="url(#clip142)" cx="772.423" cy="220.456" r="14" fill="#009af9" fill-rule="evenodd" fill-opacity="1" stroke="#000000" stroke-opacity="1" stroke-width="3.2"/>
<circle clip-path="url(#clip142)" cx="802.86" cy="231.949" r="14" fill="#009af9" fill-rule="evenodd" fill-opacity="1" stroke="#000000" stroke-opacity="1" stroke-width="3.2"/>
<circle clip-path="url(#clip142)" cx="833.298" cy="241.79" r="14" fill="#009af9" fill-rule="evenodd" fill-opacity="1" stroke="#000000" stroke-opacity="1" stroke-width="3.2"/>
<circle clip-path="url(#clip142)" cx="863.736" cy="250.219" r="14" fill="#009af9" fill-rule="evenodd" fill-opacity="1" stroke="#000000" stroke-opacity="1" stroke-width="3.2"/>
<circle clip-path="url(#clip142)" cx="894.174" cy="257.454" r="14" fill="#009af9" fill-rule="evenodd" fill-opacity="1" stroke="#000000" stroke-opacity="1" stroke-width="3.2"/>
<circle clip-path="url(#clip142)" cx="1228.99" cy="154.331" r="14" fill="#009af9" fill-rule="evenodd" fill-opacity="1" stroke="#000000" stroke-opacity="1" stroke-width="3.2"/>
<circle clip-path="url(#clip142)" cx="1259.43" cy="176.353" r="14" fill="#009af9" fill-rule="evenodd" fill-opacity="1" stroke="#000000" stroke-opacity="1" stroke-width="3.2"/>
<circle clip-path="url(#clip142)" cx="1289.87" cy="195.458" r="14" fill="#009af9" fill-rule="evenodd" fill-opacity="1" stroke="#000000" stroke-opacity="1" stroke-width="3.2"/>
<circle clip-path="url(#clip142)" cx="1320.3" cy="212.004" r="14" fill="#009af9" fill-rule="evenodd" fill-opacity="1" stroke="#000000" stroke-opacity="1" stroke-width="3.2"/>
<circle clip-path="url(#clip142)" cx="1350.74" cy="226.322" r="14" fill="#009af9" fill-rule="evenodd" fill-opacity="1" stroke="#000000" stroke-opacity="1" stroke-width="3.2"/>
<circle clip-path="url(#clip142)" cx="1381.18" cy="238.713" r="14" fill="#009af9" fill-rule="evenodd" fill-opacity="1" stroke="#000000" stroke-opacity="1" stroke-width="3.2"/>
<circle clip-path="url(#clip142)" cx="1411.62" cy="249.458" r="14" fill="#009af9" fill-rule="evenodd" fill-opacity="1" stroke="#000000" stroke-opacity="1" stroke-width="3.2"/>
<circle clip-path="url(#clip142)" cx="1442.06" cy="258.813" r="14" fill="#009af9" fill-rule="evenodd" fill-opacity="1" stroke="#000000" stroke-opacity="1" stroke-width="3.2"/>
<circle clip-path="url(#clip142)" cx="1472.49" cy="267.02" r="14" fill="#009af9" fill-rule="evenodd" fill-opacity="1" stroke="#000000" stroke-opacity="1" stroke-width="3.2"/>
<circle clip-path="url(#clip142)" cx="1502.93" cy="274.306" r="14" fill="#009af9" fill-rule="evenodd" fill-opacity="1" stroke="#000000" stroke-opacity="1" stroke-width="3.2"/>
<circle clip-path="url(#clip142)" cx="620.233" cy="240.793" r="14" fill="#009af9" fill-rule="evenodd" fill-opacity="1" stroke="#000000" stroke-opacity="1" stroke-width="3.2"/>
<circle clip-path="url(#clip142)" cx="650.671" cy="259.989" r="14" fill="#009af9" fill-rule="evenodd" fill-opacity="1" stroke="#000000" stroke-opacity="1" stroke-width="3.2"/>
<circle clip-path="url(#clip142)" cx="681.109" cy="277.635" r="14" fill="#009af9" fill-rule="evenodd" fill-opacity="1" stroke="#000000" stroke-opacity="1" stroke-width="3.2"/>
<circle clip-path="url(#clip142)" cx="711.547" cy="294.163" r="14" fill="#009af9" fill-rule="evenodd" fill-opacity="1" stroke="#000000" stroke-opacity="1" stroke-width="3.2"/>
<circle clip-path="url(#clip142)" cx="741.985" cy="310.036" r="14" fill="#009af9" fill-rule="evenodd" fill-opacity="1" stroke="#000000" stroke-opacity="1" stroke-width="3.2"/>
<circle clip-path="url(#clip142)" cx="772.423" cy="325.775" r="14" fill="#009af9" fill-rule="evenodd" fill-opacity="1" stroke="#000000" stroke-opacity="1" stroke-width="3.2"/>
<circle clip-path="url(#clip142)" cx="802.86" cy="342.003" r="14" fill="#009af9" fill-rule="evenodd" fill-opacity="1" stroke="#000000" stroke-opacity="1" stroke-width="3.2"/>
<circle clip-path="url(#clip142)" cx="833.298" cy="359.51" r="14" fill="#009af9" fill-rule="evenodd" fill-opacity="1" stroke="#000000" stroke-opacity="1" stroke-width="3.2"/>
<circle clip-path="url(#clip142)" cx="863.736" cy="379.354" r="14" fill="#009af9" fill-rule="evenodd" fill-opacity="1" stroke="#000000" stroke-opacity="1" stroke-width="3.2"/>
<circle clip-path="url(#clip142)" cx="894.174" cy="403.035" r="14" fill="#009af9" fill-rule="evenodd" fill-opacity="1" stroke="#000000" stroke-opacity="1" stroke-width="3.2"/>
<circle clip-path="url(#clip142)" cx="1746.43" cy="86.1857" r="14" fill="#009af9" fill-rule="evenodd" fill-opacity="1" stroke="#000000" stroke-opacity="1" stroke-width="3.2"/>
<circle clip-path="url(#clip142)" cx="1776.87" cy="114.881" r="14" fill="#009af9" fill-rule="evenodd" fill-opacity="1" stroke="#000000" stroke-opacity="1" stroke-width="3.2"/>
<circle clip-path="url(#clip142)" cx="1807.31" cy="139.744" r="14" fill="#009af9" fill-rule="evenodd" fill-opacity="1" stroke="#000000" stroke-opacity="1" stroke-width="3.2"/>
<circle clip-path="url(#clip142)" cx="1837.75" cy="161.21" r="14" fill="#009af9" fill-rule="evenodd" fill-opacity="1" stroke="#000000" stroke-opacity="1" stroke-width="3.2"/>
<circle clip-path="url(#clip142)" cx="1868.19" cy="179.675" r="14" fill="#009af9" fill-rule="evenodd" fill-opacity="1" stroke="#000000" stroke-opacity="1" stroke-width="3.2"/>
<circle clip-path="url(#clip142)" cx="1898.62" cy="195.503" r="14" fill="#009af9" fill-rule="evenodd" fill-opacity="1" stroke="#000000" stroke-opacity="1" stroke-width="3.2"/>
<circle clip-path="url(#clip142)" cx="1929.06" cy="209.023" r="14" fill="#009af9" fill-rule="evenodd" fill-opacity="1" stroke="#000000" stroke-opacity="1" stroke-width="3.2"/>
<circle clip-path="url(#clip142)" cx="346.293" cy="188.18" r="14" fill="#009af9" fill-rule="evenodd" fill-opacity="1" stroke="#000000" stroke-opacity="1" stroke-width="3.2"/>
<circle clip-path="url(#clip142)" cx="376.731" cy="206.495" r="14" fill="#009af9" fill-rule="evenodd" fill-opacity="1" stroke="#000000" stroke-opacity="1" stroke-width="3.2"/>
<circle clip-path="url(#clip142)" cx="407.168" cy="222.414" r="14" fill="#009af9" fill-rule="evenodd" fill-opacity="1" stroke="#000000" stroke-opacity="1" stroke-width="3.2"/>
<circle clip-path="url(#clip142)" cx="437.606" cy="236.261" r="14" fill="#009af9" fill-rule="evenodd" fill-opacity="1" stroke="#000000" stroke-opacity="1" stroke-width="3.2"/>
<polyline clip-path="url(#clip142)" style="stroke:#e26f46; stroke-linecap:butt; stroke-linejoin:round; stroke-width:4; stroke-opacity:1; fill:none" points="
  -1777.05,264.25 4417.66,264.25 
  "/>
</svg>
